<?xml version="1.0" standalone="no"?>
<!DOCTYPE svg PUBLIC "-//W3C//DTD SVG 1.1//EN" "http://www.w3.org/Graphics/SVG/1.1/DTD/svg11.dtd" >
<svg>
<metadata>
Created by FontForge 20090914 at Mon Apr 13 19:36:05 2020
 By www-data
  1999-2001 Apostrophic Labs. All rights reserved. For more works by the designer visit www.apostrophiclab.com
</metadata>
<defs>
<font id="Scriptina" horiz-adv-x="442" >
  <font-face 
    font-family="Scriptina"
    font-weight="400"
    font-stretch="normal"
    units-per-em="1000"
    panose-1="2 0 5 5 0 0 0 2 0 3"
    ascent="800"
    descent="-200"
    x-height="305"
    cap-height="760.498"
    bbox="-1178.04 -946.996 1888 1971"
    underline-thickness="50"
    underline-position="-50"
    unicode-range="U+0005-U+2122"
  />
<missing-glyph horiz-adv-x="550" 
 />
    <glyph glyph-name=".notdef" horiz-adv-x="550" 
 />
    <glyph glyph-name="breve" horiz-adv-x="346" 
d="M36 788c0.666992 3.33301 3.33398 5.00391 8.00098 5.00391c5.33301 0 9 -1.66699 11 -5c12.667 -20 24.5 -35.833 35.5 -47.5s21.333 -20.167 31 -25.5s18.334 -8.66602 26.001 -9.99902s14.5 -2 20.5 -2c5.33301 0 13 0.833008 23 2.5s20.667 5.5 32 11.5
s22.5 14.333 33.5 25s20.5 25 28.5 43c1.33301 4 5 6 11 6s8.66699 -2 8 -6c-2 -20.667 -7.5 -38.834 -16.5 -54.501s-20 -28.834 -33 -39.501s-27.667 -18.834 -44 -24.501s-32.5 -8.5 -48.5 -8.5c-16.667 0 -32.834 4 -48.501 12s-29.334 18.167 -41.001 30.5
s-21 26.166 -28 41.499s-9.83301 30.666 -8.5 45.999z" />
    <glyph glyph-name="dotaccent" horiz-adv-x="286" 
d="M144 625c-18.667 0 -34.334 6.66699 -47.001 20s-19 29 -19 47s7 32.833 21 44.5s29.667 17.5 47 17.5c18.667 0 34.334 -6.16699 47.001 -18.5s19 -27.5 19 -45.5c0 -19.333 -6.83301 -35 -20.5 -47s-29.5 -18 -47.5 -18z" />
    <glyph glyph-name="ring" horiz-adv-x="143" 
d="M119 727c0 -11.333 -4.16699 -20.833 -12.5 -28.5s-18.166 -11.5 -29.499 -11.5s-21 3.83301 -29 11.5s-12 17.167 -12 28.5s4 21 12 29s17.667 12 29 12s21.166 -4 29.499 -12s12.5 -17.667 12.5 -29zM77 695c9.33301 0 17.166 3.16699 23.499 9.5s9.5 13.833 9.5 22.5
c0 9.33301 -3.16699 17.166 -9.5 23.499s-14.166 9.5 -23.499 9.5s-17 -3.16699 -23 -9.5s-9 -14.166 -9 -23.499c0 -8.66699 3 -16.167 9 -22.5s13.667 -9.5 23 -9.5z" />
    <glyph glyph-name="hungarumlaut" unicode="&#xa;" horiz-adv-x="275" 
d="M28 638c-2.66699 -1.33301 -4.66895 -2 -6.00195 -2c-4.66699 0 -7 2 -7 6c0 2.66699 1.33301 5 4 7c39.333 27.333 61 60 65 98c0.666992 5.33301 -0.166016 11 -2.49902 17l-8.5 21c-3.33301 4 1.33398 10.667 14.001 20c12 9.33301 20.333 13.333 25 12
c5.33301 -0.666992 10.333 -8.66699 15 -24c4 -15.333 5 -26.333 3 -33c-12 -33.333 -46 -74 -102 -122zM149.998 638c-2.66699 -1.33301 -4.66895 -2 -6.00195 -2c-4.66699 0 -7 2 -7 6c0 2 1.33301 4.33301 4 7c39.333 27.333 61 60 65 98
c0.666992 5.33301 -0.166016 11 -2.49902 17l-8.5 21c-3.33301 4 1.33398 10.667 14.001 20c12 9.33301 20.333 13.333 25 12c5.33301 -0.666992 10.333 -8.66699 15 -24c4 -15.333 5 -26.333 3 -33c-12 -33.333 -46 -74 -102 -122z" />
    <glyph glyph-name="ogonek" horiz-adv-x="118" 
d="M96 -106c-2.66699 6 -5.66895 6.33496 -9.00195 1.00195c-2.66699 -3.33301 -6.16699 -7 -10.5 -11s-9.16602 -7 -14.499 -9s-10.5 -2.33301 -15.5 -1s-9.16699 5.66602 -12.5 12.999c-2 4 -3.33301 10.333 -4 19s-0.666992 18.167 0 28.5s2.16699 21.166 4.5 32.499
s5.16602 21.666 8.49902 30.999c3.33301 6 6.16602 8.83301 8.49902 8.5s2.5 -3.16602 0.5 -8.49902c-3.33301 -7.33301 -5.66602 -15.5 -6.99902 -24.5s-2.16602 -17.667 -2.49902 -26s-0.166016 -15.833 0.500977 -22.5s2 -12 4 -16
c4.66699 -9.33301 11.167 -12.5 19.5 -9.5s17.5 11.167 27.5 24.5c4.66699 8 7.66699 8.33301 9 1z" />
    <glyph glyph-name="caron" horiz-adv-x="201" 
d="M91 605c10.667 4.66699 22.668 11.001 36.001 19.001s27.666 18 42.999 30c5.33301 4.66699 8 4 8 -2c0 -2.66699 -1 -6 -3 -10c-3.33301 -2.66699 -9.16602 -7.83398 -17.499 -15.501l-33.5 -30.5c-22.667 -22.667 -34.334 -33.334 -35.001 -32.001
c-1.33301 0.666992 -21 28 -59 82c-1.33301 4 -2 6.66699 -2 8c0 2.66699 1 4.66699 3 6c1.33301 0.666992 3 -0.333008 5 -3c10 -12 20 -23 30 -33c12.667 -13.333 21 -19.666 25 -18.999z" />
    <glyph glyph-name="dotlessi" unicode="&#xd;" horiz-adv-x="230" 
d="M302 130c-8 -8 -20.1689 -18.334 -36.502 -31.001s-34.333 -25.834 -54 -39.501s-39.5 -26.5 -59.5 -38.5s-37.333 -21.333 -52 -28c-4 -1.33301 -10.167 -1.33301 -18.5 0s-16.666 4.5 -24.999 9.5s-15.666 11.667 -21.999 20s-9.5 18.5 -9.5 30.5
c0 10.667 2.66699 24.5 8 41.5s12 35 20 54s16.667 38.333 26 58l26 54l20 42c5.33301 11.667 8.33301 18.834 9 21.501c1.33301 8 5.33301 13.5 12 16.5s13 3.5 19 1.5s10.333 -6.66699 13 -14s1 -17 -5 -29l-52.5 -98.5l-26.5 -50.5
c-5.33301 -10.667 -8.5 -17.167 -9.5 -19.5s-1.83301 -4.5 -2.5 -6.5s-2.16699 -5.66699 -4.5 -11s-7.5 -16.333 -15.5 -33s-12.167 -29.5 -12.5 -38.5s1.83398 -15.5 6.50098 -19.5s10.5 -5.83301 17.5 -5.5s13.833 1.16602 20.5 2.49902c12.667 2.66699 28.5 9 47.5 19
s38.5 21.333 58.5 34s38.667 25.334 56 38.001s30.666 23.334 39.999 32.001c6 6 10.333 9.33301 13 10s4.16699 0 4.5 -2s-0.5 -5 -2.5 -9s-5 -7.66699 -9 -11z" />
    <glyph glyph-name="fraction" horiz-adv-x="409" 
d="M-42 -78c-3.33301 -14 -7.00195 -21 -11.002 -21c-1.33301 4 -2 12 -2 24c4.66699 44.667 92.334 150.667 263.001 318l214.5 201c64.333 57.333 122.5 105 174.5 143c7.33301 5.33301 14 8 20 8s9 -2.66699 9 -8c0 -4.66699 -4 -10 -12 -16
c-54 -40 -113.167 -88 -177.5 -144s-134.166 -120.333 -209.499 -193c-83.333 -80 -147.5 -146 -192.5 -198s-70.5 -90 -76.5 -114z" />
    <glyph glyph-name="fi" horiz-adv-x="446" 
d="M508 101c-8 -8 -20.333 -18.3379 -37 -31.0049s-34.834 -25.667 -54.501 -39s-39.334 -26 -59.001 -38s-36.834 -21.333 -51.501 -28c-4 -2 -10.167 -2.16699 -18.5 -0.5s-16.833 4.83398 -25.5 9.50098s-16 11.167 -22 19.5s-9 18.5 -9 30.5
c0 10.667 2.66699 24.5 8 41.5s12 35 20 54s16.667 38.333 26 58l26 54.5l20 42c5.33301 11.333 8.33301 18.666 9 21.999c0 0.666992 -7 1.83398 -21 3.50098s-29.833 2.66699 -47.5 3s-34.334 -0.5 -50.001 -2.5s-25.167 -5.66699 -28.5 -11l-65 -115.5l-90.5 -158
l-109 -176.5c-39 -60.667 -79.5 -117.5 -121.5 -170.5s-84.833 -99.667 -128.5 -140s-86.5 -68.833 -128.5 -85.5c-50 -20 -94 -27.833 -132 -23.5s-69.167 16.333 -93.5 36s-41.166 44.667 -50.499 75s-10.333 61.5 -3 93.5c4.66699 22 13.167 43 25.5 63
s26.833 38.333 43.5 55s34.5 31.167 53.5 43.5s37.833 21.833 56.5 28.5c9.33301 3.33301 14.166 3.83301 14.499 1.5s-4.16699 -5.5 -13.5 -9.5c-34 -15.333 -64.667 -38.833 -92 -70.5s-46.666 -69.5 -57.999 -113.5c-9.33301 -36.667 -9.16602 -69 0.500977 -97
s26 -50 49 -66s51.167 -24.833 84.5 -26.5s69.333 5.83301 108 22.5c38 16.667 76.333 43.167 115 79.5s76.834 78.5 114.501 126.5s74.167 99.5 109.5 154.5s68.5 109.167 99.5 162.5l84.5 151.5l65 121.5c5.33301 9.33301 6 16.5 2 21.5s-8.33301 9.16699 -13 12.5
c-5.33301 3.33301 -11.166 6.5 -17.499 9.5s-8.16602 7.5 -5.49902 13.5c1.33301 5.33301 5.33301 7.83301 12 7.5s12 -0.5 16 -0.5c7.33301 0 14.666 -0.333008 21.999 -1s15 -0.333984 23 0.999023l36.5 52c13 18 26.5 35.667 40.5 53s28.333 33.666 43 48.999
s29.334 28.666 44.001 39.999c14 10.667 29.5 20.834 46.5 30.501s34.667 18 53 25s36.833 12 55.5 15s36.667 3.16699 54 0.5c8 -1.33301 14.833 -5.16602 20.5 -11.499s8.5 -11.5 8.5 -15.5c0 -1.33301 -0.666992 -3.5 -2 -6.5s-3 -6 -5 -9s-4.16699 -5.33301 -6.5 -7
s-4.5 -1.83398 -6.5 -0.500977c-11.333 11.333 -24.333 20 -39 26s-29.667 8 -45 6c-27.333 -4 -53.833 -15.667 -79.5 -35s-49.834 -41.666 -72.501 -66.999s-43.167 -51.166 -61.5 -77.499s-33.166 -48.833 -44.499 -67.5h149
c13.333 -1.33301 21.666 -6.16602 24.999 -14.499s2 -18.166 -4 -29.499l-52.5 -98.5l-27 -51c-5.66699 -11 -9 -17.667 -10 -20s-2 -4.33301 -3 -6s-2.66699 -5.16699 -5 -10.5s-7.5 -16.333 -15.5 -33s-12.167 -29.5 -12.5 -38.5s1.83398 -15.5 6.50098 -19.5
s10.667 -6 18 -6s14 0.666992 20 2c12.667 2.66699 28.667 9 48 19s39 21.333 59 34s38.667 25.334 56 38.001s30.666 23.334 39.999 32.001c6 6 10.333 9.33301 13 10s4 0 4 -2s-1 -4.83301 -3 -8.5s-4.66699 -7.5 -8 -11.5z" />
    <glyph glyph-name="fl" horiz-adv-x="670" 
d="M117 -39c4 8.66699 10.6611 22.1709 19.9941 40.5039l33 64l42 79.5l47.5 88l49 89.5l47.5 83.5c-0.666992 -1.33301 0 -0.5 2 2.5s6 9.83301 12 20.5c-16 -1.33301 -33.833 -1.66602 -53.5 -0.999023s-41.5 1 -65.5 1c-8 0 -13.667 -2.66699 -17 -8l-89.5 -158
l-93.5 -157l-26 -42.5c-8 -13.667 -16.333 -27.167 -25 -40.5c10.667 -0.666992 20.834 -1.33398 30.501 -2.00098s19.167 -1.66699 28.5 -3c3.33301 -0.666992 7 -3 11 -7s7.83301 -8.66699 11.5 -14s6.66699 -10.833 9 -16.5s3.5 -10.834 3.5 -15.501
c0 -4 -1.33301 -7.33301 -4 -10c-26 -28 -86.667 -50 -182 -66c-29.333 -41.333 -58.166 -79.833 -86.499 -115.5l-84.5 -101.5c-137.333 -155.333 -267.333 -255 -390 -299c-56 -20 -110.333 -30 -163 -30c-83.333 0 -151.333 22.333 -204 67
c-52.667 45.333 -79 99.666 -79 162.999c0 108 70 199.667 210 275c117.333 63.333 253 110.333 407 141c128.667 26 256 39 382 39c12 0 23.667 -0.333008 35 -1l34 -2c68.667 107.333 137.334 225 206.001 353c2 4.66699 3 9.33398 3 14.001c0 10 -5.33301 18.333 -16 25
c-6 2.66699 -11.833 5.83398 -17.5 9.50098s-7.5 8.16699 -5.5 13.5c1.33301 4.66699 10.666 7 27.999 7h45c61.333 93.333 116 158 164 194c63.333 47.333 124.333 71.333 183 72c30 36 62.333 72.667 97 110s71.834 73 111.501 107s81.334 65.333 125.001 94
s89.167 52.667 136.5 72c50 20.667 97.333 32.167 142 34.5s85.334 -2 122.001 -13s68.667 -27.667 96 -50s48.666 -48 63.999 -77s24 -60.167 26 -93.5s-4.16699 -66.5 -18.5 -99.5s-37.5 -64.833 -69.5 -95.5s-74.333 -58 -127 -82c-86.667 -39.333 -171 -71.333 -253 -96
s-159.667 -44 -233 -58s-141.666 -23.333 -204.999 -28s-119.333 -6.33398 -168 -5.00098l-24 -41l-40.5 -69.5l-51 -89l-56 -99l-55.5 -100l-49 -91.5c-2 -3.33301 -4 -4.83301 -6 -4.5s-3.66699 1.66602 -5 3.99902s-2.16602 5.16602 -2.49902 8.49902
s0.166992 6.66602 1.5 9.99902zM413.994 450.004c27.333 0 59.3301 0.5 95.9971 1.5s77 3.66699 121 8s90.833 10.833 140.5 19.5s101.167 20.334 154.5 35.001s107.833 32.834 163.5 54.501s111.5 48.167 167.5 79.5s99.5 63.166 130.5 95.499s52.333 63.833 64 94.5
s14.334 60.167 8.00098 88.5s-18.833 54.166 -37.5 77.499s-42.667 43.333 -72 60s-61.166 28.834 -95.499 36.501s-70.5 10.334 -108.5 8.00098s-75 -10.833 -111 -25.5c-44 -18 -86.5 -40.667 -127.5 -68s-80.333 -57.333 -118 -90s-73.167 -67.334 -106.5 -104.001
s-64.666 -73.667 -93.999 -111c6.66699 -2.66699 12.334 -6.16699 17.001 -10.5s7.33398 -9.16602 8.00098 -14.499c0 -2.66699 -2 -7.33398 -6 -14.001s-8 -10 -12 -10c1.33301 1.33301 -7.33398 7.66602 -26.001 18.999c-0.666992 0 -1.16699 0.166992 -1.5 0.5
s-0.833008 0.5 -1.5 0.5c-30.667 -41.333 -58.834 -81.5 -84.501 -120.5s-48.5 -75.833 -68.5 -110.5zM-660.009 -614.996c197.333 84 404.997 294 622.997 630c-9.33301 0 -18.666 0.166992 -27.999 0.5s-18.666 0.5 -27.999 0.5
c-289.333 0 -549.666 -67.333 -780.999 -202c-138.667 -80 -208 -164.667 -208 -254c0 -58.667 27.667 -106.667 83 -144c56 -40 121.333 -60 196 -60c49.333 0 97 9.66699 143 29zM374.988 447.004c13.333 23.333 34.3311 56.8311 62.998 100.498
s63.667 91.834 105 144.501c-12 3.33301 -23.333 4 -34 2c-37.333 -7.33301 -76.666 -32.166 -117.999 -74.499s-87.666 -99.833 -138.999 -172.5h123v0zM-7.01367 14.002l-38.5 -58.499l-39.5 -56.5c59.333 12 109.333 35 150 69c6.66699 6 10 12.667 10 20
c0 9.33301 -6.66699 15.666 -20 18.999c-9.33301 1.33301 -19 2.5 -29 3.5s-21 2.16699 -33 3.5zM357.986 410.003v1c0.666992 0 1 0.333008 1 1c0 -2 -0.333008 -3 -1 -3v1z" />
    <glyph glyph-name="Lslash" horiz-adv-x="703" 
d="M223 274c-14 -3.33301 -21.3359 -2.33594 -22.0029 2.99707c-3.33301 10.667 7.66699 19 33 25l100 28l43.5 63.5l44.5 60c14.667 19 29.334 36.333 44.001 52s28.667 28.5 42 38.5c12.667 10 28.667 20.833 48 32.5s38.333 21.167 57 28.5s35.667 11.166 51 11.499
s25.333 -5.83398 30 -18.501c3.33301 -8.66699 4.83301 -16.667 4.5 -24s-1.16602 -13.666 -2.49902 -18.999c-1.33301 -11.333 -5.33301 -17.833 -12 -19.5s-11.334 2.5 -14.001 12.5c-2.66699 7.33301 -4.5 13.833 -5.5 19.5s-6.83301 12.167 -17.5 19.5
c-9.33301 6 -25.166 4.83301 -47.499 -3.5s-47.5 -26.5 -75.5 -54.5c-30 -30 -55.333 -59.833 -76 -89.5s-40.667 -61.167 -60 -94.5l65 18c14 5.33301 21.667 5 23 -1c4.66699 -9.33301 -3.66602 -16.666 -24.999 -21.999l-39 -12l-40 -12l-52 -85.5
c-18.667 -29.667 -40.667 -61.5 -66 -95.5c-15.333 -20.667 -29.166 -38.5 -41.499 -53.5s-28.833 -27.833 -49.5 -38.5c-4 -2.66699 -6.5 -4.66699 -7.5 -6s2.83301 -3.66602 11.5 -6.99902c14.667 -6 33 -13 55 -21s45.5 -16 70.5 -24s50.833 -15.667 77.5 -23
s52.667 -13.833 78 -19.5s49 -10.334 71 -14.001s40.667 -5.5 56 -5.5c12.667 0 23 0.333008 31 1s15 2.16699 21 4.5s11.5 5.16602 16.5 8.49902s10.167 7.33301 15.5 12c9.33301 8.66699 14.666 11.5 15.999 8.5s-1.33398 -8.16699 -8.00098 -15.5
c-4.66699 -5.33301 -9.5 -10.166 -14.5 -14.499s-11 -8.33301 -18 -12s-15.667 -6.66699 -26 -9s-22.833 -3.5 -37.5 -3.5c-20 -0.666992 -43.833 1 -71.5 5s-56.667 9.33301 -87 16s-61 14.167 -92 22.5l-87.5 24.5c-27.333 8 -51.5 15.667 -72.5 23l-47.5 17
c-3.33301 0.666992 -9.33301 -1.16602 -18 -5.49902s-17.334 -6.5 -26.001 -6.5c-6 0 -11.667 1.83301 -17 5.5s-10.333 8 -15 13s-8.66699 10 -12 15s-5.33301 9.16699 -6 12.5c-5.33301 11.333 -5.83301 19.166 -1.5 23.499s12.833 4.83301 25.5 1.5
c12.667 -2.66699 28 -6.5 46 -11.5s33 -9.5 45 -13.5c3.33301 -1.33301 5.83301 -1.66602 7.5 -0.999023s2.83398 1.33398 3.50098 2.00098c8 5.33301 18 16.5 30 33.5l35 49.5c2.66699 4.66699 7.33398 12.334 14.001 23.001l24 39l31 51l36 58
c-14.667 -4.66699 -29.667 -9 -45 -13s-31 -8.33301 -47 -13z" />
    <glyph glyph-name="lslash" horiz-adv-x="394" 
d="M431 667c-21.333 -34.667 -48.333 -75.8359 -81 -123.503l-101 -150.5l-1 -1l63 26c13.333 6 20.666 6 21.999 0c4 -7.33301 -3.33301 -15 -22 -23l-32.5 -13.5c-7 -3 -11.833 -5 -14.5 -6s-4.16699 -1.66699 -4.5 -2s-1 -0.666016 -2 -0.999023s-3.66699 -1.33301 -8 -3
l-21.5 -8.5l-63.5 -103.5c-20.333 -34.333 -38.666 -67.666 -54.999 -99.999s-29.666 -63 -39.999 -92s-16.5 -54.833 -18.5 -77.5c-2.66699 -20.667 2.16602 -33.5 14.499 -38.5s29.166 -2.16699 50.499 8.5c15.333 8.66699 24.666 10.5 27.999 5.5
s-3.66699 -12.167 -21 -21.5c-5.33301 -3.33301 -9.5 -5.83301 -12.5 -7.5s-5.66699 -3 -8 -4s-4.66602 -1.83301 -6.99902 -2.5l-10.5 -3c-9.33301 -1.33301 -20.666 1.66699 -33.999 9s-21.666 22 -24.999 44c-2 18.667 0.833008 41.5 8.5 68.5s18.667 56.333 33 88
s31.166 65.167 50.499 100.5s39.666 70.666 60.999 105.999l-34.5 -15.5l-35.5 -15.5c-12 -4 -19 -3.66699 -21 1c-1.33301 4 0.333984 8.5 5.00098 13.5s13 9.83301 25 14.5l79 32l93 148c30 46.667 54.667 86.334 74 119.001c5.33301 8 8 15.333 8 22
c0 10.667 1.83301 20.5 5.5 29.5s14.5 13.5 32.5 13.5c9.33301 0 16.833 -3.66699 22.5 -11s5.16699 -15.666 -1.5 -24.999z" />
    <glyph glyph-name="Zcaron" horiz-adv-x="741" 
d="M265 381c1.33301 -4 2.3252 -7.83789 2.99219 -11.5049s0.666992 -6.33398 0 -8.00098s-2.33398 -1.66699 -5.00098 0s-6.33398 5.83398 -11.001 12.501c-5.33301 8 -11 17.833 -17 29.5s-11.667 24 -17 37s-10 25.667 -14 38s-6.33301 22.5 -7 30.5
c-1.33301 8 -1.83301 18.333 -1.5 31s3.33301 25.334 9 38.001s15.334 24.5 29.001 35.5s33.834 19.167 60.501 24.5c19.333 4 42 6 68 6s53.667 -1.16699 83 -3.5s59.5 -5.33301 90.5 -9l90.5 -11c29.333 -3.66699 56.666 -6.83398 81.999 -9.50098s47.333 -4 66 -4
c3.33301 0 7.83301 1.33301 13.5 4s9.83398 4.33398 12.501 5.00098c6 2 11.167 1.83301 15.5 -0.5s7.33301 -5.5 9 -9.5s1.83398 -8.5 0.500977 -13.5s-5 -8.83301 -11 -11.5c-5.33301 -2.66699 -10.166 -4.66699 -14.499 -6s-9.16602 -2 -14.499 -2
c-3.33301 0 -6.33301 -0.666992 -9 -2s-6 -3.33301 -10 -6c-23.333 -8.66699 -44.333 -20 -63 -34s-36.667 -30.333 -54 -49s-34.833 -39.5 -52.5 -62.5l-57.5 -74.5c-2 -3.33301 -3.33301 -6 -4 -8s1 -3 5 -3h50c6 0 9.83301 -1 11.5 -3s1.66699 -4 0 -6
s-4.5 -3.83301 -8.5 -5.5s-8.33301 -2.5 -13 -2.5h-54c-3.33301 0 -5.66602 -0.333008 -6.99902 -1s-2.66602 -2.33398 -3.99902 -5.00098c-12 -18 -27.333 -39.167 -46 -63.5s-38.334 -48.333 -59.001 -72s-41.5 -45.334 -62.5 -65.001s-40.167 -33.5 -57.5 -41.5
c-6.66699 -3.33301 -10.167 -6.5 -10.5 -9.5s2.16699 -5.16699 7.5 -6.5l80.5 -26.5c28.333 -9 56.833 -17.333 85.5 -25s56.667 -14.167 84 -19.5s53 -9 77 -11c14.667 -1.33301 30.667 -1.5 48 -0.5s31.666 5.16699 42.999 12.5c10 7.33301 16.333 9.5 19 6.5
s-0.333008 -7.16699 -9 -12.5c-8 -4.66699 -15 -8.5 -21 -11.5s-12.333 -5.33301 -19 -7s-14.834 -2.66699 -24.501 -3s-21.834 -0.166016 -36.501 0.500977c-32 0.666992 -66.333 4 -103 10s-72 13 -106 21s-65.333 16.167 -94 24.5s-51 15.5 -67 21.5
c-4.66699 2 -10.667 1 -18 -3c-9.33301 -6 -22.5 -11.167 -39.5 -15.5s-34.167 -6.83301 -51.5 -7.5c-7.33301 -0.666992 -17.166 0.166016 -29.499 2.49902s-25 6 -38 11s-25.333 11.333 -37 19s-20.5 17.167 -26.5 28.5c-7.33301 12 -8.16602 23.333 -2.49902 34
s18.5 16 38.5 16c12.667 0.666992 27.834 -0.5 45.501 -3.5s35.5 -7 53.5 -12s35.333 -10.167 52 -15.5s30.334 -10 41.001 -14c3.33301 -1.33301 6.66602 -2.16602 9.99902 -2.49902s7.66602 1.16699 12.999 4.5c15.333 10 32.333 24.333 51 43
s37.334 38.834 56.001 60.501s36.667 43.667 54 66s32.333 42.5 45 60.5c2 3.33301 4.16699 6 6.5 8s-0.166992 3 -7.5 3h-72c-4 0 -7 0.833008 -9 2.5s-2.83301 3.83398 -2.5 6.50098s1.83301 5 4.5 7s6.33398 3 11.001 3h16h25h26h16
c3.33301 1.33301 5.33301 1.83301 6 1.5s1.66699 0.833984 3 3.50098c46.667 62.667 90.334 112.334 131.001 149.001s80.334 63.334 119.001 80.001c4.66699 2 8.66699 3.83301 12 5.5s5.16602 3.33398 5.49902 5.00098s-0.833984 3.33398 -3.50098 5.00098
s-7.66699 3.5 -15 5.5c-15.333 2.66699 -39.166 6.5 -71.499 11.5s-68.166 9.16699 -107.499 12.5s-79.666 4.66602 -120.999 3.99902s-79 -5 -113 -13c-18 -4 -32.5 -9.66699 -43.5 -17s-19.5 -15.333 -25.5 -24s-9.83301 -17.334 -11.5 -26.001s-2.16699 -16 -1.5 -22
c3.33301 -45.333 12.333 -90.333 27 -135zM31.9922 64.9951c6.66699 -8 15.999 -14.833 27.999 -20.5s25 -9.66699 39 -12s28.333 -3.33301 43 -3s28 2.5 40 6.5c6 2 10.667 4 14 6s1.33301 4.66699 -6 8c-10 3.33301 -22 7 -36 11l-42 12c-14 4 -27.167 7.5 -39.5 10.5
s-21.833 5.16699 -28.5 6.5c-5.33301 2 -10.666 0.833008 -15.999 -3.5s-4 -11.5 4 -21.5zM504.991 711.995c10.667 4.66699 22.668 11.001 36.001 19.001s27.666 18 42.999 30c5.33301 4.66699 8 4 8 -2c0 -4 -1.33301 -7.33301 -4 -10
c-3.33301 -2.66699 -9.16602 -7.83398 -17.499 -15.501l-32.5 -30.5c-22.667 -22.667 -34.334 -33.334 -35.001 -32.001c-1.33301 0.666992 -21.333 27.667 -60 81c-1.33301 5.33301 -2 8.33301 -2 9c0 2.66699 1 4.66699 3 6c2 0.666992 4 -0.666016 6 -3.99902
c10 -12 20 -23 30 -33c12.667 -12.667 21 -18.667 25 -18z" />
    <glyph glyph-name="zcaron" horiz-adv-x="429" 
d="M419 338l-72.9941 -59.0068l-90.5 -75.5l-87.5 -76c-27.333 -24.333 -48 -44.166 -62 -59.499c-8.66699 -7.33301 -11.167 -12 -7.5 -14s8.5 -1.33301 14.5 2c10.667 6 23.834 11.167 39.501 15.5s31.667 7.33301 48 9s32 2 47 1s27.5 -3.83301 37.5 -8.5
c11.333 -6 20.5 -14.333 27.5 -25s11.833 -20.667 14.5 -30c1.33301 -7.33301 1.5 -12.166 0.5 -14.499s-2.5 -3.16602 -4.5 -2.49902s-4.16699 2.33398 -6.5 5.00098s-3.83301 6 -4.5 10c-0.666992 3.33301 -2.5 7 -5.5 11s-7 7.5 -12 10.5s-10.833 5.33301 -17.5 7
s-14 1.83398 -22 0.500977c-12.667 0 -28 -1.5 -46 -4.5s-36.833 -7.16699 -56.5 -12.5s-38.834 -11.833 -57.501 -19.5s-35 -16.5 -49 -26.5c-15.333 -9.33301 -26.833 -11.5 -34.5 -6.5s-7.16699 14.167 1.5 27.5c2.66699 4 6.83398 7.83301 12.501 11.5l17 10.5l15 9
c4.33301 2.66699 7.16602 5.33398 8.49902 8.00098c4 7.33301 12 18 24 32s26.333 29.5 43 46.5l55 54l59 54.5l54.5 47.5c17 14.333 31.167 25.833 42.5 34.5c7.33301 5.33301 9.5 10.833 6.5 16.5s-9.16699 6.83398 -18.5 3.50098
c-10.667 -1.33301 -23.834 -3.16602 -39.501 -5.49902l-49 -7c-17 -2.33301 -33.333 -4.33301 -49 -6s-28.5 -2.83398 -38.5 -3.50098c-3.33301 -0.666992 -7.33301 0.666016 -12 3.99902s-9 7.16602 -13 11.499s-6.5 8.83301 -7.5 13.5s1.16699 8.33398 6.5 11.001
c7.33301 2 16.5 5 27.5 9s21.5 7 31.5 9c4.66699 2 7.66699 0.666992 9 -4s4.33301 -7 9 -7c8 0 20.333 0.166992 37 0.5s34 1 52 2s35.167 2 51.5 3s28.833 2.5 37.5 4.5c3.33301 2.66699 6.16602 5.33398 8.49902 8.00098s4.5 4.66699 6.5 6
c5.33301 2 10.166 1.66699 14.499 -1s7.66602 -6.5 9.99902 -11.5s3.16602 -10.333 2.49902 -16s-3.33398 -10.167 -8.00098 -13.5zM276.006 479.993c10.667 4 22.833 10.501 36.5 19.501s28.167 19.833 43.5 32.5c5.33301 4.66699 8 4 8 -2
c0 -4.66699 -1 -8.33398 -3 -11.001c-3.33301 -2.66699 -9.16602 -8.16699 -17.499 -16.5s-19.833 -19.166 -34.5 -32.499c-22.667 -24.667 -34.334 -36.334 -35.001 -35.001c-1.33301 0.666992 -6.83301 8.16699 -16.5 22.5l-45.5 64.5
c-1.33301 5.33301 -2 8.66602 -2 9.99902c0 2.66699 1 4.66699 3 6c2 0.666992 4 -0.333008 6 -3l16.5 -19.5c5 -5.66699 10.167 -11.167 15.5 -16.5c12.667 -13.333 21 -19.666 25 -18.999z" />
    <glyph glyph-name="space" unicode=" " horiz-adv-x="329" 
 />
    <glyph glyph-name="space" unicode="&#xa0;" horiz-adv-x="329" 
 />
    <glyph glyph-name="exclam" unicode="!" horiz-adv-x="217" 
d="M121 141c-2.66699 -5.33301 -6 -7.99902 -10 -7.99902c-6 0 -9 3.66699 -9 11c0 2.66699 0.333008 5 1 7c44 87.333 81.5 165.166 112.5 233.499s55.5 127.5 73.5 177.5c2.66699 6 10 10.667 22 14s21.333 3.66602 28 0.999023c4 -0.666992 7 -9.66699 9 -27
s1 -29 -3 -35c-0.666992 -2 -2.5 -3.33301 -5.5 -4l-9 -2c-3 -0.666992 -6 -1.16699 -9 -1.5s-4.83301 -1.16602 -5.5 -2.49902l-39.5 -69c-15 -26.667 -31.5 -58 -49.5 -94l-64.5 -124zM82 18.001c0 -4 -4.99902 -8.16797 -14.999 -12.501s-19 -6.5 -27 -6.5
c-4.66699 0 -7.83398 1.5 -9.50098 4.5s-4.16699 12.167 -7.5 27.5c-2 17.333 -2 27.333 0 30c2.66699 3.33301 9.16699 7.5 19.5 12.5s18.833 7.5 25.5 7.5c2.66699 0 4.66699 -0.666992 6 -2c5.33301 -5.33301 8 -25.666 8 -60.999z" />
    <glyph glyph-name="quotedbl" unicode="&#x22;" horiz-adv-x="288" 
d="M218 408c-2 -3.33301 -4.66797 -4.33398 -8.00098 -3.00098s-5 3 -5 5c0 2.66699 0.333008 4.33398 1 5.00098l80 149c2.66699 5.33301 7.33398 8 14.001 8c15.333 0 23 -6.33301 23 -19c0 -2 -1 -4.33301 -3 -7c-25.333 -32 -59.333 -78 -102 -138zM322.999 404.999
c-2.66699 -3.33301 -5 -4.33398 -7 -3.00098c-4 0.666992 -6 2.33398 -6 5.00098c0 2 0.333008 3.33301 1 4l81 150c3.33301 5.33301 8 8 14 8c15.333 0 23 -6.33301 23 -19c0 -1.33301 -1 -4 -3 -8c-13.333 -16 -28.5 -35.333 -45.5 -58z" />
    <glyph glyph-name="numbersign" unicode="#" horiz-adv-x="485" 
d="M29 43l34.499 56.001l46.5 77h-55c-10.667 0 -19.167 -0.166992 -25.5 -0.5s-10.833 -0.5 -13.5 -0.5c-8 0 -12 1.33301 -12 4c0 1.33301 1.33301 3.16602 4 5.49902s5.66699 4.5 9 6.5s6.66602 3.66699 9.99902 5s6 2 8 2h88l31 49l43 68h-57
c-11.333 0 -20.5 -0.333008 -27.5 -1s-11.833 -1 -14.5 -1c-8 0 -12 1.66699 -12 5c0 2.66699 4 6.5 12 11.5s14 7.5 18 7.5h95l58.5 84l53.5 73c4.66699 3.33301 10.334 5 17.001 5c10.667 0 11.667 -5.66699 3 -17l-32 -43.5l-73 -101.5h105c11.333 18 26.5 40 45.5 66
l66.5 91c4.66699 3.33301 10.334 5 17.001 5c10.667 0 11.667 -5.66699 3 -17l-37 -51l-68 -94h67c10 0 15 -2 15 -6c0 -2.66699 -3.33301 -6 -10 -10s-11.334 -6 -14.001 -6h-32c-8 0 -15.5 -0.333008 -22.5 -1s-13.5 -1 -19.5 -1l-32 -47.5l-45 -67.5h78
c10.667 0 16 -1.66699 16 -5s-3.33301 -7 -10 -11s-11.667 -6 -15 -6h-35c-9.33301 0 -18 -0.166992 -26 -0.5s-15.333 -0.5 -22 -0.5l-37 -54.5l-51 -77.5c-8 -13.333 -14.333 -20 -19 -20c-1.33301 0 -2 1 -2 3c0 4 2.33301 9.66699 7 17l81 132h-111l-38 -55.5l-50 -76.5
c-9.33301 -13.333 -15.666 -20 -18.999 -20c-1.33301 0 -2 1 -2 3c0 4 2.33301 9.66699 7 17zM221.999 313.001l-19 -29.001c-6.66699 -9.33301 -14.667 -21.166 -24 -35.499l-34 -50.5h109c6 10.667 15.167 25.667 27.5 45l46.5 72h-52c-12 0 -22.5 -0.333008 -31.5 -1
s-16.5 -1 -22.5 -1z" />
    <glyph glyph-name="dollar" unicode="$" horiz-adv-x="464" 
d="M153 46l51.5 81.0039l63.5 104c4.66699 4.66699 5 8 1 10c-40.667 35.333 -61 71 -61 107c0 29.333 13.667 55.333 41 78c40 34.667 101.333 60.334 184 77.001c2 0 4.33301 1.33301 7 4c10 13.333 21.667 30 35 50c5.33301 5.33301 10.666 8 15.999 8
c4 0 6 -1.33301 6 -4c-0.666992 -0.666992 -1 -1.33398 -1 -2.00098s-0.333008 -1.33398 -1 -2.00098c-4 -6.66699 -8.66699 -14 -14 -22l-19 -28c-0.666992 -0.666992 -1 -1.33398 -1 -2.00098c-0.666992 -0.666992 -0.666992 -1 0 -1h3
c37.333 0 62.666 -9.33301 75.999 -28c2 -3.33301 3 -7 3 -11c0 -8.66699 -4 -13 -12 -13c-5.33301 0 -9 2.66699 -11 8c-7.33301 16.667 -30.666 23.667 -69.999 21c-1.33301 1.33301 -4 0 -8 -4l-71 -110l-62 -103c-2.66699 -3.33301 -2.33398 -6.66602 0.999023 -9.99902
c39.333 -37.333 63.333 -64 72 -80c4.66699 -9.33301 7 -20.333 7 -33c0 -31.333 -15.667 -57.333 -47 -78c-49.333 -34 -112.333 -51 -189 -51c1.33301 0 -0.333984 -1.66699 -5.00098 -5c-7.33301 -12.667 -19.666 -32.334 -36.999 -59.001
c-2.66699 -4.66699 -7.66699 -7 -15 -7c-5.33301 0 -8 1.33301 -8 4c0 1.33301 1 4 3 8c7.33301 9.33301 14 18.666 20 27.999l18 29c0.666992 2 -0.666016 3.33301 -3.99902 4c-69.333 10 -104 23 -104 39c0 5.33301 2.83301 10 8.5 14s11.167 6 16.5 6
c2.66699 0 4.33398 -0.666992 5.00098 -2c25.333 -16.667 56 -26.334 92 -29.001c4.66699 0 8 1.33301 10 4zM284 220.004l-55.9971 -87.998l-54 -88c-0.666992 -2.66699 0.333008 -4 3 -4c12.667 -1.33301 26.167 -1.5 40.5 -0.5s28.166 3.16699 41.499 6.5
s25.666 7.66602 36.999 12.999s20.666 11 27.999 17c16.667 12.667 25 27.667 25 45c0 13.333 -6 30.666 -18 51.999c-4 6.66699 -9.33301 14 -16 22s-15 17 -25 27c-2 2 -4 1.33301 -6 -2zM296.003 278.006c9.33301 14 23.833 36.999 43.5 68.999l77.5 124l1 4
c-0.666992 0.666992 -3 0.666992 -7 0c-68 -16 -114.667 -38 -140 -66c-7.33301 -7.33301 -12.5 -15.166 -15.5 -23.499s-4.5 -17.166 -4.5 -26.499c0 -26 12.667 -53.333 38 -82c2.66699 -2.66699 5 -2.33398 7 0.999023z" />
    <glyph glyph-name="percent" unicode="%" horiz-adv-x="686" 
d="M353 510l3.49805 -0.999023c2.33301 -0.666992 4.83301 -1.16699 7.5 -1.5s5.33398 -0.5 8.00098 -0.5h5c39.333 -0.666992 80.333 -1 123 -1s87.667 -0.333008 135 -1c6 0 18.667 4.66699 38 14c0.666992 0.666992 3.33398 2.5 8.00098 5.5s11.667 7.16699 21 12.5
l16.5 8.5c4.33301 2.33301 7.83301 3.5 10.5 3.5c6 0 9 -2.66699 9 -8c0 -6 -4 -11.333 -12 -16c-53.333 -40 -107.666 -84 -162.999 -132s-112.333 -100.667 -171 -158c-132.667 -128.667 -205 -216.667 -217 -264c-3.33301 -14 -7 -21 -11 -21
c-0.666992 2 -1.16699 4.83301 -1.5 8.5s-0.5 9.16699 -0.5 16.5c4.66699 38.667 63.667 117 177 235c50 52 100.667 101.5 152 148.5s104 92.5 158 136.5c0.666992 0.666992 -4 1 -14 1c-143.333 0 -216.333 -2.66699 -219 -8l-10.5 -6.5
c-3.66699 -2.33301 -4.83398 -5.5 -3.50098 -9.5c2 -20 0.666992 -42 -4 -66c-5.33301 -16.667 -12.333 -32.667 -21 -48s-20 -29.666 -34 -42.999c-15.333 -15.333 -30.833 -27.833 -46.5 -37.5s-32.5 -17.167 -50.5 -22.5c-9.33301 -2 -18 -3 -26 -3
c-39.333 0 -59 20 -59 60c0 9.33301 1.66699 21.666 5 36.999c6.66699 23.333 19.667 46.666 39 69.999l32 41c8 10 12.667 16.667 14 20c-0.666992 2.66699 0.333008 8.66699 3 18c2 5.33301 12.667 8 32 8c12 12 23.333 18 34 18c11.333 0 22.333 -4.66699 33 -14z
M548.998 241.001c21.333 13.333 41.001 21 59.001 23c42.667 4 64 -16.667 64 -62c0 -14.667 -2.66699 -29.667 -8 -45c-10 -34 -28 -64.333 -54 -91c-28 -30 -59.667 -49.667 -95 -59c-8.66699 -2.66699 -17.667 -4 -27 -4c-40.667 0 -61 20.667 -61 62
c0 10 1.66699 21.667 5 35c9.33301 30.667 23.666 58.667 42.999 84c23.333 29.333 48 48.333 74 57zM602.999 246.001c-25.333 -0.666992 -50.665 -11.668 -75.998 -33.001c-39.333 -34 -62.333 -71 -69 -111c-0.666992 -3.33301 -1.33398 -7 -2.00098 -11s-1 -8 -1 -12
c0 -22 6.16699 -38.167 18.5 -48.5s26.166 -13.833 41.499 -10.5c27.333 5.33301 53.333 20 78 44s42.667 54.667 54 92c4 12.667 6 25.334 6 38.001c0 36.667 -16.667 54 -50 52zM339 490c-16 -1.33301 -30.3311 -3.99707 -42.998 -7.99707s-24.334 -10.667 -35.001 -20
c-38.667 -34 -62 -71 -70 -111c-0.666992 -4 -1.16699 -8 -1.5 -12s-0.5 -7.66699 -0.5 -11c0 -22 6.16699 -38.333 18.5 -49s26.166 -14.334 41.499 -11.001c26.667 5.33301 52.5 20.166 77.5 44.499s43.167 55.166 54.5 92.499c4 14 6 26.667 6 38c0 32 -16 47.667 -48 47
z" />
    <glyph glyph-name="ampersand" unicode="&#x26;" horiz-adv-x="646" 
d="M537 298l-22.4971 -49.5039l-30 -63l-34.5 -70l-35 -69.5l-13 -26.5c-4.66699 -9.66699 -9.66699 -19.5 -15 -29.5c-2.66699 -6 -5.83398 -11.833 -9.50098 -17.5s-7.5 -11.167 -11.5 -16.5c-14 -22 -30.333 -42 -49 -60s-39.334 -28 -62.001 -30
c-13.333 -1.33301 -25.166 1.33398 -35.499 8.00098s-19.333 16 -27 28s-14 26.167 -19 42.5s-8.83301 33.833 -11.5 52.5c-6 -0.666992 -12 -1 -18 -1h-17c-34 2 -61.833 12.167 -83.5 30.5s-36.667 41.666 -45 69.999s-9.5 59.833 -3.5 94.5s19.667 69.334 41 104.001
c-13.333 -0.666992 -24.333 -1.16699 -33 -1.5s-14.334 -1.16602 -17.001 -2.49902c-5.33301 -2 -9.83301 -5.16699 -13.5 -9.5l-11.5 -13.5c-2.66699 -3.33301 -6.16699 -4.16602 -10.5 -2.49902s-8.5 4.16699 -12.5 7.5s-7.33301 7.33301 -10 12s-3.33398 9 -2.00098 13
c2.66699 9.33301 6.16699 14.833 10.5 16.5s13.166 2.83398 26.499 3.50098h32c15.333 0 34.333 0.333008 57 1c14.667 20 32 38.833 52 56.5s41.5 33.834 64.5 48.501s46.667 27.334 71 38.001s48.166 18.667 71.499 24c6 2 10.167 5.5 12.5 10.5
s2.16602 8.5 -0.500977 10.5l-16.5 18.5c-7 7.66699 -13.333 16.834 -19 27.501s-9.83398 23 -12.501 37s-2 29.667 2 47c5.33301 20.667 14.833 39.167 28.5 55.5s29.334 30.166 47.001 41.499s36.5 19.833 56.5 25.5s38.667 8.16699 56 7.5
c18.667 -0.666992 34.5 -6.66699 47.5 -18s22.167 -23.666 27.5 -36.999c4 -8 5.16699 -16 3.5 -24s-4.16699 -14.333 -7.5 -19s-7.16602 -6.83398 -11.499 -6.50098s-7.16602 4.83301 -8.49902 13.5c-1.33301 14 -6.16602 26.667 -14.499 38s-19.5 19.333 -33.5 24
c-12 4.66699 -26.333 6.33398 -43 5.00098s-33 -6.33301 -49 -15s-29.833 -20.834 -41.5 -36.501s-18.167 -35.5 -19.5 -59.5c-1.33301 -22 1.5 -41.667 8.5 -59s16.333 -32.333 28 -45s24.667 -23 39 -31s28.5 -13.667 42.5 -17c6.66699 -2 10.834 -4.83301 12.501 -8.5
s1.5 -7.33398 -0.5 -11.001s-5.5 -6.83398 -10.5 -9.50098s-10.833 -3.66699 -17.5 -3c-16 2.66699 -38 4 -66 4s-57.667 -4 -89 -12s-62.666 -21.5 -93.999 -40.5s-59 -45.833 -83 -80.5c32.667 0 69.167 0.166992 109.5 0.5s81.833 0.5 124.5 0.5h126
c41.333 0 79.666 -0.333008 114.999 -1c18 1.33301 32.667 1.83301 44 1.5s24 -1.83301 38 -4.5c1.33301 -1.33301 4 -2.5 8 -3.5s7.66699 -2 11 -3s5.66602 -1.83301 6.99902 -2.5s0 -1.33398 -4 -2.00098c10 -8 18.667 -18 26 -30s11 -24.667 11 -38
c0 -9.33301 -1.66699 -17.333 -5 -24c-6.66699 -16 -26 -39 -58 -69c-6 -6 -10.333 -9 -13 -9c-1.33301 0 -2 0.333008 -2 1c0 3.33301 2.66699 8.33301 8 15c36 36.667 54 71.334 54 104.001c0 24.667 -15 39 -45 43c-8 0.666992 -17.5 1.16699 -28.5 1.5
s-23.5 0.5 -37.5 0.5zM188.003 185.996c-6 -23.333 -10.3291 -48.833 -12.9961 -76.5s-3.33398 -54.167 -2.00098 -79.5c30 0.666992 58.167 6.5 84.5 17.5s50.333 24 72 39s40.834 30.667 57.501 47l42 42.5c3.33301 3.33301 7.66602 8.83301 12.999 16.5
s11 16.334 17 26.001s11.833 19.667 17.5 30s10.5 20.166 14.5 29.499c3.33301 8 4.5 13.5 3.5 16.5s-5.16699 4.5 -12.5 4.5h-30h-57h-76h-86c-28.667 0 -57.167 -0.166992 -85.5 -0.5s-53.833 -0.833008 -76.5 -1.5c-1.33301 -3.33301 -2.83301 -6.5 -4.5 -9.5
s-3.16699 -6.16699 -4.5 -9.5c-14 -28 -22.333 -56.167 -25 -84.5s-0.666992 -54 6 -77s18 -42.167 34 -57.5s35.667 -24.333 59 -27c3.33301 -0.666992 6.66602 -1 9.99902 -1c4 0 7.66699 -0.333008 11 -1c-2.66699 30 -1.83398 59.333 2.49902 88
s11.166 52.667 20.499 72zM454.007 179.996c-31.333 -34.667 -58.834 -62.832 -82.501 -84.499s-46.167 -39 -67.5 -52s-42.166 -22.667 -62.499 -29s-42.5 -11.5 -66.5 -15.5c2 -17.333 5 -33.333 9 -48s9.16699 -27.5 15.5 -38.5s14 -19.5 23 -25.5
s19.167 -8.66699 30.5 -8s22.5 5 33.5 13s21.833 18 32.5 30s20.667 25.667 30 41s18 30.666 26 45.999zM180.006 189.998c4 8.66699 6.66699 12.5 8 11.5s1.33301 -5.83301 0 -14.5l-8 3v0z" />
    <glyph glyph-name="quotesingle" unicode="'" horiz-adv-x="178" 
d="M218 408c-2 -3.33301 -4.66797 -4.33398 -8.00098 -3.00098s-5 3 -5 5c0 2.66699 0.333008 4.33398 1 5.00098l80 149c2.66699 5.33301 7.33398 8 14.001 8c15.333 0 23 -6.33301 23 -19c0 -2 -1 -4.33301 -3 -7c-25.333 -32 -59.333 -78 -102 -138z" />
    <glyph glyph-name="parenleft" unicode="(" horiz-adv-x="409" 
d="M562 595c1.33301 0.666992 2.66699 1 4 1h5c6.66699 0 10 -1.66699 10 -5c0 -4.66699 -5 -8 -15 -10c-114 -24 -211 -91 -291 -201c-77.333 -107.333 -116 -219 -116 -335c0 -17.333 1.16699 -34.333 3.5 -51s5.5 -33 9.5 -49c0 -1.33301 2.83301 -3.83301 8.5 -7.5
s8.16699 -8.5 7.5 -14.5c-1.33301 -8.66699 -5.5 -16.167 -12.5 -22.5s-14.167 -9.5 -21.5 -9.5s-12 4.33301 -14 13c-11.333 41.333 -17 82 -17 122c0 128 42.333 247.333 127 358c84 110.667 188 181 312 211z" />
    <glyph glyph-name="parenright" unicode=")" horiz-adv-x="409" 
d="M-61 -99c-2 -0.666992 -4.66699 -0.999023 -8 -0.999023c-6.66699 0 -10 1.66699 -10 5c0 4.66699 4.66699 8 14 10c113.333 24 210.333 91 291 201c39.333 53.333 68.333 107.666 87 162.999s28 112.333 28 171c0 35.333 -4 69 -12 101c0 1.33301 -3 3.83301 -9 7.5
s-8.66699 8.5 -8 14.5c2 8.66699 6.33301 16.167 13 22.5s13.667 9.5 21 9.5c8 0 13 -4.33301 15 -13c10.667 -38.667 16 -79.667 16 -123c0 -128 -42 -247.333 -126 -358c-85.333 -110 -189.333 -180 -312 -210z" />
    <glyph glyph-name="asterisk" unicode="*" horiz-adv-x="363" 
d="M255 580l-27 -55.4951l-28 -58.5c21.333 7.33301 44 16.333 68 27s47.333 20 70 28c5.33301 3.33301 8.5 3.16602 9.5 -0.500977s-0.166992 -6.5 -3.5 -8.5c-22.667 -12 -47.5 -24.167 -74.5 -36.5l-70.5 -31.5l41.5 -35.5c12.333 -10.333 23.5 -20.5 33.5 -30.5
c7.33301 -6.66699 9.66602 -11.5 6.99902 -14.5s-5.66699 -3.5 -9 -1.5l-41.5 32l-46.5 37c-5.33301 -11.333 -11.333 -24.833 -18 -40.5s-12.667 -30.667 -18 -45s-9.16602 -26.666 -11.499 -36.999s-1.5 -15.5 2.5 -15.5c2 0 1.83301 -0.833008 -0.5 -2.5
s-4.83301 -3.16699 -7.5 -4.5c-7.33301 -2 -10.833 1.16699 -10.5 9.5s2.5 19.666 6.5 33.999s9 30.166 15 47.499s11.333 33.666 16 48.999c-19.333 -11.333 -39.5 -22 -60.5 -32s-39.5 -21 -55.5 -33c-1.33301 -0.666992 -1.66602 -2.16699 -0.999023 -4.5
s-1 -3.83301 -5 -4.5c-9.33301 -1.33301 -15.166 1.83398 -17.499 9.50098s1.16699 15.167 10.5 22.5c6 4.66699 14 9.66699 24 15s21.167 10.666 33.5 15.999l38 16.5c13 5.66699 25.167 11.5 36.5 17.5c-12.667 7.33301 -24.5 15 -35.5 23s-23.5 15.333 -37.5 22
c-0.666992 0 -2 -0.833008 -4 -2.5s-4 -0.833984 -6 2.49902c-3.33301 2.66699 -5 6 -5 10c0 4.66699 1.33301 8.5 4 11.5s6.16699 5.16699 10.5 6.5s9.5 0.666016 15.5 -2.00098c12.667 -5.33301 24.667 -13.333 36 -24s23.333 -21 36 -31
c7.33301 17.333 14.666 33.833 21.999 49.5s13.666 30.5 18.999 44.5c2 4.66699 3 9.66699 3 15s3.33301 9.66602 10 12.999c12 7.33301 19.667 8.83301 23 4.5s4.33301 -8.16602 3 -11.499z" />
    <glyph glyph-name="plus" unicode="+" horiz-adv-x="418" 
d="M394 265c-24 -5.33301 -52.1709 -8.99316 -84.5039 -10.9932s-65.166 -3.33301 -98.499 -4c-13.333 -24.667 -25.666 -48.834 -36.999 -72.501s-20.666 -45.834 -27.999 -66.501c-1.33301 -2.66699 -2.5 -5.83398 -3.5 -9.50098s-1.33301 -7 -1 -10s1.5 -5 3.5 -6
s5.33301 -0.5 10 1.5c3.33301 1.33301 6.66602 3 9.99902 5s7 3.66699 11 5c2 3.33301 3.5 4.5 4.5 3.5s0.166992 -3.16699 -2.5 -6.5c-2.66699 -4 -9 -9 -19 -15s-18 -9.66699 -24 -11c-5.33301 -1.33301 -9.33301 -1.5 -12 -0.5s-4.5 2.66699 -5.5 5
s-1.16699 5.16602 -0.5 8.49902s1.33398 6.33301 2.00098 9c7.33301 22.667 17.833 48 31.5 76s28.167 56 43.5 84c-30 0 -57.333 0.666992 -82 2s-44.667 3 -60 5c-2 0 -4.66699 1.33301 -8 4s-6.83301 5.66699 -10.5 9l-10.5 9.5c-3.33301 3 -6 5.5 -8 7.5
c-2 3.33301 -2.66699 5.66602 -2 6.99902s1.33398 1.66602 2.00098 0.999023c4.66699 -4 10.5 -7.33301 17.5 -10l18.5 -7c20.667 -3.33301 44 -6 70 -8s53 -3.33301 81 -4c19.333 36 38.666 69 57.999 99s35.333 53.333 48 70c0.666992 1.33301 3 3.33301 7 6
s8.5 5.16699 13.5 7.5l14.5 6.5c4.66699 2 8.33398 3.33301 11.001 4c3.33301 0.666992 5.5 0.166992 6.5 -1.5s0.833008 -2.83398 -0.5 -3.50098c-5.33301 -2 -11.333 -5.66699 -18 -11s-11.667 -10.333 -15 -15c-16 -21.333 -33.5 -46.166 -52.5 -74.499
s-37.167 -57.5 -54.5 -87.5c27.333 0 53.5 0.833008 78.5 2.5s47.5 5.16699 67.5 10.5c2.66699 0 5.5 0.5 8.5 1.5s5.66699 2.33301 8 4s3.5 3.5 3.5 5.5c0 2.66699 -1.66699 5.66699 -5 9c-4.66699 6 -10.334 10.333 -17.001 13
c-3.33301 1.33301 -4.66602 2.66602 -3.99902 3.99902s2.66699 2 6 2c4 -0.666992 10.333 -4 19 -10s14.667 -11.667 18 -17c6.66699 -8 8 -14.167 4 -18.5s-8.33301 -6.83301 -13 -7.5z" />
    <glyph glyph-name="comma" unicode="," horiz-adv-x="178" 
d="M22 -114c-1.33301 -2 -3.33301 -3 -6 -3c-4.66699 0 -7 2.66699 -7 8c0 2 1.33301 4.33301 4 7c42 29.333 65.667 64.333 71 105c0.666992 5.33301 -0.166016 11.333 -2.49902 18s-5.83301 14.667 -10.5 24c-2.66699 4.66699 2.66602 12 15.999 22s22.333 14.333 27 13
c5.33301 -1.33301 10 -8 14 -20s6 -23.333 6 -34c0 -4 -0.333008 -6.66699 -1 -8c-12 -36 -49 -80 -111 -132z" />
    <glyph glyph-name="hyphen" unicode="-" horiz-adv-x="229" 
d="M37 166c-11.333 0 -17 3 -17 9c0 12 10.667 18 32 18h141c11.333 0 17 -3.33301 17 -10c0 -11.333 -8.66699 -17 -26 -17h-147v0z" />
    <glyph glyph-name="period" unicode="." horiz-adv-x="178" 
d="M124 18c0 -4 -5.00293 -8.16797 -15.0029 -12.501s-19.333 -6.5 -28 -6.5c-4 0 -7 1.5 -9 4.5s-4.33301 12.167 -7 27.5c-2 17.333 -2 27.333 0 30c0.666992 2 2.83398 4.16699 6.50098 6.5s7.83398 4.5 12.501 6.5s9.33398 3.66699 14.001 5s8.66699 2 12 2
c1.33301 0 3.33301 -0.666992 6 -2c5.33301 -5.33301 8 -25.666 8 -60.999z" />
    <glyph glyph-name="slash" unicode="/" horiz-adv-x="409" 
d="M-42 -78c-3.33301 -14 -7.00195 -21 -11.002 -21c-1.33301 4 -2 12 -2 24c4.66699 44.667 92.334 150.667 263.001 318l214.5 201c64.333 57.333 122.5 105 174.5 143c7.33301 5.33301 14 8 20 8s9 -2.66699 9 -8c0 -4.66699 -4 -10 -12 -16
c-54 -40 -113.167 -88 -177.5 -144s-134.166 -120.333 -209.499 -193c-83.333 -80 -147.5 -146 -192.5 -198s-70.5 -90 -76.5 -114z" />
    <glyph glyph-name="zero" unicode="0" horiz-adv-x="541" 
d="M205 442c2.66699 2.66699 7.83203 6.3291 15.499 10.9961s16.334 9.66699 26.001 15s19.667 10.333 30 15s19.833 8.66699 28.5 12c28.667 16 59.334 25.667 92.001 29c39.333 3.33301 71 -6 95 -28s36 -55.333 36 -100c0 -13.333 -1.33301 -27.666 -4 -42.999
s-6.33398 -31.666 -11.001 -48.999c-20.667 -67.333 -58.334 -130 -113.001 -188c-29.333 -32 -60.166 -57.833 -92.499 -77.5s-66.833 -34.5 -103.5 -44.5c-9.33301 -2 -18.5 -3.66699 -27.5 -5s-17.833 -2 -26.5 -2c-38 0 -68.833 11 -92.5 33s-35.5 54 -35.5 96
c0 10.667 0.833008 21.834 2.5 33.501s4.5 23.834 8.5 36.501c28 96 85.333 181.333 172 256zM391.998 497.995c-52.667 0 -107.667 -24.332 -165 -72.999c-38 -32 -70.333 -71.667 -97 -119c-12.667 -21.333 -23.167 -42 -31.5 -62s-14.166 -39 -17.499 -57
c-1.33301 -9.33301 -2.5 -18.333 -3.5 -27s-1.5 -17.334 -1.5 -26.001c0 -21.333 2.66699 -39.833 8 -55.5s13.333 -29.5 24 -41.5c18 -20 41.667 -30 71 -30c65.333 0 129.666 34 192.999 102c54 58 91.667 122 113 192c8.66699 26.667 13 53.667 13 81
c0 78 -35.333 116.667 -106 116z" />
    <glyph glyph-name="one" unicode="1" horiz-adv-x="381" 
d="M164 -2c-95.333 0 -159.333 -1.99805 -192 -5.99805c-12 -1.33301 -18 1.66699 -18 9c0 13.333 6 20.666 18 21.999l52.5 5c21.667 2 48.5 3.66699 80.5 5c25.333 46 58.5 100.5 99.5 163.5l146.5 216.5c2.66699 3.33301 4 7.33301 4 12s-2.33301 7 -7 7
c-2.66699 0 -6 -0.666992 -10 -2c-27.333 -10.667 -54.333 -20.334 -81 -29.001l-80 -26c-7.33301 -2 -12.333 -3 -15 -3c-6.66699 0 -9.33398 2 -8.00098 6c2 4.66699 8 8.33398 18 11.001c70 26 129.5 49.833 178.5 71.5s88.5 41.167 118.5 58.5c4 2 7.66699 3 11 3
c8 0 12 -4 12 -12c0 -6.66699 -2.33301 -11.334 -7 -14.001c-6 -4 -13 -8.33301 -21 -13s-17.667 -10.667 -29 -18c-2.66699 -1.33301 -4.5 -4.83301 -5.5 -10.5l-3.5 -19.5c-12 -9.33301 -29.333 -27.166 -52 -53.499s-50.667 -61.5 -84 -105.5
c-34 -44.667 -62.333 -83.834 -85 -117.501s-39.667 -61.834 -51 -84.501c-1.33301 -4 -2.66602 -7.66699 -3.99902 -11s-2 -6.33301 -2 -9c0 -13.333 13 -21.666 39 -24.999c59.333 -9.33301 99 -13 119 -11c13.333 1.33301 20 -1 20 -7
c0 -7.33301 -9.66699 -11.333 -29 -12s-53 -1 -101 -1h-32z" />
    <glyph glyph-name="two" unicode="2" horiz-adv-x="497" 
d="M395 0c-26 2 -57.666 2.99805 -94.999 2.99805c-86.667 0 -180.334 -4 -281.001 -12c-12 -1.33301 -18 2.33398 -18 11.001c0 17.333 12 28 36 32c52.667 11.333 102.334 27.333 149.001 48c59.333 28 114 61.333 164 100c74 58 116 117.667 126 179
c4 21.333 -2.33301 44 -19 68c-19.333 26.667 -44.333 43.334 -75 50.001c-6.66699 1.33301 -13.5 2.33301 -20.5 3s-14.167 1 -21.5 1c-44.667 0 -91.334 -13.667 -140.001 -41c-3.33301 -2 -5 -1.33301 -5 2c0 14 7 24.333 21 31c60 33.333 120.333 47.333 181 42
c22.667 -1.33301 42.5 -6.16602 59.5 -14.499s31.167 -19.166 42.5 -32.499c19.333 -23.333 29 -51 29 -83c0 -63.333 -47.333 -131 -142 -203c-38 -30 -76 -55.333 -114 -76s-76.333 -38 -115 -52c-8.66699 -2.66699 -13 -6.33398 -13 -11.001
c0 -13.333 83.333 -20 250 -20c16 0 24 -4.66699 24 -14c0 -8.66699 -7.66699 -12.334 -23 -11.001z" />
    <glyph glyph-name="three" unicode="3" horiz-adv-x="475" 
d="M410 105c-13.333 -28.667 -34.501 -54.3271 -63.501 -76.9941s-65.5 -43.334 -109.5 -62.001c-72.667 -30.667 -138 -46.334 -196 -47.001c-66 -2 -99 9 -99 33c0 7.33301 2.33301 14.666 7 21.999s10.334 11 17.001 11c9.33301 0 14.666 -7.33301 15.999 -22
c0.666992 -20.667 20 -31 58 -31c49.333 0 106 14.667 170 44c78 35.333 128.333 79 151 131c2.66699 7.33301 4.83398 14.5 6.50098 21.5s2.5 14.167 2.5 21.5c0 33.333 -12.667 59.666 -38 78.999c-30.667 24 -76 34.333 -136 31c-4.66699 0 -7 1.33301 -7 4
c0 4 2.5 8.16699 7.5 12.5s10.5 6.5 16.5 6.5c38.667 0 81.667 13.667 129 41c22 13.333 40.667 26.333 56 39s27 26 35 40c9.33301 14.667 14 29.667 14 45c0 28.667 -14.667 43 -44 43c-47.333 0 -95 -11.333 -143 -34c-4.66699 -2.66699 -7 -1.33398 -7 3.99902
c0 10.667 5.33301 19 16 25c44 26 96.667 39 158 39c52.667 0 79 -20.333 79 -61c0 -16.667 -4.33301 -31.334 -13 -44.001c-32 -49.333 -94 -91 -186 -125c-5.33301 -2 -8 -5 -8 -9s3 -6.33301 9 -7c16.667 -1.33301 32 -5.33301 46 -12s26.333 -15.167 37 -25.5
s19 -22.5 25 -36.5s9 -28.667 9 -44c0 -19.333 -5 -38 -15 -56z" />
    <glyph glyph-name="four" unicode="4" horiz-adv-x="555" 
d="M239 -90c-1.33301 -8 -4.00391 -12 -8.00391 -12c-6.66699 0 -9.33398 5 -8.00098 15c2 25.333 10.833 55.833 26.5 91.5s38.834 77.5 69.501 125.5c-20 2 -57.667 3 -113 3c-35.333 0.666992 -64.666 0.5 -87.999 -0.5s-41.666 -2.5 -54.999 -4.5
c-7.33301 -1.33301 -14.666 -7 -21.999 -17c-7.33301 -9.33301 -12.333 -14 -15 -14c-5.33301 0 -8 5.33301 -8 16c0 7.33301 2 13.666 6 18.999c2 3.33301 9 8 21 14c3.33301 1.33301 6.5 2.83301 9.5 4.5s6.5 3.83398 10.5 6.50098c18 20.667 42.333 45 73 73
s68 60 112 96l116.5 92.5c33.667 25.667 63.167 46.167 88.5 61.5c1.33301 0.666992 3.33301 1 6 1c8 0 12 -4 12 -12c0 -4.66699 -2.66699 -8.33398 -8 -11.001c-24 -14.667 -54.167 -35.167 -90.5 -61.5s-78.5 -58.833 -126.5 -97.5
c-92 -72.667 -146.333 -119.667 -163 -141c22 4 51.333 6 88 6c28 0 61.667 -1 101 -3l44 -3c10 -0.666992 15.333 -1 16 -1l109 149l136 184c12 15.333 31.667 23 59 23c7.33301 0 11 -1.66699 11 -5c0 -1.33301 -0.333008 -2.33301 -1 -3
c-19.333 -22 -41.5 -48.833 -66.5 -80.5l-86.5 -109.5l-77.5 -103c-19.667 -26.667 -33.167 -46 -40.5 -58c56.667 -3.33301 89.334 -4 98.001 -2c3.33301 0.666992 5 0 5 -2c0 -3.33301 -3.66699 -7.83301 -11 -13.5s-14 -8.5 -20 -8.5
c-22.667 0 -41.167 0.166992 -55.5 0.5s-24.833 0.833008 -31.5 1.5l-44.5 -63c-11.667 -16 -19.167 -27 -22.5 -33c-34 -53.333 -52.667 -94.666 -56 -123.999z" />
    <glyph glyph-name="five" unicode="5" horiz-adv-x="480" 
d="M406 77c-60.667 -70 -142.998 -104.997 -246.998 -104.997c-36 0 -70 5 -102 15c-33.333 10 -50 22 -50 36c0 7.33301 3.83301 14 11.5 20s15.834 9 24.501 9c6 0 10 -1.66699 12 -5c24.667 -28 69.667 -42 135 -42c62 0 112.667 12 152 36
c33.333 21.333 50 51.666 50 90.999c0 21.333 -7.33301 39.333 -22 54c-36.667 36 -106.334 67 -209.001 93c-7.33301 2.66699 -11 7.33398 -11 14.001c0 8 7.66699 22.667 23 44c25.333 36 49 68.167 71 96.5l61 75.5c4.66699 6.66699 12 10 22 10
c3.33301 0 8.83301 -1 16.5 -3s17.834 -5.66699 30.501 -11l8 -5.5c3.33301 -2.33301 7.33301 -4.16602 12 -5.49902c23.333 -0.666992 52 -1 86 -1h119c6.66699 0 10 -2 10 -6c0 -9.33301 -7.66699 -14 -23 -14c-50 0 -99 -0.5 -147 -1.5s-95 -2.16699 -141 -3.5
c-48 -44.667 -83.667 -86.667 -107 -126c-7.33301 -12.667 -6 -20.334 4 -23.001l72 -27c17.333 -6.66699 28.666 -11.334 33.999 -14.001c23.333 -10 43.666 -19.833 60.999 -29.5s31.666 -19.834 42.999 -30.501c20 -18 30 -40.333 30 -67s-9.66699 -51.334 -29 -74.001z
" />
    <glyph glyph-name="six" unicode="6" horiz-adv-x="475" 
d="M419 95c-10.667 -15.333 -23.3359 -29.832 -38.0029 -43.499s-31.667 -26.5 -51 -38.5c-45.333 -27.333 -89 -41 -131 -41c-8.66699 0 -17.167 0.833008 -25.5 2.5s-16.166 3.5 -23.499 5.5c-27.333 9.33301 -47.666 23.166 -60.999 41.499s-20 42.5 -20 72.5
c0 86 43.333 175.667 130 269c114 124 227.667 196 341 216c2 0.666992 4 1 6 1h6c7.33301 0 11 -1.66699 11 -5s-6.33301 -6.33301 -19 -9c-67.333 -12 -137.333 -50.667 -210 -116c-29.333 -26 -56.5 -54 -81.5 -84s-49.167 -62.667 -72.5 -98
c64.667 26 124.334 39 179.001 39c15.333 0 26.333 -1.66699 33 -5c44.667 -14 67 -45 67 -93c0 -39.333 -13.333 -77.333 -40 -114zM369.998 269.001c-15.333 7.33301 -36.667 11 -64 11c-24.667 0 -48.167 -2.16699 -70.5 -6.5s-43.5 -11.166 -63.5 -20.499
c-40 -48 -60 -103.667 -60 -167c0 -36 9.33301 -62 28 -78c14.667 -12.667 34 -19 58 -19c34 0 70.667 11.667 110 35c38 23.333 65.667 52.666 83 87.999c6 12 10.333 24.167 13 36.5s4 24.5 4 36.5c0 44 -12.667 72 -38 84z" />
    <glyph glyph-name="seven" unicode="7" horiz-adv-x="505" 
d="M53 -92c1.33301 -5.33301 -0.333984 -10.166 -5.00098 -14.499s-9.66699 -6.5 -15 -6.5c-10.667 0 -15 7.66699 -13 23c8 53.333 156.667 233.333 446 540c2.66699 2 4 4.66699 4 8c0 6 -6.33301 10 -19 12c-22 3.33301 -65.333 5.33301 -130 6
c-57.333 0.666992 -93.333 0 -108 -2c-6 -0.666992 -13.333 -2.5 -22 -5.5l-32 -11.5c-3.33301 -3.33301 -7.33301 -5 -12 -5c-5.33301 0 -8 2.66699 -8 8c0 8 10 16.667 30 26c16.667 8 30.334 13 41.001 15c34.667 0.666992 75.5 1.5 122.5 2.5l159.5 3.5
c3.33301 -0.666992 10 0 20 2c2.66699 2 6.5 4.33301 11.5 7s11.167 5.66699 18.5 9c14 2.66699 21 -5.33301 21 -24c0 -10.667 -3.66699 -19.667 -11 -27l-297 -290c-73.333 -72.667 -126.333 -132.334 -159 -179.001s-47 -79 -43 -97z" />
    <glyph glyph-name="eight" unicode="8" horiz-adv-x="584" 
d="M481 157c2.66699 -48 -30.335 -96.3359 -99.002 -145.003c-67.333 -46 -133.333 -69 -198 -69c-20.667 0 -40 2.83301 -58 8.5s-33.667 14 -47 25s-23.833 24.333 -31.5 40s-11.5 33.834 -11.5 54.501c0 18.667 3.66699 38 11 58c8.66699 20 23.334 41.333 44.001 64
s48 46 82 70l66.5 43.5l101.5 62.5c-19.333 36.667 -29 68.334 -29 95.001c0 20.667 5.66699 37.334 17 50.001c17.333 21.333 44.333 38.666 81 51.999c17.333 7.33301 34 12.5 50 15.5s32 4.83301 48 5.5c14.667 1.33301 29.334 -2 44.001 -10
c16.667 -6.66699 24.334 -14.667 23.001 -24c1.33301 -13.333 -1 -20 -7 -20c-2 0 -3.83301 0.333008 -5.5 1s-3.16699 1.33398 -4.5 2.00098l-12.5 8.5l-12.5 8.5c-14 10 -31 15 -51 15c-11.333 0 -23.833 -1.5 -37.5 -4.5s-25.167 -8.16699 -34.5 -15.5
c-30.667 -23.333 -46 -52.333 -46 -87c0 -22 6 -46 18 -72c16 7.33301 35 17 57 29s47 26.667 75 44s51.667 33 71 47s34.666 26.333 45.999 37c10 8 16.667 12 20 12c2 0 3 -1.33301 3 -4c0 -20 -87.667 -81 -263 -183c24 -42 41 -74 51 -96
c11.333 -24 20.333 -45.833 27 -65.5s10.667 -37.167 12 -52.5zM83.998 121.997c-9.33301 -17.333 -13.999 -36.334 -13.999 -57.001c0 -61.333 35.333 -98 106 -110c40.667 -6.66699 91 6.33301 151 39c70.667 40 106 92.667 106 158c0 16 -2.33301 32.833 -7 50.5
s-12.334 36.834 -23.001 57.501c-3.33301 6 -9.5 16.333 -18.5 31l-35.5 57c-140 -76.667 -228.333 -152 -265 -226z" />
    <glyph glyph-name="nine" unicode="9" horiz-adv-x="563" 
d="M165 486c10.667 15.333 23.6709 29.834 39.0039 43.501s32.666 26.834 51.999 39.501c47.333 28.667 91.666 43 132.999 43c16.667 0 33.667 -2.66699 51 -8c54.667 -18 82 -57 82 -117c0 -80.667 -46.333 -172.334 -139 -275.001
c-58.667 -62.667 -116.834 -112.167 -174.501 -148.5s-116.167 -59.833 -175.5 -70.5c-2.66699 -0.666992 -6.33398 -1 -11.001 -1c-7.33301 0 -11 1.66699 -11 5c0 4 6.66699 7.66699 20 11c68.667 12 138.334 47 209.001 105c65.333 54 119.666 118 162.999 192
c-50 -24.667 -106.333 -37 -169 -37c-9.33301 0 -17.833 0.666992 -25.5 2s-14.5 2.66602 -20.5 3.99902c-44 14 -66 44 -66 90c0 42 14.333 82.667 43 122zM411.004 319.001c43.333 52.667 64.998 111.666 64.998 176.999c0 35.333 -9.33301 61.666 -28 78.999
c-15.333 13.333 -35.333 20 -60 20c-34 0 -70.333 -11.667 -109 -35c-19.333 -12.667 -36.166 -26.5 -50.499 -41.5s-25.5 -31.5 -33.5 -49.5c-7.33301 -15.333 -12.666 -30.166 -15.999 -44.499s-5 -28.166 -5 -41.499c0 -38 11.667 -64 35 -78c16.667 -10 40 -15 70 -15
c49.333 0 93.333 9.66699 132 29z" />
    <glyph glyph-name="colon" unicode=":" horiz-adv-x="230" 
d="M233 202c0 -3.33301 -5.00195 -7.33203 -15.002 -11.999s-19.333 -7 -28 -7c-4 0 -7 1.66699 -9 5s-4.33301 12.666 -7 27.999c-1.33301 8 -2.16602 14.5 -2.49902 19.5s0.5 8.16699 2.5 9.5c2 4 8.33301 8.5 19 13.5s19.334 7.5 26.001 7.5c2 0 3.66699 -0.666992 5 -2
c6 -6 9 -26.667 9 -62zM123.998 18.001c0 -4 -5.00293 -8.16797 -15.0029 -12.501s-19.333 -6.5 -28 -6.5c-4 0 -7 1.5 -9 4.5s-4.33301 12.167 -7 27.5c-2 17.333 -2 27.333 0 30c0.666992 2 2.83398 4.16699 6.50098 6.5s7.83398 4.5 12.501 6.5s9.33398 3.66699 14.001 5
s8.66699 2 12 2c1.33301 0 3.33301 -0.666992 6 -2c5.33301 -5.33301 8 -25.666 8 -60.999z" />
    <glyph glyph-name="semicolon" unicode=";" horiz-adv-x="227" 
d="M22 -114c-1.33301 -2 -3.33301 -3 -6 -3c-4.66699 0 -7 2.66699 -7 8c0 2 1.33301 4.33301 4 7c42 29.333 65.667 64.333 71 105c0.666992 5.33301 -0.166016 11.333 -2.49902 18s-5.83301 14.667 -10.5 24c-2.66699 4.66699 2.66602 12 15.999 22s22.333 14.333 27 13
c5.33301 -1.33301 10 -8 14 -20s6 -23.333 6 -34c0 -4 -0.333008 -6.66699 -1 -8c-12 -36 -49 -80 -111 -132zM233 202c0 -3.33301 -5.00195 -7.33203 -15.002 -11.999s-19.333 -7 -28 -7c-4 0 -7 1.66699 -9 5s-4.33301 12.666 -7 27.999
c-1.33301 8 -2.16602 14.5 -2.49902 19.5s0.5 8.16699 2.5 9.5c2 4 8.33301 8.5 19 13.5s19.334 7.5 26.001 7.5c2 0 3.66699 -0.666992 5 -2c6 -6 9 -26.667 9 -62z" />
    <glyph glyph-name="less" unicode="&#x3c;" horiz-adv-x="621" 
d="M533 487c-0.666992 0 -6.99902 -2.66895 -18.999 -8.00195l-47 -21.5l-65.5 -30.5l-75 -34.5l-75 -34.5l-65.5 -30.5l-46.5 -21.5c-11.667 -5.33301 -17.5 -8.33301 -17.5 -9c-0.666992 -3.33301 -0.333984 -7.33301 0.999023 -12s5 -9.33398 11 -14.001
c7.33301 -6 19.166 -15 35.499 -27l56 -40.5l67 -46.5l68 -45c21.667 -14 41.834 -26.333 60.501 -37s33.334 -18 44.001 -22c6 -3.33301 14.667 -5.83301 26 -7.5s23.666 -4.16699 36.999 -7.5c4.66699 1.33301 8 1.5 10 0.5s3.66699 -1.16699 5 -0.5l6.5 -8
c1.66699 -2 1.83398 -4.66699 0.500977 -8c-4 -4 -9.5 -7 -16.5 -9s-17.167 -2.33301 -30.5 -1c-10.667 1.33301 -20.334 2.33301 -29.001 3s-15.667 2.33398 -21 5.00098l-73 45l-99 63l-108.5 67.5c-37 22.333 -70.833 41.833 -101.5 58.5c-4 4.66699 -10.667 8 -20 10
c-4 0.666992 -6.83301 0.833984 -8.5 0.500977s-7.16699 -0.833008 -16.5 -1.5c-16 8 -18 22.333 -6 43c0.666992 2 8.5 6.33301 23.5 13s34.333 14.834 58 24.501l82 32l97 36l101 37l95 34.5l79 28c23 8 40.833 14 53.5 18z" />
    <glyph glyph-name="equal" unicode="=" horiz-adv-x="461" 
d="M38 176c-12 0 -18 2.66699 -18 8c0 10 12.333 15 37 15h324c14 0 21 -2.66699 21 -8c0 -9.33301 -10 -14 -30 -14c-15.333 0 -37.5 -0.166992 -66.5 -0.5s-59.833 -0.5 -92.5 -0.5h-96h-79zM77 277c-12.667 0 -18.999 2.66699 -18.999 8c0 10 12.667 15 38 15h323
c14 0 21 -2.33301 21 -7c0 -10 -10 -15 -30 -15c-15.333 0 -37.333 -0.166992 -66 -0.5s-59.334 -0.5 -92.001 -0.5h-96h-79z" />
    <glyph glyph-name="greater" unicode="&#x3e;" horiz-adv-x="635" 
d="M89 50c0.666992 0 11.335 4.67188 32.002 14.0049l76.5 35l98.5 45.5l98.5 45.5l75.5 35c20 9.33301 30.333 14.333 31 15c0.666992 3.33301 0.333984 7.16602 -0.999023 11.499s-5.33301 9.16602 -12 14.499l-36 27l-55.5 40l-67 46.5l-68 45.5
c-21.667 14 -41.834 26.333 -60.501 37s-33.334 18 -44.001 22c-6 3.33301 -14.5 5.83301 -25.5 7.5s-23.167 3.83398 -36.5 6.50098c-4.66699 -0.666992 -8.16699 -0.666992 -10.5 0s-4.16602 0.666992 -5.49902 0c-2 3.33301 -3.83301 6.16602 -5.5 8.49902
s-1.83398 5.16602 -0.500977 8.49902c3.33301 3.33301 8.66602 6.16602 15.999 8.49902s17.666 2.83301 30.999 1.5l28.5 -3.5c8.33301 -1 15.166 -2.5 20.499 -4.5c18.667 -10.667 43.167 -25.667 73.5 -45l99 -63l108.5 -67.5
c36.667 -22.333 70.334 -41.833 101.001 -58.5c3.33301 -3.33301 6.33301 -5.5 9 -6.5s6.66699 -2.16699 12 -3.5c4 -0.666992 6.83301 -0.833984 8.5 -0.500977s6.83398 0.833008 15.501 1.5c16.667 -8 19 -22.333 7 -43c-1.33301 -3.33301 -14.5 -10.333 -39.5 -21
s-56.667 -23.334 -95 -38.001l-126.5 -47.5l-134 -48.5l-117.5 -41.5c-35 -12.333 -60.833 -21.166 -77.5 -26.499z" />
    <glyph glyph-name="question" unicode="?" horiz-adv-x="429" 
d="M211 119c0 -4.66699 -2.33398 -7.00098 -7.00098 -7.00098c-7.33301 0 -18 8 -32 24c-7.33301 9.33301 -12.333 17.333 -15 24s-4 12.334 -4 17.001s2 7.66699 6 9c54 15.333 100.5 30.666 139.5 45.999s72.167 30 99.5 44c100.667 52.667 151 114.334 151 185.001
c0 10 -0.833008 20.5 -2.5 31.5s-4.5 22.5 -8.5 34.5c-6 18.667 -14.667 35.834 -26 51.501s-24.333 28.834 -39 39.501s-30.667 19 -48 25s-34.333 9 -51 9c-34.667 0 -60.334 -12 -77.001 -36c-5.33301 -7.33301 -9.66602 -11 -12.999 -11c-2.66699 0 -4 1.33301 -4 4
s0.666992 5.16699 2 7.5s2.66602 5.16602 3.99902 8.49902c24.667 32.667 53.334 52.667 86.001 60c6.66699 2 13 3.33301 19 4s12 1 18 1c42.667 0 81.334 -16.667 116.001 -50c13.333 -14 25.166 -29 35.499 -45s18.166 -33.333 23.499 -52
c4.66699 -13.333 7.83398 -26.333 9.50098 -39s2.5 -25.334 2.5 -38.001c0 -69.333 -33 -122.333 -99 -159c-25.333 -16.667 -71.666 -38.667 -138.999 -66c-34 -14.667 -62.667 -26.167 -86 -34.5l-56 -19.5c-8 -2 -13.667 -7.66699 -17 -17
c-1.33301 -4.66699 -1.5 -9.66699 -0.5 -15s2.5 -10.5 4.5 -15.5s3.83301 -9.33301 5.5 -13s2.5 -6.16699 2.5 -7.5zM185.999 7.99902c-2 -3.33301 -7.66797 -7.00098 -17.001 -11.001s-17.666 -6 -24.999 -6c-5.33301 0 -9.33301 1.5 -12 4.5
s-5.33398 11.833 -8.00098 26.5c-2 15.333 -1.66699 25 1 29s9.33398 8.66699 20.001 14c12 5.33301 20 8 24 8c3.33301 0 6.5 -1.16699 9.5 -3.5s5.5 -11.833 7.5 -28.5c1.33301 -9.33301 1.83301 -16.666 1.5 -21.999s-0.833008 -9 -1.5 -11z" />
    <glyph glyph-name="at" unicode="@" horiz-adv-x="910" 
d="M256 16c-6.66699 -4.66699 -14.3359 -6.99805 -23.0029 -6.99805c-16.667 0 -25 11.333 -25 34c0 48 37 109 111 183c34 34 66.167 61.333 96.5 82s58.166 36.334 83.499 47.001c14 5.33301 27.667 8 41 8c16 0 32 -3 48 -9
c11.333 -1.33301 17.666 -1.66602 18.999 -0.999023c10 2 19 6.33301 27 13c2 2 3.66699 3 5 3c3.33301 0 5.83301 -1.66699 7.5 -5s2.16699 -6 1.5 -8l-57.5 -88.5c-19 -29 -37.167 -58.5 -54.5 -88.5c-28 -46.667 -49.833 -91.5 -65.5 -134.5s-26.5 -83.833 -32.5 -122.5
c-0.666992 -3.33301 -1 -6.33301 -1 -9v-10c0 -44.667 26 -67 78 -67c23.333 0 46.666 4 69.999 12c12.667 4 28.334 11.5 47.001 22.5s37.834 23.5 57.501 37.5s38.834 28.833 57.501 44.5s34 30.167 46 43.5c30 37.333 53.5 80.5 70.5 129.5s25.5 98.5 25.5 148.5
c0 49.333 -8.83301 94.333 -26.5 135s-42.167 75.667 -73.5 105s-68.5 52.166 -111.5 68.499s-90.167 24.5 -141.5 24.5c-88.667 0 -168 -23.333 -238 -70c-30.667 -20.667 -58 -44.334 -82 -71.001c-7.33301 -9.33301 -14.833 -18.333 -22.5 -27s-14.834 -18 -21.501 -28
c-10.667 -14.667 -20.5 -29.834 -29.5 -45.501s-17.167 -32.167 -24.5 -49.5c-8.66699 -21.333 -16.334 -43 -23.001 -65s-11.667 -44.333 -15 -67l-3.5 -26.5c-1 -7.66699 -1.83301 -15.334 -2.5 -23.001s-1 -15.834 -1 -24.501v-31c0 -14.667 1 -29.5 3 -44.5
s4.66699 -29.833 8 -44.5c6 -32 15.667 -63 29 -93c29.333 -64.667 71 -117 125 -157c35.333 -25.333 74.666 -45 117.999 -59s90 -21 140 -21c34.667 0 68 2.66699 100 8s61.667 12.166 89 20.499s52.333 17.666 75 27.999s42 20.833 58 31.5
c-44.667 -38 -94.667 -67.167 -150 -87.5s-113.666 -30.5 -174.999 -30.5c-67.333 0 -129.666 12 -186.999 36s-106.833 57.333 -148.5 100s-74.334 93.167 -98.001 151.5s-35.5 121.5 -35.5 189.5c0 74 13.167 142.833 39.5 206.5s62.5 119.167 108.5 166.5
s99.833 84.5 161.5 111.5s127.834 40.5 198.501 40.5c57.333 0 109.666 -8.83301 156.999 -26.5s87.833 -42.667 121.5 -75s59.834 -71 78.501 -116s28 -94.833 28 -149.5s-9.66699 -108.167 -29 -160.5s-46.666 -97.5 -81.999 -135.5l-31 -28
c-10 -9.33301 -21.667 -18.666 -35 -27.999c-29.333 -20.667 -56.666 -38.167 -81.999 -52.5s-47 -25.166 -65 -32.499c-9.33301 -3.33301 -18.833 -5.83301 -28.5 -7.5s-19.5 -2.5 -29.5 -2.5c-32.667 0 -59.667 8.66699 -81 26c-23.333 18 -34.333 44 -33 78
c1.33301 28 6.83301 58.833 16.5 92.5s23.834 70.5 42.501 110.5c11.333 24.667 22.5 47.334 33.5 68.001s22.167 39.667 33.5 57c4 7.33301 3.66699 11 -1 11c-2 0 -3.33301 -1 -4 -3c-31.333 -36.667 -76.333 -80 -135 -130c-28.667 -25.333 -55.667 -47 -81 -65
s-48.666 -33.667 -69.999 -47zM272.998 101.002c-3.33301 -6 -5.00098 -13.667 -5.00098 -23c0 -16 6 -24 18 -24c4.66699 0 9.66699 1.66699 15 5c37.333 24 76.833 55.667 118.5 95s85.834 87.333 132.501 144c2 2 3 4.66699 3 8c0 7.33301 -4.16699 14 -12.5 20
s-19.5 9 -33.5 9c-24 0 -46.833 -8.16699 -68.5 -24.5s-46.167 -39.5 -73.5 -69.5c-44 -49.333 -75.333 -96 -94 -140zM867.997 -203.998c-6.66699 -14 -23.333 -30 -50 -48c19.333 16 36 32 50 48z" />
    <glyph glyph-name="A" unicode="A" horiz-adv-x="1118" 
d="M1076 330c-5.33301 3.33301 -7.99609 7.32715 -7.99609 11.9941c-1.33301 4 0 6 4 6c2 0 3.83301 -0.666992 5.5 -2s3.5 -2.66602 5.5 -3.99902c24.667 -22 41.334 -43.667 50.001 -65c4 -10 -5.66699 -19 -29 -27c-7.33301 -3.33301 -20.166 -3.83301 -38.499 -1.5
s-42.833 6.5 -73.5 12.5c-7.33301 -38 -13 -71.667 -17 -101s-6 -55.333 -6 -78c0 -23.333 2.33301 -42 7 -56c0 -0.666992 1.16699 -1.66699 3.5 -3s4.83301 -2.66602 7.5 -3.99902s5 -2.66602 7 -3.99902s3 -2.33301 3 -3c-1.33301 -10 -8 -15 -20 -15
c-4.66699 0 -7.33398 1.33301 -8.00098 4c-10.667 22 -16 60.667 -16 116c0 20.667 0.833008 43.334 2.5 68.001s4.16699 51.667 7.5 81l-114 24c-40 8.66699 -82.333 18.334 -127 29.001c-32 -34 -67.167 -67.167 -105.5 -99.5s-80.5 -64.833 -126.5 -97.5
c-128.667 -89.333 -235.334 -134.666 -320.001 -135.999c-42 -0.666992 -74.5 11 -97.5 35s-34.5 57 -34.5 99c0 18 2 37 6 57s10.667 40.667 20 62c30.667 78 83 126.333 157 145c15.333 4 32.166 6.83301 50.499 8.5s38.833 2.5 61.5 2.5
c101.333 0 230.666 -17 387.999 -51c38.667 40.667 92.667 102.667 162 186l101 125c29.333 37.333 53.666 71 72.999 101c3.33301 3.33301 7.66602 5 12.999 5c11.333 0 24 -4.66699 38 -14s20.333 -16.333 19 -21l-45 -137.5l-32 -98.5c-29.333 -98.667 -48 -170 -56 -214
c34 -10 61.667 -15 83 -15s32 5.33301 32 16c0 16 -11 33.667 -33 53zM216.004 360.994c-31.333 -7.33301 -58.166 -21.499 -80.499 -42.499s-40.5 -49.5 -54.5 -85.5c-12.667 -33.333 -19 -67 -19 -101c0 -37.333 8.66699 -67 26 -89c10 -12.667 22 -22.334 36 -29.001
s30.667 -9.66699 50 -9c86 2 188.667 45 308 129c74 54 146.667 117 218 189c-129.333 32 -253 48 -371 48c-23.333 0 -44.333 -0.833008 -63 -2.5s-35.334 -4.16699 -50.001 -7.5zM741.004 337.995c38 -11.333 75.834 -21.668 113.501 -31.001
s75.167 -17.666 112.5 -24.999c8 80.667 42.333 213.667 103 399c1.33301 6.66699 2 11 2 13c0 10.667 -3 16 -9 16c-3.33301 0 -6 -0.833008 -8 -2.5s-4.66699 -4.16699 -8 -7.5c-50.667 -67.333 -101.334 -131 -152.001 -191s-102 -117 -154 -171z" />
    <glyph glyph-name="B" unicode="B" horiz-adv-x="734" 
d="M406 -8c-10.667 0.666992 -17.834 2.16992 -21.501 4.50293s-5.16699 4.66602 -4.5 6.99902s3 4.33301 7 6s8 2.5 12 2.5c34 -1.33301 68.167 1 102.5 7s65.5 15.333 93.5 28c12 5.33301 22.333 12.833 31 22.5s14.5 20.334 17.5 32.001s2.5 23.5 -1.5 35.5
s-12.667 23 -26 33c-8.66699 6.66699 -21.5 13.167 -38.5 19.5s-34.833 12.166 -53.5 17.499s-37 9.83301 -55 13.5s-32.333 6.16699 -43 7.5l-27.5 -37.5c-14.333 -19.667 -30 -42.334 -47 -68.001l-50 -79c-16.333 -27 -28.5 -49.833 -36.5 -68.5
c-6.66699 -13.333 -11.834 -20.333 -15.501 -21s-2.83398 7 2.49902 23c4 13.333 11.833 31 23.5 53s24.834 45 39.501 69l44 71.5c14.667 23.667 27.667 43.834 39 60.501c-4.66699 1.33301 -8.66699 2.33301 -12 3s-7.33301 2 -12 4c-5.33301 2 -9.33301 4.5 -12 7.5
s-4.16699 6 -4.5 9s0.333984 5.66699 2.00098 8s3.5 3.5 5.5 3.5c6 0.666992 14.833 1.5 26.5 2.5s21.834 2.83301 30.501 5.5c14.667 20.667 29.167 42.167 43.5 64.5l40.5 65.5c12.667 21.333 24 41.666 34 60.999s18.333 36.333 25 51
c1.33301 2.66699 2.83301 6.5 4.5 11.5s2.66699 9.66699 3 14s-0.166992 8.33301 -1.5 12s-4.33301 5.83398 -9 6.50098c-4 0.666992 -3 3.33398 3 8.00098s13.333 8.5 22 11.5s16.667 4 24 3s10 -6.5 8 -16.5c-1.33301 -9.33301 -5.66602 -22 -12.999 -38
s-16.166 -33.333 -26.499 -52l-33.5 -58l-35.5 -57.5l-31.5 -49.5l-22 -34c9.33301 1.33301 22.833 4 40.5 8s37.334 8.83301 59.001 14.5s44.667 12.167 69 19.5s48 15.5 71 24.5s44.333 18.5 64 28.5s36.167 20.333 49.5 31c12.667 10 24.334 22 35.001 36
s18 28.833 22 44.5s3.16699 31.834 -2.5 48.501s-18.834 32.667 -39.501 48c-31.333 23.333 -65.333 42.333 -102 57s-74.834 26.167 -114.501 34.5s-80.167 14.166 -121.5 17.499s-82.333 5.33301 -123 6c-6 0 -16.5 0.333008 -31.5 1s-32.333 0.5 -52 -0.5
s-40.667 -3 -63 -6s-43.833 -7.83301 -64.5 -14.5s-39.5 -15.834 -56.5 -27.501s-29.833 -26.167 -38.5 -43.5c-5.33301 -10 -6 -20.333 -2 -31s10 -20.834 18 -30.501s16.833 -18 26.5 -25s17.5 -12.167 23.5 -15.5c10 -5.33301 14.667 -10.666 14 -15.999s-7 -4 -19 4
c-11.333 6.66699 -23.666 14.5 -36.999 23.5s-25.166 18.667 -35.499 29s-17.5 21.666 -21.5 33.999s-2 25.5 6 39.5c8 15.333 21.5 28.166 40.5 38.499s40.333 19.166 64 26.499s48.167 13.166 73.5 17.499s48.833 7.5 70.5 9.5s40.167 3.33301 55.5 4s24.333 1 27 1
c45.333 -0.666992 89.166 -2.16699 131.499 -4.5s83.5 -7.33301 123.5 -15s78.667 -18.5 116 -32.5s73.666 -33.333 108.999 -58c22.667 -16 38.667 -33.333 48 -52s12.666 -37.5 9.99902 -56.5s-10.5 -37.5 -23.5 -55.5s-30.167 -34 -51.5 -48
c-26 -17.333 -54.667 -32.833 -86 -46.5s-62.833 -25.5 -94.5 -35.5s-62.334 -18.333 -92.001 -25s-55.5 -12 -77.5 -16c-8.66699 -1.33301 -13 -4 -13 -8s4 -6.66699 12 -8c20.667 -2.66699 40.5 -7 59.5 -13s36.333 -12.667 52 -20s29.167 -14.666 40.5 -21.999
s19.666 -13.666 24.999 -18.999c15.333 -15.333 23.5 -29.833 24.5 -43.5s-2 -26.5 -9 -38.5s-16.667 -23 -29 -33s-24.166 -19 -35.499 -27c-22.667 -15.333 -50.5 -27 -83.5 -35s-70.5 -11 -112.5 -9z" />
    <glyph glyph-name="C" unicode="C" horiz-adv-x="939" 
d="M341 -4c-81.333 1.33301 -150.669 19.665 -208.002 54.998c-64 38 -96 87.667 -96 149c0 72.667 43 152.667 129 240c74.667 76 168 144.333 280 205c106 57.333 194.667 90.333 266 99c18 2 36 3 54 3c50.667 0 87 -10 109 -30l13 13c0.666992 3.33301 3 4.33301 7 3
c3.33301 -0.666992 5 -3 5 -7c0 -2 -4.33301 -8.33301 -13 -19c9.33301 -11.333 14 -30.333 14 -57c0 -26 -4.33301 -50.5 -13 -73.5s-25 -47.833 -49 -74.5c-27.333 -33.333 -60 -60.666 -98 -81.999c-2 -0.666992 -7.66699 -0.666992 -17 0c-10.667 2 -16 4.33301 -16 7
c0 37.333 19 86 57 146c28.667 46.667 57.334 85.334 86.001 116.001c-12 26.667 -45 40 -99 40c-7.33301 0 -15.166 -0.333008 -23.499 -1s-17.166 -1.66699 -26.499 -3c-112.667 -21.333 -235 -81 -367 -179c-139.333 -105.333 -224.333 -208.333 -255 -309
c-4.66699 -16 -7 -32.333 -7 -49c0 -49.333 21 -89.333 63 -120c49.333 -35.333 118 -52 206 -50c50.667 1.33301 102.167 7.83301 154.5 19.5s105.5 28.167 159.5 49.5c50 20.667 95 42.834 135 66.501s75.667 49.834 107 78.501c4 4.66699 7.66699 7 11 7
c2.66699 0 4 -1.66699 4 -5c0 -2.66699 -2.33301 -6.33398 -7 -11.001c-60.667 -62 -143.334 -115 -248.001 -159c-56 -23.333 -110.333 -40.833 -163 -52.5s-104 -16.834 -154 -15.501zM733.997 446.999c-0.666992 -4.66699 0.000976562 -7.66895 2.00098 -9.00195
c2.66699 -2 5.66699 -2 9 0c50 32.667 86.333 75.334 109 128.001c4 10.667 7.16699 21 9.5 31s3.5 20.333 3.5 31c0 18.667 -3.33301 33.667 -10 45c-12.667 -13.333 -25.334 -28.666 -38.001 -45.999s-25 -37.666 -37 -60.999
c-23.333 -44.667 -39.333 -84.334 -48 -119.001z" />
    <glyph glyph-name="D" unicode="D" horiz-adv-x="864" 
d="M670 706c-25.333 8.66699 -56.5 15.8389 -93.5 21.5059s-76.333 9 -118 10s-83.834 -1 -126.501 -6s-82.5 -14.333 -119.5 -28s-69.333 -32 -97 -55s-47.5 -51.833 -59.5 -86.5c-9.33301 -26 -11.5 -51.833 -6.5 -77.5s13.5 -50 25.5 -73s25.833 -44.333 41.5 -64
s29.834 -36.5 42.501 -50.5c12 -13.333 16.167 -21.833 12.5 -25.5s-12.167 0.5 -25.5 12.5c-45.333 44 -78.833 87 -100.5 129s-28.834 84 -21.501 126c7.33301 40 25.166 74 53.499 102s62.5 50.833 102.5 68.5s83.833 30.5 131.5 38.5s94.667 12.667 141 14
s89.833 -0.333984 130.5 -5.00098s74 -11 100 -19c62 -20 114.5 -45.333 157.5 -76s77 -64.5 102 -101.5s40.833 -76.333 47.5 -118s4.66699 -83.334 -6 -125.001s-30.167 -82.334 -58.5 -122.001s-65.166 -76.167 -110.499 -109.5c-16.667 -12 -38.5 -25.333 -65.5 -40
s-56.167 -28.334 -87.5 -41.001s-63.833 -23.334 -97.5 -32.001s-65.5 -13 -95.5 -13c-29.333 0 -55.666 5.5 -78.999 16.5s-40.666 29.833 -51.999 56.5c-2.66699 5.33301 -4.83398 8.16602 -6.50098 8.49902s-4.16699 -2.5 -7.5 -8.5l-11.5 -31
c-3.66699 -10 -7.16699 -22 -10.5 -36c-2 -11.333 -5.5 -17.166 -10.5 -17.499s-6.16699 6.5 -3.5 20.5c2.66699 13.333 7 28.5 13 45.5l17 48.5c1.33301 3.33301 1.83301 5.5 1.5 6.5s-1.16602 3.83301 -2.49902 8.5c-13.333 33.333 -5.33301 51 24 53
c2.66699 0 3.33398 0 2.00098 0c-0.666992 0 -0.333984 1.33301 0.999023 4c13.333 27.333 28.333 56.5 45 87.5l52 93l55 92l54 84.5l49 70.5c15.333 21 28.666 37.833 39.999 50.5c3.33301 4 8 7.16699 14 9.5s11.333 3.5 16 3.5c5.33301 0 9.16602 -1.16699 11.499 -3.5
s1.83301 -5.83301 -1.5 -10.5c-12.667 -16 -28.5 -37.333 -47.5 -64l-61.5 -88.5l-67 -101l-64 -101.5l-53 -90c-15.333 -27.333 -26.333 -49.333 -33 -66c-4.66699 -9.33301 -6.83398 -20.333 -6.50098 -33s3.16602 -23.334 8.49902 -32.001
c8.66699 -16 22.834 -27.833 42.501 -35.5s42.334 -12 68.001 -13s53.667 1 84 6s60.5 12.667 90.5 23s59.167 22.666 87.5 36.999s53.833 30.5 76.5 48.5c58.667 47.333 99.834 100.333 123.501 159s30 116.5 19 173.5s-39.667 109.833 -86 158.5
s-109.833 86.334 -190.5 113.001z" />
    <glyph glyph-name="E" unicode="E" horiz-adv-x="805" 
d="M959 637c1.33301 -8.66699 -1.82324 -13.498 -9.49023 -14.498s-15.167 -0.166992 -22.5 2.5c-14.667 2.66699 -33.834 5.5 -57.501 8.5s-49 5.5 -76 7.5s-54.333 3.66699 -82 5s-52.834 2 -75.501 2c-40.667 -40 -80.167 -85 -118.5 -135s-72.833 -99 -103.5 -147
c26.667 2 55.667 3.66699 87 5s62.666 2.16602 93.999 2.49902s62.333 0.166016 93 -0.500977s59 -2 85 -4c9.33301 -1.33301 14.166 -5 14.499 -11s-4.5 -9 -14.5 -9c-16 0 -35 -0.5 -57 -1.5s-45.333 -2.16699 -70 -3.5s-49.667 -3 -75 -5s-49.833 -4.16699 -73.5 -6.5
s-45.334 -5 -65.001 -8s-35.834 -6.16699 -48.501 -9.5l-28 -51.5c-10 -19 -19.333 -39.333 -28 -61s-16 -44.167 -22 -67.5s-9.33301 -47 -10 -71c0 -18 3.66699 -33 11 -45s16.833 -21.333 28.5 -28s24.667 -11 39 -13s28.5 -2.33301 42.5 -1
c20 1.33301 43.167 4.66602 69.5 9.99902s53.833 12.166 82.5 20.499s57.667 18.333 87 30s56.666 24.834 81.999 39.501c7.33301 4 11.5 3.66699 12.5 -1s-0.833008 -8.33398 -5.5 -11.001c-24 -19.333 -50.167 -36.333 -78.5 -51s-57 -27 -86 -37s-57.667 -17.667 -86 -23
s-54.5 -8 -78.5 -8c-8.66699 0 -20.834 1.83301 -36.501 5.5s-31.5 10 -47.5 19s-30.333 21.333 -43 37s-20 35.5 -22 59.5c-1.33301 18 0.166992 38.167 4.5 60.5s10.166 44.166 17.499 65.499s15.333 41.666 24 60.999s17 35 25 47c-5.33301 0 -11 0.333008 -17 1
s-10.667 3.66699 -14 9c-2 1.33301 -4.33301 3.5 -7 6.5s-4.83398 6.33301 -6.50098 10s-2.5 7.16699 -2.5 10.5c0 4 1.66699 7.66699 5 11c2.66699 2.66699 7 4.66699 13 6s12.667 2.5 20 3.5l21.5 3c7 1 13.167 2.16699 18.5 3.5l100 143.5
c34.667 47.667 70.667 94.167 108 139.5c-28 0 -58.5 -1.83301 -91.5 -5.5s-66.5 -9.33398 -100.5 -17.001s-67.667 -17.667 -101 -30s-64.333 -27.166 -93 -44.499c-35.333 -24 -66 -53.667 -92 -89s-40.667 -76.666 -44 -123.999
c-2 -34.667 2.16699 -68.334 12.5 -101.001s25.166 -63.667 44.499 -93c4.66699 -8 4.83398 -13.167 0.500977 -15.5s-9.16602 0.166992 -14.499 7.5c-9.33301 12.667 -18 26.834 -26 42.501s-15 32.334 -21 50.001s-11 35.834 -15 54.501s-6 37 -6 55
c-2 52 9.16699 97 33.5 135s61.166 73.667 110.499 107c32 20.667 64.833 37.667 98.5 51s68.5 23.833 104.5 31.5s73.5 13.334 112.5 17.001s80.167 6.83398 123.5 9.50098c6.66699 7.33301 12.667 13.5 18 18.5s11 9.83301 17 14.5c4 2.66699 7 2.5 9 -0.5
s4 -7.16699 6 -12.5s5 -10.333 9 -15s10.333 -7 19 -7c49.333 -0.666992 94.5 -3.33398 135.5 -8.00098s77.833 -9.66699 110.5 -15c14.667 -4.66699 22 -13.667 22 -27z" />
    <glyph glyph-name="F" unicode="F" horiz-adv-x="870" 
d="M982 734c-7.33301 6.66699 -9.1709 10.3301 -5.50391 10.9971s8.16699 -0.666016 13.5 -3.99902c16.667 -9.33301 29.167 -22 37.5 -38s11.833 -32.167 10.5 -48.5s-8.16602 -31 -20.499 -44s-30.5 -20.833 -54.5 -23.5c-37.333 -4.66699 -75.5 -3.16699 -114.5 4.5
s-78.833 18.167 -119.5 31.5s-82.334 28 -125.001 44s-86.5 30 -131.5 42s-91 20.667 -138 26s-95.5 4.33301 -145.5 -3c-35.333 -6 -64.5 -20.167 -87.5 -42.5s-40 -49.666 -51 -81.999s-16.667 -67.5 -17 -105.5s4.5 -75.167 14.5 -111.5s24.667 -70 44 -101
s43.333 -55.833 72 -74.5c22 -13.333 45.833 -21 71.5 -23s50.334 1.16699 74.001 9.5s45 21.5 64 39.5s32.5 40.333 40.5 67c0.666992 2 3.33398 3.33301 8.00098 4s7 -0.666016 7 -3.99902c-4 -27.333 -15.833 -51 -35.5 -71s-42.5 -35.5 -68.5 -46.5
s-52.667 -16.833 -80 -17.5s-50.333 4.66602 -69 15.999c-38 24 -69.5 54 -94.5 90s-43.167 74.833 -54.5 116.5s-16 83.834 -14 126.501s11 82.667 27 120c14.667 34 34.834 60.667 60.501 80s55 32.833 88 40.5s68.333 10.667 106 9s76 -6.5 115 -14.5
s77.333 -18.167 115 -30.5s73.167 -24.833 106.5 -37.5c66 -26 125.667 -45.667 179 -59s97.333 -20 132 -20c35.333 0 59.833 6.83301 73.5 20.5s13.834 34.5 0.500977 62.5c-4 9.33301 -8.83301 17 -14.5 23s-12.167 12 -19.5 18zM711.995 614.996
c4 3.33301 7.66406 4.33594 10.9971 3.00293s6 -3.66602 8 -6.99902s2.83301 -7.5 2.5 -12.5s-2.5 -9.83301 -6.5 -14.5c-4 -5.33301 -11.333 -14.5 -22 -27.5s-22.334 -28.667 -35.001 -47s-25.667 -38.5 -39 -60.5s-24.666 -44.333 -33.999 -67
c-2.66699 -6.66699 -3.5 -10.667 -2.5 -12s5.16699 -2.66602 12.5 -3.99902c16 -2.66699 34.167 -4.33398 54.5 -5.00098s40.5 -1 60.5 -1s38.333 0.166992 55 0.5s29.334 0.5 38.001 0.5c10 0 14.667 -1.33301 14 -4s-5.66699 -4.66699 -15 -6
c-8.66699 -2.66699 -22.667 -4.66699 -42 -6s-40.166 -2.16602 -62.499 -2.49902l-65.5 -1c-21.333 -0.333008 -38.333 -0.833008 -51 -1.5c-7.33301 0 -12.666 -1.5 -15.999 -4.5s-6 -8.16699 -8 -15.5l-24.5 -66.5c-8.33301 -23.667 -15.666 -47.334 -21.999 -71.001
s-11.333 -46.667 -15 -69s-4.83398 -42.5 -3.50098 -60.5c0 -4 0.666992 -6.66699 2 -8s2.66602 -2.5 3.99902 -3.5s2.5 -2.33301 3.5 -4s1.16699 -4.83398 0.5 -9.50098c-4 -14 -10 -22.667 -18 -26s-12.667 2 -14 16c-2 12.667 -1.5 31.167 1.5 55.5s7.33301 51 13 80
s12.5 58.167 20.5 87.5s16.333 55.666 25 78.999c2.66699 7.33301 1.33398 12.333 -3.99902 15s-11 4 -17 4c-4 0 -7.66699 -0.5 -11 -1.5s-6.16602 -2 -8.49902 -3s-4 -1.33301 -5 -1s-1.16699 1.83301 -0.5 4.5c1.33301 7.33301 5.66602 13 12.999 17
s18.666 7.66699 33.999 11c7.33301 2 12.833 4 16.5 6s7.5 7.66699 11.5 17c10.667 21.333 22.834 44.333 36.501 69l43.5 75c6.66699 9.33301 7 13.666 1 12.999s-13.667 -3 -23 -7c-4.66699 -2 -8 -2.83301 -10 -2.5s-3 1.16602 -3 2.49902c0 2 0.666992 4 2 6
s3.33301 3.33301 6 4c17.333 8 34 19 50 33z" />
    <glyph glyph-name="G" unicode="G" horiz-adv-x="857" 
d="M244 -91c39.333 43.333 113.997 80.6602 223.997 111.993c20 5.33301 52 12.833 96 22.5s100.333 20.834 169 33.501c11.333 26.667 25.333 57.5 42 92.5l57 120.5c3.33301 7.33301 5 12.333 5 15c0 1.33301 -0.333008 2 -1 2s-4.66699 -2.66699 -12 -8
c-42 -30 -86.167 -59 -132.5 -87s-96.166 -54.667 -149.499 -80c-64.667 -30.667 -123.334 -53.5 -176.001 -68.5s-100 -22.833 -142 -23.5c-28 -1.33301 -53.333 1.16699 -76 7.5s-42.667 15.5 -60 27.5c-37.333 26 -56 64 -56 114c0 12 1 24.667 3 38
s5.33301 26.666 10 39.999c42.667 131.333 158.667 250 348 356c183.333 102 356 148 518 138c42 -2 78.667 -17.333 110 -46c29.333 -26.667 50 -59.667 62 -99c2 -3.33301 3 -6.66602 3 -9.99902s-1.66699 -4.66602 -5 -3.99902c-2.66699 0.666992 -5 3.33398 -7 8.00098
c-5.33301 12.667 -11.333 23.834 -18 33.501s-13.667 18.5 -21 26.5c-29.333 30 -69.666 47.667 -120.999 53c-7.33301 0.666992 -14.666 1 -21.999 1h-22c-156 0 -318.333 -48 -487 -144c-172.667 -98 -278 -204 -316 -318c-10 -31.333 -15 -58.666 -15 -81.999
c0 -38 13.833 -66.833 41.5 -86.5s69.834 -29.834 126.501 -30.501c45.333 -0.666992 98.333 8.16602 159 26.499s129.667 46.833 207 85.5c64.667 32 119.167 61.833 163.5 89.5s78.166 52.834 101.499 75.501c0.666992 0.666992 2.33398 2.66699 5.00098 6
c26.667 62.667 48 104.334 64 125.001l19.5 17l27.5 24c2 2 3.66699 3 5 3c4 0 6.66699 -4.33301 8 -13c1.33301 -9.33301 1 -17 -1 -23c-12 -47.333 -27 -80.333 -45 -99c-1.33301 -1.33301 -4 -2.5 -8 -3.5s-8.66699 -2.5 -14 -4.5
c-4.66699 -8 -15.167 -28.167 -31.5 -60.5l-68.5 -135.5c11.333 -11.333 20.666 -29.333 27.999 -54c-3.33301 -5.33301 -7.66602 -11.166 -12.999 -17.499l-17 -20.5c-4 -2 -21 -7.33301 -51 -16c-90.667 -162.667 -166.334 -263.667 -227.001 -303
c-67.333 -45.333 -123.666 -68.666 -168.999 -69.999c-50 -1.33301 -89.333 10 -118 34c-26 22 -39 50.667 -39 86c0 34 12.667 65.333 38 94zM634.997 41.9941l-105.999 -27.001c-32.667 -8.66699 -63 -18 -91 -28c-82.667 -30 -143 -61.667 -181 -95
c-27.333 -25.333 -41 -53.666 -41 -84.999c0 -26 11.333 -48 34 -66c26.667 -17.333 63.667 -25.666 111 -24.999c59.333 2 114 23 164 63c57.333 45.333 123.666 139.666 198.999 282.999zM805.998 162.993c-4 -9.33301 -9.33203 -20.333 -15.999 -33s-14 -27.667 -22 -45
c5.33301 1.33301 10.833 3.5 16.5 6.5l19.5 10.5c8 6 12.333 15.333 13 28c1.33301 13.333 -2.33398 24.333 -11.001 33z" />
    <glyph glyph-name="H" unicode="H" horiz-adv-x="1092" 
d="M1330 756c-27.333 -30.667 -54.9932 -64.1592 -82.9932 -100.492s-54.833 -73.5 -80.5 -111.5s-49.5 -75.667 -71.5 -113s-40.667 -72.333 -56 -105c7.33301 0 14.666 0.333008 21.999 1s13.666 0.333984 18.999 -0.999023c4.66699 -1.33301 7.66699 -3.33301 9 -6
s1.5 -5.16699 0.5 -7.5s-3 -4.5 -6 -6.5s-6.83301 -2.33301 -11.5 -1c-6 0.666992 -12.5 0.666992 -19.5 0s-15.167 -1 -24.5 -1c-6 -12 -13.667 -28.333 -23 -49s-18.333 -43.5 -27 -68.5s-16 -50.833 -22 -77.5s-8.66699 -51.667 -8 -75
c0 -9.33301 3.66699 -15.5 11 -18.5s13.666 -2.83301 18.999 0.5c4.66699 2.66699 7.66699 2.66699 9 0s0.666016 -6.33398 -2.00098 -11.001c-2.66699 -3.33301 -7.33398 -7.33301 -14.001 -12c-4 -1.33301 -8.33301 -1 -13 1s-9 5 -13 9s-7.66699 8.66699 -11 14
s-5.33301 10 -6 14c-3.33301 18 -3.66602 38.833 -0.999023 62.5s7.16699 48 13.5 73s13.833 49.667 22.5 74s17.334 45.5 26.001 63.5c-14.667 0 -34 -0.333008 -58 -1s-49.167 -1.5 -75.5 -2.5s-52.333 -2.33301 -78 -4s-47.5 -3.83398 -65.5 -6.50098
c-35.333 -48 -72.833 -94.833 -112.5 -140.5s-81.167 -88 -124.5 -127s-88.333 -73.5 -135 -103.5s-94.334 -53 -143.001 -69c-32.667 -10 -60.834 -14.667 -84.501 -14s-43 5.16699 -58 13.5s-25.833 19.166 -32.5 32.499s-9 27.333 -7 42c2 12.667 6 25.667 12 39
s13.167 26 21.5 38s17 23.167 26 33.5s17.5 19.166 25.5 26.499c5.33301 5.33301 9.66602 6.83301 12.999 4.5s2.33301 -6.16602 -3 -11.499c-6 -7.33301 -12.5 -15.833 -19.5 -25.5s-13.667 -20.334 -20 -32.001s-11.833 -23.834 -16.5 -36.501
s-7.66699 -25.334 -9 -38.001c-2 -20 0.166992 -35.167 6.5 -45.5s16.333 -17 30 -20s30 -2.83301 49 0.5s39.833 8.66602 62.5 15.999c41.333 14.667 84 37 128 67s86.5 64 127.5 102s79.667 78 116 120s67.833 82.667 94.5 122
c-5.33301 -0.666992 -12.5 -1.83398 -21.5 -3.50098s-17.167 -2.5 -24.5 -2.5c-6 0 -11.333 2.16699 -16 6.5s-8 9.16602 -10 14.499s-2.33301 10.333 -1 15s5.33301 7.33398 12 8.00098c11.333 2 24.666 2.83301 39.999 2.5s31 0.166992 47 1.5
c9.33301 11.333 19 25.666 29 42.999s19.5 35.333 28.5 54s17 37.167 24 55.5s12.167 34.166 15.5 47.499c6.66699 34.667 7.5 64.667 2.5 90s-15.833 45.5 -32.5 60.5s-39 24.333 -67 28s-61.333 0.833984 -100 -8.49902c-64 -16 -126.667 -45.167 -188 -87.5
s-117.333 -92.833 -168 -151.5c0 -8.66699 -0.666992 -14.667 -2 -18s-3.33301 -7 -6 -11c-5.33301 -7.33301 -12.333 -15.333 -21 -24s-17.334 -15.667 -26.001 -21c-4 -2.66699 -7.83301 -2.5 -11.5 0.5s-6.5 7.16699 -8.5 12.5s-3.16699 11.166 -3.5 17.499
s1.16699 11.5 4.5 15.5c24 36.667 53.167 71.334 87.5 104.001s70.666 62 108.999 88s76.833 47.833 115.5 65.5s74.667 30.167 108 37.5c43.333 8.66699 81.333 10.167 114 4.5s59.334 -17.5 80.001 -35.5s35 -41.333 43 -70s9.33301 -61.667 4 -99
c-2 -15.333 -6 -32.166 -12 -50.499s-12.667 -36.5 -20 -54.5s-15.333 -35 -24 -51s-17 -30 -25 -42c14.667 0.666992 33.5 0.833984 56.5 0.500977s47.167 -0.666016 72.5 -0.999023s50 -0.5 74 -0.5s44 0.333008 60 1c12 26 26.833 54.333 44.5 85l55 91l55.5 85
c18 26.667 33.667 48.667 47 66c3.33301 4 4 7.16699 2 9.5s-5.66699 2.5 -11 0.5c-3.33301 -0.666992 -5.83301 0.166016 -7.5 2.49902s-1.16699 4.83301 1.5 7.5c8 9.33301 17.167 19.5 27.5 30.5l31.5 32.5l30.5 30c9.66699 9.33301 17.834 17.666 24.501 24.999
c3.33301 3.33301 7 4.16602 11 2.49902s7.66699 -4.5 11 -8.5s5.83301 -8.83301 7.5 -14.5s2.16699 -10.5 1.5 -14.5z" />
    <glyph glyph-name="I" unicode="I" horiz-adv-x="557" 
d="M757 739c-30 -65.333 -62.9951 -132.996 -98.9951 -202.996s-74.5 -137 -115.5 -201s-83.833 -122.5 -128.5 -175.5s-90.334 -94.5 -137.001 -124.5c-18 -12 -37 -21.333 -57 -28s-39.167 -10.834 -57.5 -12.501s-35.666 -0.833984 -51.999 2.49902
s-30.166 9.33301 -41.499 18c-7.33301 6.66699 -13.333 16.334 -18 29.001s-8.33398 24.667 -11.001 36c-2 6 -0.666992 9.66699 4 11s7.66699 -1 9 -7c3.33301 -11.333 8.5 -21.833 15.5 -31.5s14.5 -17.834 22.5 -24.501c8.66699 -7.33301 19.5 -12.333 32.5 -15
s27.333 -3.33398 43 -2.00098s32 5 49 11s33.5 14.333 49.5 25c28 19.333 56 44.166 84 74.499s55.333 64.166 82 101.499s52.667 77 78 119s49.166 84.5 71.499 127.5s43.166 85 62.499 126s36.333 79.167 51 114.5c-40 -7.33301 -80 -17.333 -120 -30
s-78.167 -26.834 -114.5 -42.501s-70.5 -32.667 -102.5 -51s-60.333 -36.833 -85 -55.5c-16.667 -13.333 -33.167 -28.833 -49.5 -46.5s-27.166 -39.5 -32.499 -65.5c-2.66699 -13.333 -2.33398 -26 0.999023 -38s6.66602 -21.667 9.99902 -29
c1.33301 -3.33301 1.16602 -6 -0.500977 -8s-3.83398 -1.33301 -6.50098 2c-6 7.33301 -11 18 -15 32s-6.33301 27.333 -7 40c-1.33301 23.333 5.33398 45.666 20.001 66.999s35.334 43.333 62.001 66c22.667 19.333 50.667 38.5 84 57.5s69.666 37 108.999 54
s81.166 32.5 125.499 46.5s89.166 26 134.499 36c10.667 3.33301 18 7.33301 22 12c2.66699 2.66699 6 3.83398 10 3.50098s7.5 -1.66602 10.5 -3.99902s5.33301 -5.16602 7 -8.49902s1.83398 -6.33301 0.500977 -9z" />
    <glyph glyph-name="J" unicode="J" horiz-adv-x="664" 
d="M892 744l-62.9941 -131.499l-68.5 -136l-67.5 -129l-58 -109.5c-2.66699 -5.33301 -3.5 -10.166 -2.5 -14.499s3.83301 -6.5 8.5 -6.5c5.33301 0 7.83301 -1.66699 7.5 -5s-3.16602 -5.66602 -8.49902 -6.99902c-2.66699 -0.666992 -7 -2.16699 -13 -4.5l-17 -6.5
c-36.667 -62.667 -74.667 -123.834 -114 -183.501s-82.666 -117.5 -129.999 -173.5c-24 -28 -49.833 -55 -77.5 -81s-57.334 -50 -89.001 -72s-65.5 -41.5 -101.5 -58.5s-75 -30.5 -117 -40.5c-30 -7.33301 -55.667 -8 -77 -2s-36.833 17 -46.5 33
s-12.834 36.167 -9.50098 60.5s15 51.166 35 80.499c22 32.667 49.667 65 83 97s69.666 62.833 108.999 92.5s81.166 57.834 125.499 84.501s88.5 51.167 132.5 73.5s87 42 129 59s81 31.167 117 42.5l66.5 128l67 132l61.5 126c19.333 40.667 36 77.334 50 110.001
c-44 0 -88.333 -5.83301 -133 -17.5s-87.167 -28.834 -127.5 -51.501s-77.5 -49.834 -111.5 -81.501s-63 -67.5 -87 -107.5c-10 -16 -19.667 -33.833 -29 -53.5s-16.5 -40.334 -21.5 -62.001s-7.16699 -43.5 -6.5 -65.5s6 -43 16 -63
c3.33301 -5.33301 3.66602 -8.83301 0.999023 -10.5s-5.66699 0.5 -9 6.5c-9.33301 16.667 -16.5 35.834 -21.5 57.501s-7.33301 44.5 -7 68.5s3.66602 48.167 9.99902 72.5s15.833 47.5 28.5 69.5c22 38 48.167 70.5 78.5 97.5s62.166 50 95.499 69s67 34.5 101 46.5
s66 21.833 96 29.5s56.5 13.667 79.5 18s40.167 8.5 51.5 12.5c9.33301 1.33301 17.166 4.16602 23.499 8.49902s11.5 8.83301 15.5 13.5c2.66699 2.66699 5.66699 3.66699 9 3s6.5 -2 9.5 -4s5.16699 -4.33301 6.5 -7s1.33301 -5 0 -7zM571.006 186.001
c-56 -18.667 -115.335 -43 -178.002 -73s-124 -64.333 -184 -103s-116.167 -80.667 -168.5 -126s-96.166 -92.333 -131.499 -141c-20 -28 -32.333 -52.333 -37 -73s-3.16699 -37 4.5 -49s20.5 -19.667 38.5 -23s39.667 -1.66602 65 5.00098
c40 10.667 77.333 24.834 112 42.501s67 37.667 97 60s57.833 46.166 83.5 71.499s49.5 50.666 71.5 75.999c16.667 18.667 35.334 42.5 56.001 71.5l62.5 91l60 93z" />
    <glyph glyph-name="K" unicode="K" horiz-adv-x="726" 
d="M371 190c-2.66699 -2.66699 -4.50098 -5.50586 -5.50098 -8.50586s-1.5 -5.5 -1.5 -7.5c0 -4 1.66699 -6 5 -6c2.66699 0 8 3.33301 16 10c17.333 17.333 42 40 74 68c4 23.333 9.33301 37 16 41c6 2.66699 11.667 0 17 -8c44 37.333 87.833 71.833 131.5 103.5
s87.5 61.5 131.5 89.5c130 78.667 232 115.334 306 110.001c11.333 -1.33301 17 -4.33301 17 -9c0 -5.33301 -5.66699 -7 -17 -5c-40 2.66699 -87.333 -6.66602 -142 -27.999s-116.667 -56 -186 -104c-48.667 -32.667 -125 -93.667 -229 -183
c19.333 -56.667 36.833 -105 52.5 -145s29.5 -73.333 41.5 -100c31.333 -66 63 -120.5 95 -163.5s65.333 -74.833 100 -95.5c24 -14.667 49.667 -22 77 -22c58.667 0 110.667 24.667 156 74c7.33301 6 12.333 9 15 9c2 0 3 -1.66699 3 -5s-2.66699 -8 -8 -14
c-56 -52 -112.333 -78 -169 -78c-29.333 0 -57.666 6.66699 -84.999 20c-101.333 46 -205.666 209.667 -312.999 491c-8 -3.33301 -20.5 -13.166 -37.5 -29.499s-38.833 -39.833 -65.5 -70.5c-51.333 -58 -83.666 -98 -96.999 -120c-2 -4 -6.66699 -6 -14 -6
c-11.333 0 -17 3 -17 9c0 2.66699 0.666992 4.66699 2 6c18 25.333 41.167 61.166 69.5 107.499l101.5 174.5c88 156.667 143 267.334 165 332.001c4 10 6 21 6 33c0 36.667 -19 56 -57 58c-31.333 2.66699 -68.833 -4.5 -112.5 -21.5s-93.834 -44.5 -150.501 -82.5
c-113.333 -73.333 -181 -141.666 -203 -204.999c-2.66699 -8 -4 -14.667 -4 -20c0 -11.333 6.66699 -19.333 20 -24c8.66699 -4.66699 21.667 -7 39 -7c8.66699 -2 13 -4.33301 13 -7c0 -4.66699 -3.66699 -7 -11 -7c-11.333 -2 -20.833 -3.5 -28.5 -4.5
s-13.167 -0.5 -16.5 1.5l-12 10c-4.66699 4 -9 8.66699 -13 14s-7 11.166 -9 17.499s-2.33301 13.5 -1 21.5c0.666992 1.33301 1 3.33301 1 6s0.333008 4.66699 1 6c24.667 72.667 96.667 147.334 216 224.001c56.667 38 107.167 65.5 151.5 82.5
s82.166 24.833 113.499 23.5c28 -2 50 -19.667 66 -53c8 -13.333 13.5 -25.666 16.5 -36.999s3.83301 -21.666 2.5 -30.999c-6 -59.333 -83.667 -204.333 -233 -435z" />
    <glyph glyph-name="L" unicode="L" horiz-adv-x="791" 
d="M23 156c-1.33301 10 6.33691 21.667 23.0039 35c7.33301 5.33301 13.666 9.66602 18.999 12.999s10.666 5.66602 15.999 6.99902c3.33301 0.666992 7 1.16699 11 1.5s7.66699 0.5 11 0.5c34 0 82.667 -13 146 -39c4 -2 17 -8 39 -18l94 -44
c40 107.333 73.333 190 100 248c31.333 72 61.333 132.333 90 181s55.667 86.334 81 113.001c7.33301 7.33301 16 14.666 26 21.999s22.333 15.333 37 24c18 9.33301 34.667 16.666 50 21.999s29.666 8 42.999 8c40 1.33301 76.167 -13 108.5 -43s57.5 -73 75.5 -129
c0.666992 -2 1.33398 -3.83301 2.00098 -5.5s1 -3.16699 1 -4.5c0 -6 -2 -9 -6 -9s-7.33301 3.66699 -10 11c-8 21.333 -18.333 41.166 -31 59.499s-27.334 35.5 -44.001 51.5c-32.667 32 -65.334 49.333 -98.001 52c-42 4 -86.667 -20.667 -134 -74
c-51.333 -57.333 -109.333 -156.666 -174 -297.999c-9.33301 -20 -22.166 -49.667 -38.499 -89l-60.5 -150l79.5 -43l79.5 -44c49.333 -26 96.166 -49.333 140.499 -70s86.5 -39 126.5 -55c112 -43.333 206.667 -66 284 -68c60.667 -1.33301 111.667 14 153 46
c8.66699 6.66699 17.167 15.667 25.5 27s15.833 23.833 22.5 37.5s12.167 28.334 16.5 44.001s7.16602 31.5 8.49902 47.5c2 11.333 4.33301 17 7 17c4 0 6 -6 6 -18c0 -29.333 -7.33301 -62.333 -22 -99c-15.333 -35.333 -32.333 -60 -51 -74
c-6 -3.33301 -14 -7.16602 -24 -11.499s-22.667 -8.5 -38 -12.5c-17.333 -5.33301 -34.5 -9 -51.5 -11s-33.833 -3.33301 -50.5 -4c-76.667 -2 -175.5 18.333 -296.5 61s-264.167 107.334 -429.5 194.001c-10 -30.667 -27.333 -56.334 -52 -77.001
c-23.333 -21.333 -47.666 -32.666 -72.999 -33.999c-51.333 -1.33301 -103.333 23.667 -156 75c-52 47.333 -79.333 89.333 -82 126zM262.003 -32c49.333 -1.33301 84.332 34 104.999 106c-122 58.667 -213.667 92.667 -275 102c-25.333 3.33301 -38 -4 -38 -22
c0 -6 1.66699 -13.333 5 -22c18.667 -44 49.334 -82.667 92.001 -116c40 -31.333 77 -47.333 111 -48z" />
    <glyph glyph-name="M" unicode="M" horiz-adv-x="1178" 
d="M483 414c-91.333 -180.667 -173.996 -310.994 -247.996 -390.994c-2 -2.66699 -5.5 -5.83398 -10.5 -9.50098s-11.167 -7.16699 -18.5 -10.5c-14.667 -8.66699 -25 -13 -31 -13c-5.33301 0 -8 7.33301 -8 22c0 39.333 36 106 108 200c28.667 38 58.5 74.167 89.5 108.5
s63.5 67.833 97.5 100.5c14.667 28 28 56.5 40 85.5s23 58.5 33 88.5c18 56 27 96 27 120c0 22.667 -5.16699 38 -15.5 46s-27.833 10.667 -52.5 8c-72 -8 -165.667 -57.333 -281 -148c-120 -94 -180 -170.333 -180 -229c0 -10.667 8.33301 -19 25 -25
c17.333 -5.33301 28.666 -7.33301 33.999 -6c9.33301 1.33301 14 0.666016 14 -2.00098s-5.33301 -5.66699 -16 -9c-10.667 -4 -22 -4 -34 0c-7.33301 2.66699 -15 9.66699 -23 21s-12 23.666 -12 36.999c0 41.333 30.667 93.333 92 156
c56.667 56.667 122.667 107.334 198 152.001c76.667 46 136.667 70.667 180 74c20 0.666992 40.667 -7 62 -23c21.333 -16.667 31.666 -34 30.999 -52c-1.33301 -28 -8.33301 -62.833 -21 -104.5s-30.667 -89.834 -54 -144.501c84.667 74 143.667 111 177 111
c13.333 0 25 -5.5 35 -16.5s14.333 -22.833 13 -35.5c-10 -78.667 -56.333 -203.334 -139 -374.001c-5.33301 -11.333 -3 -17 7 -17c5.33301 0 10 3.33301 14 10c64 84.667 152 182 264 292c139.333 134 237.666 202.667 294.999 206
c17.333 1.33301 31.333 -8.33398 42 -29.001c9.33301 -18.667 14 -37.334 14 -56.001c0 -11.333 -1.66699 -18.666 -5 -21.999l-93.5 -151.5c-25 -41.667 -44.167 -74.5 -57.5 -98.5c-67.333 -122.667 -107 -223.667 -119 -303c-0.666992 -2.66699 -1 -5 -1 -7v-7
c0 -26 10.333 -36.667 31 -32c9.33301 2.66699 20.5 7.5 33.5 14.5s27.833 16.833 44.5 29.5c31.333 24 54.666 45.667 69.999 65c6 8 10.667 12 14 12c2 0 3 -1 3 -3c0 -4 -2.66699 -9.66699 -8 -17c-14 -20.667 -35.667 -43.334 -65 -68.001
c-17.333 -15.333 -33.5 -27.333 -48.5 -36s-29.167 -15 -42.5 -19c-11.333 -3.33301 -22 3 -32 19c-10.667 16 -16 32.333 -16 49c-0.666992 58.667 28.666 150.667 87.999 276c24 49.333 50 99.333 78 150s58.667 102 92 154c5.33301 7.33301 9 14.166 11 20.499
s3 11.833 3 16.5c0 14.667 -10 22 -30 22c-8.66699 0 -18 -1.33301 -28 -4c-59.333 -15.333 -154.666 -87.666 -285.999 -216.999c-115.333 -113.333 -217 -228 -305 -344c-6.66699 -8.66699 -17 -13 -31 -13c-10.667 0 -16 3.33301 -16 10c0 1.33301 0.166992 2.5 0.5 3.5
l1.5 4.5c58 110 103.167 203.667 135.5 281s52.833 139 61.5 185c2.66699 22 -5 33 -23 33c-26 0 -63.333 -19 -112 -57c-41.333 -31.333 -73.333 -61 -96 -89zM223.004 35.0059c15.333 17.333 33.165 40.167 53.498 68.5s42.833 62.166 67.5 101.499
c50.667 78.667 83.334 136.334 98.001 173.001c-38.667 -33.333 -81 -81 -127 -143c-54.667 -72 -91 -133.333 -109 -184c-7.33301 -18 -6.66602 -27 2.00098 -27c4.66699 0 9.66699 3.66699 15 11z" />
    <glyph glyph-name="N" unicode="N" horiz-adv-x="908" 
d="M549 733c29.333 -1.33301 52.332 -15.0029 68.999 -41.0029c15.333 -21.333 23 -49.666 23 -84.999c0 -15.333 -1.66699 -30.666 -5 -45.999c-9.33301 -36 -29.166 -84.833 -59.499 -146.5s-72.166 -137.167 -125.499 -226.5c-4.66699 -7.33301 -7 -13.333 -7 -18
c0 -2.66699 1.33301 -4 4 -4c4.66699 0 10 5.33301 16 16c27.333 34.667 57.5 70 90.5 106s69.5 73.333 109.5 112c108 106 191.333 163.667 250 173c9.33301 2 17.333 0.5 24 -4.5s13.667 -11.833 21 -20.5c9.33301 -10.667 14.666 -20.5 15.999 -29.5s2 -18.167 2 -27.5
c0 -4 -0.166992 -8 -0.5 -12s-1.16602 -7.33301 -2.49902 -10l-72 -131.5l-71 -131.5c-12 -22 -27.167 -52 -45.5 -90l-57.5 -125l-59.5 -139.5c-19.667 -47.667 -36.667 -92.167 -51 -133.5s-25 -77.166 -32 -107.499s-7.83301 -50.833 -2.5 -61.5
c1.33301 -3.33301 1.33301 -6.83301 0 -10.5s-2 -7.16699 -2 -10.5c0 -20 5.33301 -30 16 -30c28 0 76.667 34.333 146 103c8 8 13 12 15 12c1.33301 -1.33301 2 -2.66602 2 -3.99902c0 -2.66699 -3 -8.33398 -9 -17.001c-11.333 -18.667 -33.333 -41.334 -66 -68.001
c-35.333 -28 -62 -42 -80 -42c-7.33301 0 -13.666 2.33301 -18.999 7s-10 10.334 -14 17.001s-7 14 -9 22s-3 15.667 -3 23c0.666992 10.667 5.16699 31.167 13.5 61.5s19.166 66 32.499 107l45 132l50.5 137l48.5 122.5c15.333 37.333 28.333 67 39 89l145 294
c7.33301 14 11 26.667 11 38c0 14 -7.66699 21 -23 21c-10 0 -22 -3 -36 -9c-59.333 -25.333 -131 -77 -215 -155c-34 -32.667 -67.333 -67 -100 -103s-65.334 -74.667 -98.001 -116l-68.5 -89c-18.333 -24.667 -32.5 -45.334 -42.5 -62.001
c-7.33301 -10.667 -15.666 -16 -24.999 -16c-8.66699 0 -13 3.66699 -13 11c0 2 0.5 4.16699 1.5 6.5l3.5 8.5c162 266.667 257.333 445.334 286 536.001c3.33301 10.667 5.83301 21 7.5 31s2.5 19.667 2.5 29c0 55.333 -24.333 85 -73 89
c-46 2.66699 -110.667 -19.333 -194 -66c-42 -24.667 -80.667 -50.334 -116 -77.001s-68.333 -56 -99 -88c-66.667 -68.667 -100 -128 -100 -178c0 -18 8.66699 -28.667 26 -32c10 -2 20.167 -3.16699 30.5 -3.5s20.166 0.5 29.499 2.5c8 1.33301 12 0 12 -4
c0 -3.33301 -4 -6 -12 -8c-23.333 -7.33301 -43.333 -9.33301 -60 -6c-32 6 -47 31 -45 75c2 42.667 34.333 97.334 97 164.001c31.333 34 64.5 64.833 99.5 92.5s72.167 53.167 111.5 76.5c44 24.667 84 43 120 55s68.333 17.333 97 16z" />
    <glyph glyph-name="O" unicode="O" horiz-adv-x="785" 
d="M53 319c16.667 64.667 56.333 127.665 119 188.998c-2.66699 8.66699 -4 18.334 -4 29.001c0 37.333 17.333 77 52 119c40 46 91.667 82.333 155 109c60.667 24 123.667 36 189 36c26 0 51 -2 75 -6c78.667 -12 140.667 -51.667 186 -119c38.667 -54.667 58 -112 58 -172
c0 -4.66699 -0.166992 -9.16699 -0.5 -13.5s-0.833008 -8.16602 -1.5 -11.499c-7.33301 -49.333 -21.5 -96 -42.5 -140s-48.833 -86.333 -83.5 -127c-60 -68 -135 -122.667 -225 -164c-82 -38 -160 -55 -234 -51c-68.667 3.33301 -126.667 24 -174 62
c-54 44 -81 101.667 -81 173c0 28 4 57 12 87zM674.999 711.998c6.66699 -0.666992 10.001 -3.00293 10.001 -7.00293c0 -6.66699 -3.66699 -9 -11 -7c-17.333 4 -36 6 -56 6c-80 0 -168.333 -25.667 -265 -77c-84 -43.333 -139 -83.666 -165 -120.999
c1.33301 -11.333 5.66602 -22.166 12.999 -32.499s16.666 -20.166 27.999 -29.499c24.667 -18.667 50.667 -28 78 -28c7.33301 0 11 -2.33301 11 -7c0 -6.66699 -5.33301 -9 -16 -7c-14.667 0.666992 -28.667 3.5 -42 8.5s-26.333 12.167 -39 21.5
c-23.333 18.667 -38.666 38.667 -45.999 60c-9.33301 -8.66699 -19.166 -19.334 -29.499 -32.001s-21.166 -28 -32.499 -46c-21.333 -37.333 -36 -69.333 -44 -96c-3.33301 -14.667 -6 -28.834 -8 -42.501s-3 -27.167 -3 -40.5c0 -62 21 -111.167 63 -147.5
s100.333 -56.166 175 -59.499c78.667 -4 162.667 17.333 252 64c45.333 24 86.5 50.833 123.5 80.5s70.167 62.834 99.5 99.501c64 78.667 96 158 96 238c0 63.333 -18.667 119.333 -56 168c-21.333 27.333 -47.5 48.833 -78.5 64.5s-66.5 26.834 -106.5 33.501
c-9.33301 1.33301 -19 2.33301 -29 3s-19.667 1 -29 1c-65.333 0 -129.333 -13 -192 -39c-60 -24 -108 -55 -144 -93c-32 -34 -48 -67.667 -48 -101c0 -6.66699 0.666992 -13.334 2 -20.001c47.333 47.333 109.666 89.333 186.999 126c88 42.667 169.667 64 245 64
c10 0 19.667 -0.5 29 -1.5s18.666 -2.16699 27.999 -3.5z" />
    <glyph glyph-name="P" unicode="P" horiz-adv-x="768" 
d="M530 267c2.66699 -8 9.66797 -13.665 21.001 -16.998c21.333 -10.667 51 -16 89 -16c35.333 0 67.5 3.33301 96.5 10s54.833 16 77.5 28c52.667 26.667 79 70.334 79 131.001c0 74.667 -35 145.667 -105 213c-38 35.333 -78 67.5 -120 96.5s-86.333 54.167 -133 75.5
c-51.333 23.333 -101.166 40.666 -149.499 51.999s-96.5 17 -144.5 17c-104.667 0 -163.667 -38 -177 -114c-2 -13.333 -3 -26.333 -3 -39c0 -70.667 15 -128.334 45 -173.001c3.33301 -5.33301 5 -9.33301 5 -12l-2 -2c-3.33301 0 -6.66602 2.66699 -9.99902 8
c-19.333 17.333 -35 45.333 -47 84c-10 32.667 -15 66.334 -15 101.001c0 12 1 23 3 33c5.33301 36.667 28.666 67.667 69.999 93c47.333 28.667 102.666 41 165.999 37c54 -2.66699 107.167 -11.167 159.5 -25.5s104.833 -34.166 157.5 -59.499
c40 -20 77.667 -41.833 113 -65.5s69 -50.167 101 -79.5c85.333 -74 128 -151.667 128 -233c0 -73.333 -39 -125.333 -117 -156c-53.333 -22 -117.333 -33 -192 -33c-15.333 0 -30 0.666992 -44 2s-26.333 3.16602 -37 5.49902s-19.334 5.16602 -26.001 8.49902
s-10 7 -10 11c0 5.33301 7 11.666 21 18.999zM164.001 -39.998c-20 10 -35.665 23.6689 -46.998 41.002c-4 6 -6 11 -6 15s1.66699 6 5 6c2.66699 0 7 -3 13 -9c11.333 -14 26.666 -25 45.999 -33c8 -3.33301 17.167 -4.5 27.5 -3.5s22.166 3.16699 35.499 6.5
c46.667 17.333 115.334 104.666 206.001 261.999c82.667 143.333 141.667 268 177 374c2.66699 2.66699 3.66699 4 3 4c2 0 3.66699 -6 5 -18c1.33301 -12.667 1 -21.334 -1 -26.001c-37.333 -106 -81 -207.667 -131 -305c-82.667 -162 -160.667 -262.667 -234 -302
c-10 -6 -20.833 -10.333 -32.5 -13s-23.834 -4 -36.501 -4c-11.333 0 -21.333 1.66699 -30 5z" />
    <glyph glyph-name="Q" unicode="Q" horiz-adv-x="1066" 
d="M408 557c-3.33301 -6.66699 -6 -9.99902 -8 -9.99902c-1.33301 0 -2.66602 3.33301 -3.99902 10c-1.33301 8.66699 0 18.334 4 29.001c13.333 28 32.666 54.167 57.999 78.5s57 46.166 95 65.499c80.667 44 165.334 64 254.001 60c103.333 -2.66699 184 -35 242 -97
c56 -58 84 -132 84 -222c0 -45.333 -7.33301 -91 -22 -137c-15.333 -47.333 -41.333 -92.5 -78 -135.5s-85.334 -84.5 -146.001 -124.5c-60 -40 -119.333 -69.833 -178 -89.5s-117.334 -29.5 -176.001 -29.5c-24 0 -47 2 -69 6l153 -76.5l100 -47.5
c62.667 -27.333 116.667 -47.666 162 -60.999s82.666 -19.333 111.999 -18c46.667 1.33301 85.667 13 117 35c19.333 14.667 34 31.834 44 51.501s15 43.167 15 70.5c0 22.667 -3.33301 45.334 -10 68.001c-0.666992 3.33301 -1.16699 6 -1.5 8s-0.166016 4 0.500977 6
c0 2.66699 1 3.66699 3 3c4 -2 7.66699 -6 11 -12c3.33301 -4 6.33301 -10 9 -18s5.66699 -18.333 9 -31c6.66699 -24.667 9 -44.667 7 -60c-4 -24 -27 -53 -69 -87c-19.333 -16 -36.666 -28.667 -51.999 -38s-28.666 -14.666 -39.999 -15.999
c-9.33301 -2 -18.5 -3.33301 -27.5 -4s-18.5 -1 -28.5 -1c-74 0 -166.333 23.667 -277 71c-15.333 6.66699 -47.666 22.167 -96.999 46.5l-204 101.5c-60.667 29.333 -113.834 53 -159.501 71s-85.167 31.333 -118.5 40c-5.33301 1.33301 -10.5 2.33301 -15.5 3
s-9.16699 1 -12.5 1c-23.333 0 -35 -9 -35 -27c0 -7.33301 1.66699 -13.666 5 -18.999c1.33301 -5.33301 4.33301 -11.833 9 -19.5s11.667 -15.5 21 -23.5c11.333 -11.333 11.666 -17 0.999023 -17c-11.333 0 -25.333 11.667 -42 35
c-9.33301 11.333 -15.666 21.333 -18.999 30s-4.33301 16.667 -3 24c0.666992 6.66699 11.667 19 33 37c21.333 15.333 36 23.333 44 24c12 0.666992 39.333 -6.33301 82 -21c21.333 -6.66699 40.666 -13.334 57.999 -20.001s32.333 -13.334 45 -20.001
c-30 24.667 -45 70.667 -45 138c0 10.667 0.5 21.167 1.5 31.5s2.16699 20.5 3.5 30.5c16 81.333 61.333 165.666 136 252.999c35.333 39.333 71.333 74.166 108 104.499s76 56.833 118 79.5c6 4 11.333 6 16 6s7 -1.33301 7 -4c0 -4.66699 -4.66699 -9.66699 -14 -15
c-62.667 -33.333 -130 -93.333 -202 -180c-41.333 -48.667 -73.833 -94.334 -97.5 -137.001s-39.5 -82.334 -47.5 -119.001c-4 -23.333 -6 -46.333 -6 -69c0 -123.333 79.333 -183 238 -179c52 1.33301 103.5 8.83301 154.5 22.5s102.5 33.167 154.5 58.5
c128.667 64.667 219 154.334 271 269.001c20.667 45.333 31 90.333 31 135c0 79.333 -27.333 145.666 -82 198.999c-28.667 29.333 -62.167 51.333 -100.5 66s-81.833 23 -130.5 25c-92 2 -176.667 -17 -254 -57c-72 -36.667 -118 -79 -138 -127
c-1.33301 -3.33301 -2.5 -7 -3.5 -11s-2.16699 -8.33301 -3.5 -13z" />
    <glyph glyph-name="R" unicode="R" horiz-adv-x="820" 
d="M455 217c0 14 6.66699 20.9961 20 20.9961c4 0 7.5 -1.5 10.5 -4.5s10.833 -6.5 23.5 -10.5c20.667 -1.33301 43.167 0 67.5 4s51.5 10 81.5 18c59.333 17.333 109 38.333 149 63c70 42.667 105 99 105 169c0 66.667 -29 125 -87 175c-45.333 40.667 -110 73 -194 97
c-82 24 -168.667 36 -260 36c-42 0 -82 -2.66699 -120 -8s-74.333 -13 -109 -23c-65.333 -20 -98 -56 -98 -108c0 -19.333 4.66699 -39.333 14 -60c2.66699 -5.33301 4.83398 -10 6.50098 -14s3.16699 -7.33301 4.5 -10l4 -8c0 -0.666992 -1 -1 -3 -1
s-5.66699 2.66699 -11 8c-20 22 -30 49.333 -30 82c0 60 36 101.667 108 125c70.667 22.667 151 34 241 34c92.667 0 180.334 -11.333 263.001 -34c86 -23.333 153.333 -54 202 -92c71.333 -55.333 107 -118 107 -188c0 -79.333 -44.667 -144 -134 -194
c-34.667 -20 -79.334 -38.333 -134.001 -55c-30.667 -9.33301 -60 -16.666 -88 -21.999s-55.333 -8.66602 -82 -9.99902c-4.66699 0 -6.33398 -4.33301 -5.00098 -13c5.33301 -31.333 19.333 -73.666 42 -126.999c24.667 -57.333 47.667 -96.666 69 -117.999
c22.667 -22.667 44 -34 64 -34c8.66699 0 17.334 1.66699 26.001 5c2.66699 0.666992 4.83398 1.16699 6.50098 1.5s3.16699 0.5 4.5 0.5c2.66699 -1.33301 3.66699 -2.33301 3 -3c-0.666992 -2.66699 -3.33398 -5 -8.00098 -7c-12.667 -7.33301 -26.334 -11 -41.001 -11
c-21.333 0 -46.333 11 -75 33c-19.333 15.333 -48 60.333 -86 135s-57 124 -57 148zM630 568.996l-90.499 -135.001l-89.5 -135c-47.333 -72 -81.833 -130 -103.5 -174s-31.5 -74.667 -29.5 -92c0.666992 -6.66699 -5.33301 -10 -18 -10c-12 0 -19 4 -21 12
c-10 32 97 206 321 522c7.33301 7.33301 9 15.333 5 24c-1.33301 2.66699 -2 4.33398 -2 5.00098c0 6 2.66699 9 8 9c3.33301 0 6.66602 -1.66699 9.99902 -5c10 -10.667 13.333 -17.667 10 -21z" />
    <glyph glyph-name="S" unicode="S" horiz-adv-x="629" 
d="M129 202c46.667 20.667 99.4971 37.832 158.497 51.499s124.5 23.5 196.5 29.5l-74 99.5l-89 120.5c-38.667 50.667 -58 96.334 -58 137.001c0 44.667 23.333 82 70 112c98.667 63.333 214.334 95 347.001 95c48.667 0 89 -5 121 -15c24 -8.66699 45 -23.667 63 -45
c16.667 -25.333 25 -52.333 25 -81c0 -9.33301 -0.833008 -18.833 -2.5 -28.5s-4.5 -19.5 -8.5 -29.5c-2.66699 -6.66699 -5.33398 -11.334 -8.00098 -14.001c-2 -3.33301 -3.33301 -3.33301 -4 0c-0.666992 2.66699 -0.166992 8.83398 1.5 18.501s2.5 20.167 2.5 31.5
c0 33.333 -9.33301 62 -28 86c-17.333 21.333 -40.333 36 -69 44c-17.333 5.33301 -36 9 -56 11s-41.333 3 -64 3c-123.333 0 -224.666 -29.667 -303.999 -89c-40 -28 -60 -62 -60 -102c0 -32 16.333 -72.333 49 -121l74.5 -93.5l105.5 -137.5h41
c16.667 0 35.334 0.333008 56.001 1c7.33301 0 11 -1.33301 11 -4c0 -3.33301 -12 -5.33301 -36 -6c-33.333 -0.666992 -53.666 -1.66699 -60.999 -3c18.667 -31.333 28 -63.333 28 -96c0 -66.667 -35.667 -115 -107 -145c-30.667 -12.667 -62.167 -22.334 -94.5 -29.001
s-65.833 -10 -100.5 -10c-51.333 0 -95.333 6.66699 -132 20c-54.667 18.667 -82 49.334 -82 92.001c0 40 29.333 72.333 88 97zM491.997 268.998c-32.667 -4 -61.8311 -8.16699 -87.498 -12.5s-47.834 -8.5 -66.501 -12.5c-79.333 -16 -144.333 -37.333 -195 -64
c-56.667 -28.667 -85 -58 -85 -88c0 -14 8.66699 -28.667 26 -44c12 -10.667 25.667 -18 41 -22c19.333 -5.33301 38.666 -9 57.999 -11s39.333 -3 60 -3c35.333 0 69 3.83301 101 11.5s63 18.834 93 33.501c59.333 30 89 70.333 89 121c0 33.333 -11.333 63.666 -34 90.999
z" />
    <glyph glyph-name="T" unicode="T" horiz-adv-x="714" 
d="M1019 678c-21.333 1.33301 -52 5.00293 -92 11.0029s-85.333 13.333 -136 22l-66 -112.5l-70.5 -127.5l-69.5 -132.5c-22.667 -44.333 -43.5 -87 -62.5 -128s-35.667 -79.167 -50 -114.5s-24.833 -65.666 -31.5 -90.999c-3.33301 -12.667 -3.83301 -24.334 -1.5 -35.001
s5.16602 -19.667 8.49902 -27c2 -5.33301 1.33301 -10.166 -2 -14.499s-7.33301 -7.16602 -12 -8.49902s-9.16699 -0.5 -13.5 2.5s-6.5 9.16699 -6.5 18.5c-0.666992 22 4.83301 52.167 16.5 90.5s27.167 81.166 46.5 128.499s41.333 97.333 66 150l75 154l74 141l62 112
l-148.5 22c-51.667 7.33301 -102.667 13.5 -153 18.5s-98.5 8.5 -144.5 10.5s-86.667 1 -122 -3c-13.333 -1.33301 -29 -4.16602 -47 -8.49902s-34.167 -11 -48.5 -20s-25.166 -20.833 -32.499 -35.5s-6.33301 -33 3 -55c10.667 -26.667 24.834 -53.667 42.501 -81
s34.167 -50.333 49.5 -69c6 -8 10 -13.833 12 -17.5s2.33301 -5.66699 1 -6s-3.83301 0.666992 -7.5 3s-7.5 5.5 -11.5 9.5c-23.333 23.333 -43 45.333 -59 66s-30.667 43.334 -44 68.001c-12.667 22.667 -15.834 43.667 -9.50098 63s17.5 36.166 33.5 50.499
s34.167 26.166 54.5 35.499s38.5 15.666 54.5 18.999c26.667 5.33301 62.667 7.66602 108 6.99902s95.166 -3 149.499 -7s111 -9 170 -15l169.5 -18c5.33301 7.33301 9.83301 13.833 13.5 19.5s7.16699 10.167 10.5 13.5c2.66699 2.66699 3.5 5.5 2.5 8.5
s-2.83301 4.16699 -5.5 3.5l-12 -2.5c-4.66699 -1 -9 -2.5 -13 -4.5c-7.33301 -2.66699 -11 -2.33398 -11 0.999023s3 6.66602 9 9.99902c8 6.66699 19 14.5 33 23.5s26 14.5 36 16.5c9.33301 1.33301 16.166 -1.66699 20.499 -9s3.83301 -15 -1.5 -23
c-12 -19.333 -25.667 -39.666 -41 -60.999c46 -5.33301 87.667 -9.66602 125 -12.999s67.333 -5 90 -5c11.333 0 18.833 3 22.5 9s4.83398 12 3.50098 18l-3.5 17c-1 4.66699 -3.16699 10.667 -6.5 18c-5.33301 13.333 -6.16602 21 -2.49902 23s9.16699 -3 16.5 -15
c2 -3.33301 4.5 -8 7.5 -14s5.83301 -12.5 8.5 -19.5s4.16699 -14.5 4.5 -22.5s-0.833984 -15.333 -3.50098 -22c-2.66699 -3.33301 -5.5 -7.83301 -8.5 -13.5s-7.16699 -10.834 -12.5 -15.501c-6.66699 -5.33301 -12.667 -9.83301 -18 -13.5
s-11.666 -4.83398 -18.999 -3.50098z" />
    <glyph glyph-name="U" unicode="U" horiz-adv-x="961" 
d="M829 1c2.66699 -6 4.00586 -19.335 4.00586 -40.002c-1.33301 -9.33301 -5.33301 -14 -12 -14c-6 0 -9.66699 5.66699 -11 17c0 24.667 2.33301 46.334 7 65.001c10 38.667 38.667 109.667 86 213l57 127c12.667 28 19.334 42.667 20.001 44c6 17.333 5.66699 26 -1 26
c-4 0 -8.33301 -2.66699 -13 -8c-63.333 -59.333 -152 -135 -266 -227c-75.333 -60 -138 -107 -188 -141s-88 -55 -114 -63c-4 -1.33301 -8 -2 -12 -2c-8 0 -15.833 1.83301 -23.5 5.5s-14.334 8.83398 -20.001 15.501s-9.83398 14.334 -12.501 23.001
s-3.33398 17.667 -2.00098 27c7.33301 48 35.666 113.333 84.999 196l63.5 105l63.5 106c22.667 38.667 39.334 73.167 50.001 103.5s16 55.833 16 76.5c0 19.333 -7.33301 38.333 -22 57c-16 20 -38.333 31 -67 33c-79.333 6 -164.666 -19 -255.999 -75
c-44.667 -27.333 -83 -57 -115 -89s-58.333 -66.333 -79 -103c-6 -11.333 -10.333 -23 -13 -35s-4 -24.667 -4 -38c0 -42.667 20.667 -77.667 62 -105c5.33301 -2.66699 8 -6 8 -10c0 -2.66699 -2 -4 -6 -4c-2.66699 0 -6.33398 1.33301 -11.001 4
c-18 14 -32.667 27.333 -44 40s-19 25.334 -23 38.001c-4.66699 14.667 -7 30.667 -7 48c0 25.333 5.66699 49.666 17 72.999c34.667 72 96.334 136 185.001 192c96 61.333 191.333 90 286 86c24.667 -0.666992 50 -15.667 76 -45c24.667 -28 36.667 -54.667 36 -80
c-2 -50.667 -23 -114.334 -63 -191.001c-1.33301 -2.66699 -11.333 -20.667 -30 -54l-84 -147c-22.667 -39.333 -41 -74.333 -55 -105s-23.333 -57 -28 -79c-2 -6 -3 -11.667 -3 -17c0 -18.667 9.33301 -28 28 -28c10 0 20 2.66699 30 8
c28.667 12.667 67.5 36.167 116.5 70.5s108.167 80.5 177.5 138.5l131.5 109.5l130.5 112.5c9.33301 7.33301 18.666 16.666 27.999 27.999s20.666 24 33.999 38c2.66699 4 7 6 13 6s11 -2.5 15 -7.5s5.33301 -10.833 4 -17.5l-4.5 -18
c-1.66699 -6.66699 -3.83398 -13.667 -6.50098 -21c-14.667 -19.333 -32.334 -47.166 -53.001 -83.499s-45 -81.5 -73 -135.5c-30 -59.333 -53.833 -109.5 -71.5 -150.5s-29.834 -73.833 -36.501 -98.5z" />
    <glyph glyph-name="V" unicode="V" horiz-adv-x="676" 
d="M340 16c-10.667 -12.667 -22.001 -19.0029 -34.001 -19.0029c-6.66699 0 -12.667 1.83301 -18 5.5s-9.83301 8.33398 -13.5 14.001s-6.5 11.834 -8.5 18.501s-3 13 -3 19c2 28 12.333 69.167 31 123.5s46 122.833 82 205.5c70 160.667 106 263.667 108 309v4
c0 1.33301 0.333008 3.66602 1 6.99902v14c0 29.333 -14.667 44 -44 44h-9c-3.33301 0 -6.66602 -0.333008 -9.99902 -1c-83.333 -12 -165 -60 -245 -144c-74 -78 -114 -148.667 -120 -212c-2 -26.667 4.33301 -44.334 19 -53.001c2 -1.33301 5 -2.16602 9 -2.49902
s8.66699 -1.16602 14 -2.49902c6.66699 -0.666992 10 -3 10 -7c0 -6 -5 -10 -15 -12c-6.66699 0 -13 2.66699 -19 8c-4 1.33301 -8.16699 4.16602 -12.5 8.49902s-9.16602 10.833 -14.499 19.5c-9.33301 16.667 -13.333 31.334 -12 44.001
c9.33301 79.333 55 159.666 137 240.999c80.667 80 160 125 238 135c27.333 2 51 -6.33301 71 -25c21.333 -19.333 31.666 -43 30.999 -71c-0.666992 -23.333 -9.5 -60.5 -26.5 -111.5s-41.5 -115.833 -73.5 -194.5c-70 -168 -109 -276.333 -117 -325
c-1.33301 -9.33301 -1.33301 -18.666 0 -27.999c2 -12 6 -18 12 -18s13 5.33301 21 16c72.667 94 138.667 175.833 198 245.5s112 127.834 158 174.501c152 152 275.667 228 371 228c18 0 35 -2.33301 51 -7c8 -4.66699 12 -7.66699 12 -9c0 -3.33301 -4 -4 -12 -2
c-6.66699 1.33301 -13 2.33301 -19 3s-12 1 -18 1c-69.333 0 -155 -42.333 -257 -127c-38 -30.667 -79 -68.167 -123 -112.5s-91 -95.833 -141 -154.5l-104.5 -124.5z" />
    <glyph glyph-name="W" unicode="W" horiz-adv-x="1094" 
d="M385 1c-3.33301 -4.66699 -8.33594 -6.99902 -15.0029 -6.99902c-17.333 0 -26 6 -26 18c0 2.66699 0.666992 6 2 10c212.667 368 314.334 593.333 305.001 676c-5.33301 53.333 -34 80 -86 80c-38 0 -81.5 -9.83301 -130.5 -29.5s-104.5 -48.5 -166.5 -86.5
c-126 -79.333 -201.333 -154.333 -226 -225c-10 -30 -8 -51.333 6 -64c10.667 -8.66699 30.334 -13 59.001 -13c7.33301 0 11 -0.666992 11 -2c0 -2.66699 -4 -4.66699 -12 -6c-23.333 -8.66699 -43.333 -8.66699 -60 0c-8 4 -15 13.167 -21 27.5s-9 28.5 -9 42.5
c0 6.66699 0.666992 11.667 2 15c14.667 64 80.667 137.667 198 221c116.667 82 221.667 129.667 315 143c34 4 65.667 -5 95 -27c28 -20 42.667 -45.333 44 -76c2 -59.333 -24 -151.333 -78 -276c-21.333 -50 -44.5 -99 -69.5 -147s-52.167 -96 -81.5 -144
c-3.33301 -8 -5 -13 -5 -15c0 -5.33301 2 -7.33301 6 -6c4 0.666992 9 4 15 10l149.5 171l188.5 215c0 1.33301 5 9.66602 15 24.999c5.33301 11.333 10.666 16.333 15.999 15c7.33301 -2.66699 14 -9.33398 20 -20.001s9 -20.667 9 -30c0 -4 -0.666992 -7.33301 -2 -10
c-21.333 -40.667 -39.833 -78.5 -55.5 -113.5s-28.167 -66.833 -37.5 -95.5c-21.333 -65.333 -32.333 -131 -33 -197c-0.666992 -21.333 6 -38.833 20 -52.5s32 -20.5 54 -20.5h8c2.66699 0 5.33398 0.333008 8.00098 1c36.667 4.66699 91.334 41 164.001 109
c72.667 67.333 134.667 141.666 186 222.999c30.667 48 53.667 92.333 69 133s23.666 78.334 24.999 113.001c0.666992 47.333 -6 82.333 -20 105c-4.66699 4.66699 -7 9 -7 13c0 2.66699 1 4 3 4c4 0 9 -3.66699 15 -11c20.667 -23.333 31 -60.333 31 -111
c0 -66 -30 -147 -90 -243c-26 -42.667 -54.833 -83 -86.5 -121s-66.5 -75 -104.5 -111c-75.333 -70 -135.666 -110 -180.999 -120c-4 -0.666992 -7.83301 -1.16699 -11.5 -1.5s-7.16699 -0.5 -10.5 -0.5c-25.333 0 -47 8.33301 -65 25s-28 38.334 -30 65.001
c-0.666992 6 -1 11.667 -1 17v20c0 104.667 32.333 218.667 97 342c2.66699 4.66699 4 10 4 16s-2 9 -6 9s-8.33301 -2.33301 -13 -7l-144 -166l-197 -230c-8 -9.33301 -16.833 -21 -26.5 -35s-20.5 -28.667 -32.5 -44z" />
    <glyph glyph-name="X" unicode="X" horiz-adv-x="770" 
d="M0 -118c-3.33301 -14 -6.99609 -21.0039 -10.9961 -21.0039c-2.66699 0 -3.33398 6.66699 -2.00098 20c6 56.667 28.333 111.667 67 165c17.333 25.333 42.166 53.333 74.499 84s71.5 64 117.5 100c40.667 32 80.5 61 119.5 87s78.167 50.667 117.5 74l10.5 172.5
c2.33301 37.667 3.5 55.834 3.5 54.501c0 8.66699 -0.166992 16.167 -0.5 22.5s-0.833008 12.5 -1.5 18.5c-3.33301 26 -18.666 36 -45.999 30c-67.333 -16 -131.333 -66.667 -192 -152c-1.33301 -2 -2.5 -3.83301 -3.5 -5.5s-2.16699 -2.83398 -3.5 -3.50098
c-2 -1.33301 -3.66699 -1.33301 -5 0c-1.33301 2.66699 -1.33301 6 0 10c1.33301 4.66699 2.33301 7.33398 3 8.00098c10 20.667 24 40.834 42 60.501s38.667 38.834 62 57.501c25.333 18.667 48.5 32.834 69.5 42.501s40.833 13.834 59.5 12.501c10 0 21.667 -6 35 -18
c14 -12 21 -21.667 21 -29c1.33301 -29.333 1.16602 -65.333 -0.500977 -108s-5.16699 -92.667 -10.5 -150c68.667 39.333 131.5 77.833 188.5 115.5s108.5 75.167 154.5 112.5c9.33301 8.66699 12.666 20 9.99902 34c6 3.33301 13.667 8.83301 23 16.5
s19.666 17.167 30.999 28.5c1.33301 1.33301 2.66602 2 3.99902 2c10 0 15 -12.667 15 -38c0 -6 -1.33301 -10.333 -4 -13c-29.333 -34.667 -98.666 -87 -207.999 -157c-40 -26.667 -78.167 -50.834 -114.5 -72.501l-103.5 -60.5c-4 -58 -6 -106.333 -6 -145
c0 -92 10.333 -152.667 31 -182s50.667 -43 90 -41c23.333 2 48.166 8.16699 74.499 18.5s54.5 25.5 84.5 45.5c6.66699 4 11.334 4 14.001 0c4 -4 2.33301 -7.66699 -5 -11c-68.667 -47.333 -123.667 -74 -165 -80c-6 -1.33301 -13.667 -0.666016 -23 2.00098
s-19.166 6.5 -29.499 11.5s-20.5 10.833 -30.5 17.5s-19 14 -27 22c-32 30 -48 105 -48 225v54c0 13.333 0.166992 23.666 0.5 30.999s0.5 11.333 0.5 12c-42 -24.667 -82.333 -50.167 -121 -76.5s-76.334 -54.5 -113.001 -84.5c-81.333 -64.667 -139.333 -121 -174 -169
c-18.667 -25.333 -34 -50.333 -46 -75s-21.667 -49.667 -29 -75z" />
    <glyph glyph-name="Y" unicode="Y" horiz-adv-x="927" 
d="M789 50c12.667 16.667 39.334 67.332 80.001 151.999l39.5 81.5l38.5 81.5c2 6.66699 2.66699 10.334 2 11.001c-0.666992 2.66699 -2.66699 2.33398 -6 -0.999023c-84.667 -74.667 -176.667 -146 -276 -214c-64.667 -44 -123.334 -79.667 -176.001 -107
s-99.667 -46.666 -141 -57.999c-6 -2 -11.833 -1.66699 -17.5 1s-11 6.66699 -16 12s-9 11.833 -12 19.5s-4.5 15.834 -4.5 24.501c0 7.33301 1.33301 14 4 20c11.333 36.667 44.333 95.334 99 176.001l87 131l46 72c44.667 76.667 67 139.334 67 188.001
c0 59.333 -36.667 91.666 -110 96.999c-32.667 3.33301 -68.834 -1.83398 -108.501 -15.501s-83.167 -34.834 -130.5 -63.501c-96.667 -60 -160.334 -123.333 -191.001 -190c-10.667 -25.333 -16 -47.333 -16 -66c0 -15.333 2.66699 -29 8 -41s16.666 -23.667 33.999 -35
c7.33301 -5.33301 14.5 -9.5 21.5 -12.5s13.5 -4.83301 19.5 -5.5c9.33301 -0.666992 14 -3 14 -7s-6.33301 -5 -19 -3c-44.667 8 -73 26.333 -85 55c-7.33301 15.333 -11 34.666 -11 57.999c0 24.667 3.66699 45.667 11 63c25.333 66.667 83 130 173 190
c94.667 63.333 182.334 96 263.001 98c39.333 0.666992 75.333 -14.666 108 -45.999c33.333 -32 50 -65 50 -99c0 -22.667 -5.5 -49.167 -16.5 -79.5s-28.167 -64.5 -51.5 -102.5c-11.333 -19.333 -28 -45.833 -50 -79.5l-84 -122.5c-55.333 -80 -89 -134.667 -101 -164
c-4 -8 -6.83301 -15.167 -8.5 -21.5s-2.5 -11.5 -2.5 -15.5c0 -9.33301 4.66699 -14 14 -14c6 0 17 2 33 6c80 22 185.667 78.333 317 169c60.667 42 114.167 81.667 160.5 119s85.833 73 118.5 107l2 5l17.5 25l20.5 31c6.66699 10 16.334 15 29.001 15
c1.33301 0 2.66602 -0.666992 3.99902 -2c6 -14 5.66699 -24.333 -1 -31c-5.33301 -3.33301 -10.666 -7.66602 -15.999 -12.999l-19 -19l-58 -127l-66 -145c3.33301 -3.33301 7 -7.83301 11 -13.5s7.5 -11.167 10.5 -16.5s5.5 -10.5 7.5 -15.5s3 -8.5 3 -10.5
c0 -6 -6.33301 -17.333 -19 -34c-6 -7.33301 -11.333 -13 -16 -17s-9 -6.33301 -13 -7c-5.33301 -0.666992 -12.166 -2.33398 -20.499 -5.00098l-29.5 -9c-21.333 -35.333 -40.833 -65.5 -58.5 -90.5s-33.5 -46.167 -47.5 -63.5
c-40.667 -50.667 -81.334 -87.334 -122.001 -110.001c-64 -36.667 -120.333 -54.334 -169 -53.001c-40.667 0.666992 -73 11 -97 31c-22.667 18 -34 40.333 -34 67c0 32.667 16.333 62 49 88c86.667 66.667 239.334 117 458.001 151zM776 23.998
c-32 -4.66699 -64.667 -10.501 -98 -17.501s-68 -15.5 -104 -25.5c-106 -28 -183 -61 -231 -99c-30.667 -24 -46 -51 -46 -81c0 -50 38 -74.333 114 -73c55.333 0.666992 109.333 18.334 162 53.001c40.667 27.333 79.667 65 117 113l32.5 48zM870 146.997
c-5.33301 -11.333 -11.833 -24.333 -19.5 -39l-26.5 -51c5.33301 0.666992 11.333 2 18 4l24 7c14 8 21.333 18.667 22 32c0.666992 14 -5.33301 29.667 -18 47z" />
    <glyph glyph-name="Z" unicode="Z" horiz-adv-x="954" 
d="M374 463c1.33301 -3.33301 2.66016 -6.33105 3.99316 -8.99805s2 -4.66699 2 -6c0 -2.66699 -1 -4 -3 -4s-6.66699 4.66699 -14 14c-10 14 -20.333 36.667 -31 68c-10 34 -15 63.333 -15 88c0 12 1.33301 22.5 4 31.5s9.33398 15.5 20.001 19.5
c1.33301 1.33301 3.5 3.66602 6.5 6.99902s7.16699 8.33301 12.5 15c9.33301 15.333 20.333 25 33 29c31.333 12.667 74.333 19 129 19c76 0 195.333 -16.333 358 -49c0.666992 0 2.66699 1 6 3s7.33301 4.16699 12 6.5s9.33398 4.5 14.001 6.5s8.66699 3 12 3
c12 0 18 -12.333 18 -37c0 -10 -2.66699 -17 -8 -21c-4 -2 -17 -1 -39 3c-36.667 -32 -72.167 -68 -106.5 -108s-67.5 -84 -99.5 -132h35c6 -0.666992 11 -1 15 -1h10c8.66699 0 13 -1.33301 13 -4c0 -6 -7.66699 -9 -23 -9c-1.33301 0 -7.5 -0.5 -18.5 -1.5
s-26.5 -2.83301 -46.5 -5.5c-52 -68.667 -98.833 -125.834 -140.5 -171.501s-77.5 -81.167 -107.5 -106.5l136 -87.5c47.333 -29.667 98 -59.5 152 -89.5c88.667 -50.667 166.334 -91 233.001 -121s123 -49.333 169 -58c18 -4 34.667 -6 50 -6
c103.333 0 155.333 68.667 156 206c0 10 2.33301 15 7 15c4 0 6.33301 -4.33301 7 -13c2.66699 -30 3.16699 -56.833 1.5 -80.5s-7.16699 -43.5 -16.5 -59.5c-10 -17.333 -19.833 -30.833 -29.5 -40.5s-18.5 -17 -26.5 -22s-15 -8.5 -21 -10.5s-10.667 -4 -14 -6
c-15.333 -7.33301 -33 -10.666 -53 -9.99902s-41.333 3.66699 -64 9c-91.333 20 -219 73.667 -383 161l-127.5 71l-205.5 119c-37.333 -24 -65.333 -41 -84 -51c-17.333 -8 -34.666 -14.833 -51.999 -20.5s-35 -10.5 -53 -14.5c-10 -2 -23 -3 -39 -3
c-42.667 0 -75.667 9 -99 27s-36.333 45.333 -39 82c-1.33301 12 -0.666016 25 2.00098 39s7.33398 28 14.001 42c11.333 27.333 23.666 44 36.999 50c0 13.333 3 23 9 29s18.667 9 38 9c20.667 0 69.334 -22.667 146.001 -68l137 -84
c11.333 7.33301 25.833 19.666 43.5 36.999s38.167 40 61.5 68c38.667 46 73.334 90.667 104.001 134c-10 8.66699 -15 19.334 -15 32.001c0 6 2 10 6 12c5.33301 0.666992 11.5 1.5 18.5 2.5s15.5 2.5 25.5 4.5c8.66699 13.333 21.167 30.166 37.5 50.499l60.5 73.5
c28.667 34.667 52 62 70 82s31.333 32.667 40 38c-26 8 -71.333 17 -136 27c-88 16 -163 24 -225 24c-20 0 -38 -0.833008 -54 -2.5s-30.333 -3.83398 -43 -6.50098c-36.667 -10 -58 -33.667 -64 -71c-0.666992 -5.33301 -1.16699 -10.666 -1.5 -15.999s-0.5 -11 -0.5 -17
c0 -54 10.667 -98.667 32 -134zM204.994 16.002c30 6 59.666 15.6689 88.999 29.002s58.333 31.333 87 54c-32 24 -72.333 50 -121 78c-32.667 19.333 -60.167 33.666 -82.5 42.999s-40.166 14 -53.499 14c-2 0 -3.83301 -0.166992 -5.5 -0.5s-3.5 -0.833008 -5.5 -1.5
c-40 -18.667 -60.333 -60.334 -61 -125.001c-0.666992 -32 12.666 -56.333 39.999 -73c10.667 -6 22.834 -10.833 36.501 -14.5s28.5 -5.5 44.5 -5.5c6 0 11.5 0.166992 16.5 0.5s10.167 0.833008 15.5 1.5z" />
    <glyph glyph-name="bracketleft" unicode="[" horiz-adv-x="587" 
d="M280 693l30.4941 48.999c9.66699 15.333 17.834 24.666 24.501 27.999c6.66699 2 15.167 2.33301 25.5 1s16.833 -7.66602 19.5 -18.999c12.667 2.66699 28.5 4.83398 47.5 6.50098s37.833 2.66699 56.5 3s35.834 -0.166992 51.501 -1.5s27.167 -4 34.5 -8
c4.66699 -1.33301 7.16699 -3.5 7.5 -6.5s-0.5 -6.33301 -2.5 -10s-4.33301 -7.33398 -7 -11.001s-4.33398 -6.83398 -5.00098 -9.50098c-13.333 4.66699 -29.833 7.5 -49.5 8.5s-40.167 0.333008 -61.5 -2s-42.166 -6 -62.499 -11s-37.833 -10.5 -52.5 -16.5
c-32.667 -46.667 -65 -99.5 -97 -158.5s-62 -119.667 -90 -182s-52.833 -124.166 -74.5 -185.499s-38.167 -117.666 -49.5 -168.999c-1.33301 -10.667 -2.16602 -19 -2.49902 -25s0.333984 -10.667 2.00098 -14s4.5 -5.83301 8.5 -7.5s10 -3.83398 18 -6.50098
c18 -6 41 -9.66699 69 -11s56.5 -1.16602 85.5 0.500977s55.667 4.5 80 8.5s41.5 8.66699 51.5 14c6 3.33301 11 4.83301 15 4.5s6.33301 -1.83301 7 -4.5s-0.5 -6.33398 -3.5 -11.001s-8.5 -9.66699 -16.5 -15c-9.33301 -6 -25.166 -11.667 -47.499 -17
s-47.166 -9.83301 -74.499 -13.5s-55.5 -6.5 -84.5 -8.5s-54.833 -2.33301 -77.5 -1c-10.667 0 -19.5 3.83301 -26.5 11.5s-12.667 17 -17 28s-7.5 22.833 -9.5 35.5s-3.33301 24.667 -4 36c-1.33301 16.667 1 37.834 7 63.501s13.667 53 23 82s19.5 57.667 30.5 86
l29.5 75.5z" />
    <glyph glyph-name="backslash" unicode="\" horiz-adv-x="455" 
d="M612 -78c-13.333 48.667 -103.001 152.667 -269.001 312c-75.333 72.667 -145.166 137 -209.499 193s-123.5 104 -177.5 144c-8 4.66699 -12 10 -12 16c0 5.33301 3 8 9 8c6.66699 0 13 -2.66699 19 -8c52 -38 110.333 -85.667 175 -143s136.334 -124.333 215.001 -201
c169.333 -167.333 257 -273.333 263 -318c0 -12 -0.666992 -20 -2 -24c-4.66699 0 -8.33398 7 -11.001 21z" />
    <glyph glyph-name="bracketright" unicode="]" horiz-adv-x="474" 
d="M183 -29l-30.4961 -49c-9.66699 -15.333 -17.834 -24.666 -24.501 -27.999c-3.33301 -1.33301 -7.33301 -2 -12 -2c-4 0 -8.33301 0.5 -13 1.5s-8.83398 3 -12.501 6s-5.83398 7.16699 -6.50098 12.5c-13.333 -2.66699 -29.5 -4.83398 -48.5 -6.50098
s-37.833 -2.66699 -56.5 -3s-36 0.166992 -52 1.5s-27.333 4 -34 8c-5.33301 2 -8 4.33301 -8 7s1 5.83398 3 9.50098s4.33301 7.16699 7 10.5s4.33398 6.66602 5.00098 9.99902c13.333 -4.66699 29.833 -7.33398 49.5 -8.00098s40.167 0 61.5 2s42.166 5.5 62.499 10.5
s38.166 10.5 53.499 16.5c32 46.667 64.167 99.5 96.5 158.5s62.333 119.667 90 182s52.334 124.166 74.001 185.499s38.167 117.666 49.5 168.999c0.666992 10.667 1.33398 19 2.00098 25s0.166992 10.667 -1.5 14s-4.5 5.83301 -8.5 7.5s-10 3.83398 -18 6.50098
c-18 6 -41 9.83301 -69 11.5s-56.5 1.66699 -85.5 0s-55.667 -4.66699 -80 -9s-41.5 -9.16602 -51.5 -14.499c-6 -3.33301 -11 -4.83301 -15 -4.5s-6.33301 2 -7 5s0.5 6.83301 3.5 11.5s8.5 9.66699 16.5 15c9.33301 6 25.166 11.667 47.499 17s47.166 9.83301 74.499 13.5
s55.5 6.33398 84.5 8.00098s54.833 1.83398 77.5 0.500977c10.667 0 19.5 -3.83301 26.5 -11.5s12.667 -17 17 -28s7.5 -23 9.5 -36s3.33301 -24.833 4 -35.5c1.33301 -16.667 -1 -37.834 -7 -63.501s-13.667 -53 -23 -82s-19.5 -57.667 -30.5 -86l-29.5 -75.5z" />
    <glyph glyph-name="asciicircum" unicode="^" horiz-adv-x="376" 
d="M503 591c-18.667 -4.66699 -39.168 -11.1641 -61.501 -19.4971s-47.166 -18.166 -74.499 -29.499c-8 -4.66699 -12 -4 -12 2c0 2 0.666992 3.66699 2 5l4 4c5.33301 3.33301 15.166 8.66602 29.499 15.999l56.5 30c38 21.333 57.667 31.666 59 30.999
c4 -1.33301 37.333 -28 100 -80c2.66699 -2.66699 4 -5.33398 4 -8.00098c0 -2 -1.66699 -3.66699 -5 -5s-6.33301 -0.333008 -9 3l-25 16l-25 16c-23.333 13.333 -37.666 19.666 -42.999 18.999z" />
    <glyph glyph-name="underscore" unicode="_" horiz-adv-x="515" 
d="M45 -41c-13.333 0 -20 2 -20 6c0 4.66699 9.66699 7 29 7h425c12 0 18 -1.66699 18 -5c0 -5.33301 -8.33301 -8 -25 -8h-427v0z" />
    <glyph glyph-name="grave" unicode="`" horiz-adv-x="266" 
d="M521 531c3.33301 -2.66699 4.33301 -5.66699 3 -9c-3.33301 -2 -6.33301 -2 -9 0l-62.5 42.5l-80.5 54.5c-4 2.66699 -6 6 -6 10c0 14.667 7.33301 22 22 22c4 0 7.33301 -1.33301 10 -4l53.5 -49.5z" />
    <glyph glyph-name="a" unicode="a" horiz-adv-x="421" 
d="M55 13c-8.66699 -5.33301 -16.334 -8.00098 -23.001 -8.00098c-16.667 0 -25 11.667 -25 35c0 47.333 37 108 111 182c34 34 66 61.5 96 82.5s58 36.833 84 47.5c6 2 12.5 3.83301 19.5 5.5s14.167 2.5 21.5 2.5c8 0 16 -0.833008 24 -2.5s16 -3.83398 24 -6.50098
c11.333 -1.33301 17.666 -1.66602 18.999 -0.999023c12 2 20.667 6.33301 26 13c1.33301 1.33301 3.33301 2 6 2s5 -1.66699 7 -5s2.66699 -5.66602 2 -6.99902l-57.5 -88.5l-55.5 -88.5c-14 -23.333 -27.667 -50.166 -41 -80.499s-25.5 -61 -36.5 -92
s-20.5 -60.5 -28.5 -88.5s-13.333 -51.667 -16 -71c-0.666992 -3.33301 -1 -6.33301 -1 -9v-10c0 -22.667 7 -39.5 21 -50.5s33 -16.5 57 -16.5s47.667 4 71 12c35.333 12 81.333 40.667 138 86c27.333 22 51.833 44.667 73.5 68s40.5 45.333 56.5 66c6 6.66699 10 10 12 10
c0.666992 -0.666992 1 -1.66699 1 -3c0 -2.66699 -1.33301 -6.33398 -4 -11.001c-15.333 -22.667 -33.833 -46.667 -55.5 -72s-47.5 -50.666 -77.5 -75.999c-28 -22.667 -53.167 -41.334 -75.5 -56.001s-42.833 -25.334 -61.5 -32.001
c-9.33301 -3.33301 -18.666 -5.83301 -27.999 -7.5s-19.333 -2.5 -30 -2.5c-16 0 -30.667 2.5 -44 7.5s-25.333 11.167 -36 18.5c-12.667 7.33301 -21.5 17.833 -26.5 31.5s-7.16699 29.167 -6.5 46.5c0.666992 14 3.5 32.667 8.5 56s11.5 48.166 19.5 74.499
s16.667 52.5 26 78.5s18.666 49 27.999 69c11.333 24 22.5 46.333 33.5 67s22.167 39.667 33.5 57c4.66699 7.33301 4.33398 11 -0.999023 11c-0.666992 0 -1.66699 -0.666992 -3 -2c-16 -19.333 -35.167 -39.666 -57.5 -60.999s-48.166 -44.666 -77.499 -69.999
c-58.667 -49.333 -109 -86.333 -151 -111zM71 97.999c-2.66699 -7.33301 -3.99707 -15.002 -3.99707 -23.002c0 -16 6 -24 18 -24c4.66699 0 9.66699 1.66699 15 5c37.333 23.333 76.666 54.833 117.999 94.5s85.666 87.834 132.999 144.501c2 2 3 4.33301 3 7
c0 7.33301 -4.33301 14.166 -13 20.499s-19.667 9.5 -33 9.5c-7.33301 0 -15 -1 -23 -3c-31.333 -8 -71 -38.333 -119 -91c-22.667 -25.333 -41.834 -49.666 -57.501 -72.999s-28.167 -45.666 -37.5 -66.999z" />
    <glyph glyph-name="b" unicode="b" horiz-adv-x="458" 
d="M142 326c1.33301 2.66699 2.33008 4.33398 2.99707 5.00098c1.33301 4 2.5 6.66699 3.5 8s0.166992 -0.666992 -2.5 -6v7c248 559.333 513 848 795 866c96.667 5.33301 182 -23.667 256 -87c75.333 -63.333 109 -134.666 101 -213.999c-2 -24 -9.33301 -48.667 -22 -74
c-63.333 -120.667 -233.333 -233.334 -510 -338.001c-96 -36.667 -193 -68.667 -291 -96s-197.667 -50.666 -299 -69.999c-9.33301 -17.333 -19.666 -39.333 -30.999 -66s-23.666 -59 -36.999 -97c-5.33301 -11.333 -9.5 -21.833 -12.5 -31.5l-8.5 -26.5
c11.333 10.667 28 23.5 50 38.5l82 54.5c40 26.667 74.833 48.5 104.5 65.5s54.167 29.5 73.5 37.5c5.33301 2.66699 12 4 20 4c22.667 0 33.667 -12.333 33 -37c-1.33301 -4.66699 -3 -9.5 -5 -14.5s-4.33301 -10.167 -7 -15.5
c-38.667 -64.667 -98.667 -121.334 -180 -170.001c-82 -49.333 -157.333 -73.333 -226 -72c-1.33301 0 -3.33301 0.666992 -6 2c-5.33301 1.33301 -9.83301 4.33301 -13.5 9s-5.5 9.66699 -5.5 15c2.66699 6.66699 7.33398 14.667 14.001 24l48 112l65 152
c1.33301 0 2.33301 1.66699 3 5v3c0 0.666992 0.333008 1.16699 1 1.5s1 0.833008 1 1.5l1 1v-2c1.33301 2.66699 2.33301 5 3 7c0 -0.666992 -0.333008 -1.33398 -1 -2.00098zM1255 858c4.66699 10.667 8.33301 21.168 11 31.501s5 21.166 7 32.499
c6 71.333 -23.667 133.666 -89 186.999c-67.333 56 -148.333 82.333 -243 79c-162 -7.33301 -326 -128 -492 -362c-103.333 -143.333 -192.333 -304.666 -267 -483.999c244.667 50 461.667 116.333 651 199c226 99.333 366.667 205 422 317zM101.996 102.001
c-16 -13.333 -26.668 -31.6641 -32.001 -54.9971v-1c0.666992 0 1 -0.333008 1 -1c-0.666992 -0.666992 -1 -1.33398 -1 -2.00098s-0.333008 -1.33398 -1 -2.00098l1 -4c-2 -9.33301 -0.333008 -14.333 5 -15c6.66699 -2 22 -0.666992 46 4
c25.333 5.33301 50.5 14.166 75.5 26.499s50.5 27.833 76.5 46.5c54.667 40 90.667 80.667 108 122l4 16c1.33301 20.667 -6 31 -22 31c-14.667 0 -58 -24 -130 -72c-29.333 -19.333 -54.666 -37 -75.999 -53z" />
    <glyph glyph-name="c" unicode="c" horiz-adv-x="362" 
d="M331 344c-11.333 -14 -26 -27.502 -44 -40.502s-40.333 -22.5 -67 -28.5c15.333 11.333 31.666 24.333 48.999 39s30 27.667 38 39c6.66699 10.667 10.334 20 11.001 28s-1 14.167 -5 18.5s-9.83301 6.33301 -17.5 6s-16.5 -3.16602 -26.5 -8.49902
c-24.667 -14 -49.5 -32.5 -74.5 -55.5s-48.833 -47.167 -71.5 -72.5l-12 -16c-15.333 -20.667 -31 -45 -47 -73s-25.333 -58 -28 -90c-0.666992 -14.667 0.833008 -26.667 4.5 -36s8.66699 -16.5 15 -21.5s13.666 -8.33301 21.999 -10s16.833 -2.16699 25.5 -1.5
c22 2.66699 45.5 8.66699 70.5 18s46.833 19.333 65.5 30c5.33301 3.33301 9.16602 3.83301 11.499 1.5s0.833008 -5.16602 -4.5 -8.49902c-7.33301 -5.33301 -16 -11.166 -26 -17.499s-21 -12.5 -33 -18.5s-24.333 -11.5 -37 -16.5s-25.334 -8.5 -38.001 -10.5
c-10 -2 -20.833 -0.833008 -32.5 3.5s-22.667 10.666 -33 18.999s-18.833 18.5 -25.5 30.5s-9.66699 24.667 -9 38c1.33301 24 6.5 48.333 15.5 73s20.5 48.667 34.5 72s29.833 45.5 47.5 66.5s35.834 40 54.501 57s37.334 31.333 56.001 43s36 20.167 52 25.5
c12.667 4 24.834 4.33301 36.501 1s21 -9 28 -17s10.5 -18 10.5 -30s-5.33301 -24.333 -16 -37zM220 276.998c0 -0.666992 -0.333008 -1.33301 -1 -2v1c0.666992 0 1 0.333008 1 1z" />
    <glyph glyph-name="d" unicode="d" horiz-adv-x="433" 
d="M404 340l36.9971 63.9961l35 60l-15.5 2c-5 0.666992 -9.83301 1.66699 -14.5 3c-9.33301 1.33301 -17.666 6.83301 -24.999 16.5s-11 19.834 -11 30.501c0 6.66699 2.33301 12.334 7 17.001c32 35.333 81 60 147 74h2l54 78.5c16.667 23.667 32.667 45.167 48 64.5
c152.667 195.333 307 320 463 374c52 18.667 103.667 28 155 28c84.667 0 156 -24 214 -72c54.667 -46.667 82 -102.334 82 -167.001c0 -49.333 -17 -96 -51 -140c-38 -49.333 -93 -90.666 -165 -123.999c-268 -125.333 -530.333 -188 -787 -188h-36
c-11.333 0 -22.666 0.333008 -33.999 1l-44 -77.5l-44 -82.5c-62.667 -122 -93.667 -218 -93 -288c0 -2.66699 2 -6.33398 6 -11.001c2.66699 -0.666992 5.33398 -1.16699 8.00098 -1.5s5.66699 -0.833008 9 -1.5c3.33301 -1.33301 4 -4 2 -8
c-2.66699 -4 -5.33398 -6.33301 -8.00098 -7c-7.33301 -4 -14.666 -2 -21.999 6c-3.33301 5.33301 -6.16602 12 -8.49902 20s-3.5 16.667 -3.5 26c0 38.667 19.333 109 58 211c4 11.333 2.33301 17 -5 17c-2 0 -4 -1.33301 -6 -4
c-17.333 -21.333 -37.333 -44.166 -60 -68.499s-48.667 -49.166 -78 -74.499c-66.667 -60.667 -121.334 -99.667 -164.001 -117c-4 -1.33301 -7.33301 -2 -10 -2c-24.667 0 -37 11.333 -37 34c0 44.667 39.333 104.334 118 179.001c70.667 66.667 131 110 181 130
c6 2 12.5 3.83301 19.5 5.5s14.167 2.5 21.5 2.5s15.5 -0.833008 24.5 -2.5s19.167 -4.16699 30.5 -7.5zM1137 1112c-216.667 -92 -422.999 -304 -618.999 -636c9.33301 -0.666992 18.666 -1 27.999 -1h31c278 0 536.333 69.333 775 208c138.667 80 208 164.667 208 254
c0 58 -28 106 -84 144c-56 40 -121.333 60 -196 60c-49.333 0 -97 -9.66699 -143 -29zM72.998 86.9961c-3.33301 -6.66699 -4.99902 -14.002 -4.99902 -22.002c0 -14.667 5.66699 -22 17 -22c5.33301 0 10.666 1.66699 15.999 5c44 28.667 87 61.334 129 98.001
s83.333 78.667 124 126c8 10 12 18.667 12 26c0 15.333 -12 23 -36 23c-8.66699 0 -17.334 -1 -26.001 -3c-17.333 -4 -36.5 -13.667 -57.5 -29s-44.5 -35.666 -70.5 -60.999c-51.333 -51.333 -85.666 -98.333 -102.999 -141zM447.999 483.994
c5.33301 -1.33301 11.168 -2.33105 17.501 -2.99805s13.166 -1.33398 20.499 -2.00098l38.5 61.5l35.5 56.5c-29.333 -8 -54.333 -18.333 -75 -31s-38 -27.334 -52 -44.001c-4.66699 -4.66699 -7 -10.667 -7 -18c0 -11.333 7.33301 -18 22 -20z" />
    <glyph glyph-name="e" unicode="e" horiz-adv-x="338" 
d="M465 308c-6.66699 -7.33301 -17.499 -16.168 -32.499 -26.501s-31.833 -16.833 -50.5 -19.5c-11.333 -2 -28.166 -3.33301 -50.499 -4s-46.833 -1.33398 -73.5 -2.00098s-53.334 -1 -80.001 -1h-70l-23.5 -33.5c-8.33301 -12.333 -16.166 -25.5 -23.499 -39.5
s-13.666 -28.5 -18.999 -43.5s-8.33301 -30.5 -9 -46.5c-0.666992 -14.667 0.833008 -26.667 4.5 -36s8.66699 -16.5 15 -21.5s13.666 -8.33301 21.999 -10s16.833 -2.16699 25.5 -1.5c22 3.33301 45.5 9.66602 70.5 18.999s46.5 19 64.5 29
c5.33301 3.33301 9.33301 3.83301 12 1.5s1.33398 -5.16602 -3.99902 -8.49902c-7.33301 -5.33301 -16 -11.166 -26 -17.499s-21 -12.5 -33 -18.5s-24.5 -11.5 -37.5 -16.5s-25.5 -8.5 -37.5 -10.5c-10 -2 -21 -0.833008 -33 3.5s-23 10.833 -33 19.5
s-18.333 18.834 -25 30.501s-9.66699 24.167 -9 37.5c2 36.667 12.167 73.334 30.5 110.001s40.666 70.834 66.999 102.501s54 59 83 82s55.167 39.167 78.5 48.5c12.667 4 24 3.5 34 -1.5s17.833 -12.333 23.5 -22s9 -20.5 10 -32.5s-1.5 -23 -7.5 -33
c-10 -18.667 -28 -34.334 -54 -47.001s-55.667 -21.667 -89 -27h55c19.333 0 37.666 0.166992 54.999 0.5s33.5 0.833008 48.5 1.5s27.833 1.66699 38.5 3c14 1.33301 28.167 5.66602 42.5 12.999s25.5 14.666 33.5 21.999c3.33301 4.66699 6.16602 6.33398 8.49902 5.00098
s1.83301 -4.33301 -1.5 -9zM304.001 354.998c6.66699 10.667 10.3311 19.999 10.998 27.999s-1 14.167 -5 18.5s-9.83301 6.33301 -17.5 6s-16.5 -3.16602 -26.5 -8.49902c-24.667 -14 -49.667 -32.5 -75 -55.5s-49.333 -46.833 -72 -71.5c17.333 0 35.333 2 54 6
s36.334 9.83301 53.001 17.5s31.834 16.5 45.501 26.5s24.5 21 32.5 33z" />
    <glyph glyph-name="f" unicode="f" horiz-adv-x="255" 
d="M-550 -186c9.33301 3.33301 14.1602 3.83398 14.4932 1.50098s-4.16699 -5.5 -13.5 -9.5c-34 -15.333 -64.667 -38.833 -92 -70.5s-46.666 -69.5 -57.999 -113.5c-9.33301 -36.667 -9.16602 -69 0.500977 -97s26 -50 49 -66s51.167 -24.833 84.5 -26.5
s69.333 5.83301 108 22.5c38 16.667 76.333 43.167 115 79.5s76.834 78.5 114.501 126.5s74.167 99.5 109.5 154.5s68.5 109.167 99.5 162.5l84.5 151.5l65 121.5c5.33301 9.33301 6 16.5 2 21.5s-8.33301 9.16699 -13 12.5c-5.33301 3.33301 -11.166 6.5 -17.499 9.5
s-8.16602 7.5 -5.49902 13.5c1.33301 5.33301 5.33301 7.83301 12 7.5s12 -0.5 16 -0.5c7.33301 0 14.666 -0.333008 21.999 -1s15 -0.333984 23 0.999023l36.5 52c13 18 26.5 35.667 40.5 53s28.333 33.666 43 48.999s29.334 28.666 44.001 39.999
c14 10.667 29.5 20.834 46.5 30.501s34.667 18 53 25s36.833 12 55.5 15s36.667 3.16699 54 0.5c8 -1.33301 14.833 -5.16602 20.5 -11.499s8.5 -11.5 8.5 -15.5c0 -1.33301 -0.666992 -3.5 -2 -6.5s-3 -6 -5 -9s-4.16699 -5.33301 -6.5 -7s-4.5 -1.83398 -6.5 -0.500977
c-11.333 11.333 -24.333 20 -39 26s-29.667 8 -45 6c-27.333 -4 -53.833 -15.667 -79.5 -35s-49.834 -41.666 -72.501 -66.999s-43.167 -51.166 -61.5 -77.499s-33.166 -48.833 -44.499 -67.5h164c5.33301 0 7.83301 -1.66699 7.5 -5s-4.16602 -5 -11.499 -5
c-26 -0.666992 -52.167 -1.83398 -78.5 -3.50098s-53.833 -3.16699 -82.5 -4.5c-5.33301 -0.666992 -9 -1.66699 -11 -3s-3.66699 -3 -5 -5l-65 -115.5l-90.5 -158l-109 -176.5c-39 -60.667 -79.5 -117.5 -121.5 -170.5s-84.833 -99.667 -128.5 -140
s-86.5 -68.833 -128.5 -85.5c-50 -20 -94 -27.833 -132 -23.5s-69.167 16.333 -93.5 36s-41.166 44.667 -50.499 75s-10.333 61.5 -3 93.5c4.66699 22 13.167 43 25.5 63s26.833 38.333 43.5 55s34.5 31.167 53.5 43.5s37.833 21.833 56.5 28.5z" />
    <glyph glyph-name="g" unicode="g" horiz-adv-x="729" 
d="M394 287c2.66699 0 4.66602 -0.665039 5.99902 -1.99805c5.33301 -1.33301 10.166 -4.33301 14.499 -9s6.5 -9.66699 6.5 -15c-1.33301 -8 -5 -16 -11 -24l-38.5 -116l-53.5 -158c102 18 198.333 27 289 27c16.667 0 31.167 -0.5 43.5 -1.5s23.166 -2.16699 32.499 -3.5
c7.33301 -1.33301 14.833 -4.33301 22.5 -9s14.667 -10.5 21 -17.5s11.5 -14.5 15.5 -22.5s6 -16.333 6 -25c0 -8 -1.66699 -15.333 -5 -22c-8.66699 -16.667 -30.334 -38.667 -65.001 -66c-6 -5.33301 -11 -8 -15 -8c-1.33301 0 -2 0.333008 -2 1
c0 4 3.33301 8.33301 10 13c39.333 36.667 59 69.667 59 99c0 24 -16.333 37.333 -49 40c-9.33301 0.666992 -20.166 1.16699 -32.499 1.5s-26.166 0.5 -41.499 0.5c-60.667 0 -115.5 -1.83301 -164.5 -5.5s-92.833 -9.83398 -131.5 -18.501
c-196.667 -560.667 -435 -850 -715 -868c-96 -5.33301 -184 23.667 -264 87c-80.667 63.333 -121 134.333 -121 213c0 24.667 5.33301 49.667 16 75c50.667 119.333 210.334 232 479.001 338c182.667 72.667 374 128 574 166c15.333 34.667 33.333 89 54 163
c3.33301 11.333 6.16602 21.833 8.49902 31.5s4.83301 18.5 7.5 26.5c-11.333 -10.667 -27.166 -23.5 -47.499 -38.5l-75.5 -54.5c-38 -26.667 -71 -48.5 -99 -65.5s-51.667 -29.833 -71 -38.5c-5.33301 -2 -11.666 -3 -18.999 -3c-24 0 -36 12 -36 36
c0 9.33301 3 19.666 9 30.999c31.333 64 86 120.667 164 170c78 48.667 151 72.667 219 72zM-749.001 -573.998c-8 -21.333 -11.998 -42.667 -11.998 -64c0 -70.667 35 -133 105 -187c74 -56.667 157.333 -83 250 -79c161.333 6 314.666 126.667 459.999 362
c44.667 72.667 85.5 149 122.5 229s70.167 165 99.5 255c-240.667 -50.667 -451.334 -117 -632.001 -199c-218 -101.333 -349 -207 -393 -317zM333.001 182.001c16.667 12.667 26 31 28 55c0 0.666992 -0.333008 1 -1 1v1c0 2 0.333008 3.33301 1 4
c0 12 -2.33301 18.333 -7 19c-7.33301 2.66699 -22.666 1 -45.999 -5c-48.667 -11.333 -97 -35.333 -145 -72c-50.667 -40 -83 -80.667 -97 -122c-0.666992 -3.33301 -1.16699 -6 -1.5 -8s-0.5 -4.66699 -0.5 -8c0 -21.333 8 -32 24 -32c14 0 55 24.333 123 73l71.5 52.5
c20.333 15.667 37.166 29.5 50.499 41.5z" />
    <glyph glyph-name="h" unicode="h" horiz-adv-x="521" 
d="M266 430l-102 -174.997l-108 -193c3.33301 2.66699 7.66602 7 12.999 13s12.666 13.667 21.999 23c21.333 21.333 44 42.666 68 63.999l74 64c61.333 48.667 103 74 125 76c2.66699 3.33301 15.667 8 39 14c4 0.666992 9 -1.5 15 -6.5s9 -10.167 9 -15.5
c0 -2.66699 -0.333008 -4.33398 -1 -5.00098c-11.333 -14 -23.333 -30.833 -36 -50.5s-26 -41.834 -40 -66.501c-32.667 -59.333 -49 -101 -49 -125c0 -17.333 9 -26 27 -26c32.667 0 86 28 160 84c2 1.33301 3.83301 2.33301 5.5 3s2.83398 1.33398 3.50098 2.00098
c0.666992 -0.666992 1 -1.33398 1 -2.00098l1 -1l-7 -7c-86.667 -70.667 -149.334 -106 -188.001 -106c-12 0 -24.333 6 -37 18c-15.333 12 -21.333 25.667 -18 41c12.667 52.667 48.334 117.667 107.001 195c2.66699 3.33301 4 7.66602 4 12.999c0 9.33301 -5 14 -15 14
c-6 0 -12.667 -2.33301 -20 -7c-37.333 -20 -89.333 -62 -156 -126c-56 -54 -99 -99 -129 -135c-1.33301 2.66699 -5 0 -11 -8c-1.33301 -3.33301 -3 -5 -5 -5c-5.33301 0 -8 5.33301 -8 16c0 3.33301 0.333008 6 1 8c26.667 56.667 58.5 119.167 95.5 187.5l127.5 226.5
c-3.33301 0.666992 -7.5 1.33398 -12.5 2.00098s-10.5 1.66699 -16.5 3c-9.33301 2 -17.666 8 -24.999 18s-11 19.667 -11 29c0 4 0.666992 7.33301 2 10s3 5.33398 5 8.00098c32.667 34.667 81.667 59 147 73c93.333 140.667 186.833 253.5 280.5 338.5
s189.167 144.5 286.5 178.5c52 18.667 103.667 28 155 28c85.333 0 156.666 -24 213.999 -72c54.667 -46.667 82 -102.334 82 -167.001c0 -49.333 -17 -96 -51 -140c-36.667 -48.667 -91.667 -90 -165 -124c-268 -126 -532 -189 -792 -189
c-11.333 0 -22.666 0.166992 -33.999 0.5s-22.333 0.833008 -33 1.5zM275 447.003l35.5029 -2.00098c12.333 -0.666992 25.166 -1 38.499 -1c55.333 0 111.166 3.5 167.499 10.5s114.166 17.167 173.499 30.5c75.333 18 148 40.667 218 68s137.667 60 203 98
c138.667 80.667 208 165.334 208 254.001c0 58 -28 106 -84 144c-56 40 -121.333 60 -196 60c-48.667 0 -96 -9.66699 -142 -29c-112 -46.667 -219.333 -122.5 -322 -227.5s-202.667 -240.167 -300 -405.5zM244.003 449.002l36.5 57.998l36.5 57
c-28 -8 -51.833 -18.167 -71.5 -30.5s-36.167 -26.166 -49.5 -41.499c-5.33301 -5.33301 -8 -11.666 -8 -18.999c0 -11.333 7.33301 -18 22 -20c9.33301 -1.33301 16.833 -2.33301 22.5 -3s9.5 -1 11.5 -1z" />
    <glyph glyph-name="i" unicode="i" horiz-adv-x="230" 
d="M302 130c-8 -8 -20.1689 -18.334 -36.502 -31.001s-34.333 -25.834 -54 -39.501s-39.5 -26.5 -59.5 -38.5s-37.333 -21.333 -52 -28c-4 -1.33301 -10.167 -1.33301 -18.5 0s-16.666 4.5 -24.999 9.5s-15.666 11.667 -21.999 20s-9.5 18.5 -9.5 30.5
c0 10.667 2.66699 24.5 8 41.5s12 35 20 54s16.667 38.333 26 58l26 54l20 42c5.33301 11.667 8.33301 18.834 9 21.501c1.33301 8 5.33301 13.5 12 16.5s13 3.5 19 1.5s10.333 -6.66699 13 -14s1 -17 -5 -29l-52.5 -98.5l-26.5 -50.5
c-5.33301 -10.667 -8.5 -17.167 -9.5 -19.5s-1.83301 -4.5 -2.5 -6.5s-2.16699 -5.66699 -4.5 -11s-7.5 -16.333 -15.5 -33s-12.167 -29.5 -12.5 -38.5s1.83398 -15.5 6.50098 -19.5s10.5 -5.83301 17.5 -5.5s13.833 1.16602 20.5 2.49902c12.667 2.66699 28.5 9 47.5 19
s38.5 21.333 58.5 34s38.667 25.334 56 38.001s30.666 23.334 39.999 32.001c6 6 10.333 9.33301 13 10s4.16699 0 4.5 -2s-0.5 -5 -2.5 -9s-5 -7.66699 -9 -11zM238.998 438.999c-2 -11.333 -11.3311 -24.332 -27.998 -38.999c-14.667 -14 -27 -20 -37 -18
c-14.667 2.66699 -22 8.33398 -22 17.001c0 9.33301 7.66699 21.666 23 36.999c15.333 16 27.666 25 36.999 27c7.33301 1.33301 14.166 -0.833984 20.499 -6.50098s8.5 -11.5 6.5 -17.5z" />
    <glyph glyph-name="j" unicode="j" horiz-adv-x="230" 
d="M16 -40c4.66699 10.667 10.1621 25 16.4951 43s12.666 37.167 18.999 57.5l18.5 62c6 21 11.167 40 15.5 57s7.5 31.333 9.5 43s2.33301 18.167 1 19.5c1.33301 7.33301 6.33301 14.833 15 22.5s16 12.167 22 13.5c7.33301 2.66699 13.333 2.5 18 -0.5
s6.66699 -7.5 6 -13.5c-0.666992 -7.33301 -4.33398 -15.333 -11.001 -24c-4.66699 -12 -10.5 -28.833 -17.5 -50.5l-23.5 -71.5l-26 -79.5c-8.66699 -27 -17 -51.167 -25 -72.5c30.667 5.33301 64 10.166 100 14.499s70.833 7.5 104.5 9.5s64.5 3 92.5 3
c28.667 0 51.334 -1.66699 68.001 -5c8.66699 -2 17.667 -6.16699 27 -12.5s17.333 -14 24 -23s11.167 -19 13.5 -30s0.833008 -21.5 -4.5 -31.5c-8.66699 -15.333 -18.334 -27.333 -29.001 -36l-36 -30c-9.33301 -7.33301 -14.666 -9.83301 -15.999 -7.5
s1.66699 7.16602 9 14.499c13.333 12 25 25.333 35 40s17 28.334 21 41.001c5.33301 18 3.33301 31.833 -6 41.5s-22.666 15.167 -39.999 16.5c-17.333 2 -41.333 3 -72 3c-30 0 -62.667 -1 -98 -3s-70.666 -4.83301 -105.999 -8.5s-66.666 -8.5 -93.999 -14.5
c-17.333 -50.667 -38.333 -106.667 -63 -168s-53 -123.5 -85 -186.5s-67.5 -124.333 -106.5 -184s-82.167 -113.334 -129.5 -161.001s-98.666 -86.667 -153.999 -117s-114.666 -47.5 -177.999 -51.5c-36.667 -2.66699 -73.167 0.666016 -109.5 9.99902
s-70.166 23 -101.499 41s-59.666 39.333 -84.999 64s-45.5 51.334 -60.5 80.001s-24 58.334 -27 89.001s1.83301 61 14.5 91c14.667 34.667 37.667 67.667 69 99s68.333 61.166 111 89.499s89.5 54.833 140.5 79.5s103.667 47.834 158 69.501s109.166 41.334 164.499 59.001
s108.333 33.667 159 48s97.667 26.5 141 36.5s80.333 18 111 24zM-1014 -572c-10.667 -26 -14.501 -52.3311 -11.501 -78.998s11 -52.5 24 -77.5s30.667 -48.333 53 -70s47.833 -40.5 76.5 -56.5s60.167 -28.167 94.5 -36.5s69.833 -11.833 106.5 -10.5
c62.667 2.66699 121.834 21.167 177.501 55.5s107.167 78 154.5 131s90.333 111.5 129 175.5s72.834 127 102.501 189s54.5 119.167 74.5 171.5s35 93.5 45 123.5c-69.333 -14.667 -140.833 -31.834 -214.5 -51.501s-145.834 -41.834 -216.501 -66.501
s-138.5 -51.834 -203.5 -81.501s-123.833 -61.167 -176.5 -94.5s-97.667 -68.666 -135 -105.999s-64 -76 -80 -116zM212.994 427.002c-2 -11.333 -10.999 -24.332 -26.999 -38.999c-16.667 -14.667 -29.334 -20.667 -38.001 -18c-14 2.66699 -21 8.33398 -21 17.001
c0 9.33301 7.66699 21.666 23 36.999c15.333 16 27.666 25 36.999 27c6.66699 1.33301 13.334 -0.833984 20.001 -6.50098s8.66699 -11.5 6 -17.5z" />
    <glyph glyph-name="k" unicode="k" horiz-adv-x="550" 
d="M312 431l-29.0029 0.00292969c-10 0 -19.667 0.333008 -29 1c-2.66699 -1.33301 -5.5 -2.33301 -8.5 -3s-5.83301 -1.66699 -8.5 -3c-8.66699 -17.333 -20.5 -38.833 -35.5 -64.5l-54.5 -92.5c126 91.333 212 137 258 137c19.333 0 30 -7.66699 32 -23
c0 -12.667 -4.33301 -29 -13 -49c-18 -34 -54.333 -63.333 -109 -88c-52 -23.333 -102 -35 -150 -35c19.333 -34 43.166 -68.5 71.499 -103.5s62.166 -70.5 101.499 -106.5c83.333 -77.333 157.666 -125.666 222.999 -144.999c11.333 -3.33301 21.666 -5 30.999 -5
c45.333 0 76 18 92 54c2 4.66699 4.33301 6.33398 7 5.00098c0.666992 -0.666992 1 -1.66699 1 -3c0 -2 0.333008 -3.66699 1 -5c-5.33301 -11.333 -12.166 -23 -20.499 -35s-19.5 -22.667 -33.5 -32c-2 -1.33301 -18.333 -0.333008 -49 3c-14 2 -25 4.16699 -33 6.5
l-19 5.5c-120.667 32.667 -260.667 147.667 -420 345c-13.333 -21.333 -27 -47.5 -41 -78.5l-46 -106.5c-1.33301 -3.33301 -3.33301 -5 -6 -5c-3.33301 0 -6.66602 5.33301 -9.99902 16c0 3.33301 0.333008 6 1 8l46.5 115.5c13 31.667 24.5 57.167 34.5 76.5
c-5.33301 17.333 -5.16602 30.666 0.500977 39.999s13.167 13 22.5 11l52 89l45 75h-4c-3.33301 0.666992 -7.5 1.16699 -12.5 1.5s-10.5 1.16602 -16.5 2.49902c-9.33301 2 -17.666 8 -24.999 18s-11 19.667 -11 29c0 7.33301 2.33301 13.333 7 18
c16.667 17.333 37.334 32.166 62.001 44.499s53 22.166 85 29.499c93.333 140 186.833 252.667 280.5 338s189.167 145 286.5 179c52.667 18 104.334 27 155.001 27c84.667 0 156.334 -23.667 215.001 -71c54 -48 81 -104 81 -168c0 -48.667 -17 -95 -51 -139
c-36 -48.667 -91 -90.334 -165 -125.001c-268 -126 -532 -189 -792 -189zM253.997 450.003c11.333 -0.666992 23.168 -1.16602 35.501 -1.49902s25.166 -0.5 38.499 -0.5c110.667 0 224.334 13.333 341.001 40c151.333 37.333 291.666 92.666 420.999 165.999
c138.667 80.667 208 165.667 208 255c0 56.667 -28 104.667 -84 144c-56.667 39.333 -121.667 59 -195 59c-49.333 0 -97 -9.66699 -143 -29c-112 -46.667 -219.333 -122.5 -322 -227.5s-202.667 -240.167 -300 -405.5zM327.999 268.004
c33.333 25.333 48.999 52.001 46.999 80.001c0 19.333 -11.333 27.333 -34 24c-20 -2.66699 -55.667 -20.667 -107 -54c-42 -28.667 -70.667 -51 -86 -67l5 -12.5c2 -5 5 -10.833 9 -17.5c2 -0.666992 6.33301 -1 13 -1c10.667 0 22.5 1 35.5 3s27.167 5.66699 42.5 11
c16 5.33301 30.333 10.666 43 15.999s23.334 11.333 32.001 18zM222.998 452.005l37 58.5l36 57.5c-54 -16.667 -94.333 -41 -121 -73c-5.33301 -4.66699 -8 -11 -8 -19c0 -10.667 7.33301 -17 22 -19c9.33301 -2 16.833 -3.33301 22.5 -4s9.5 -1 11.5 -1z" />
    <glyph glyph-name="l" unicode="l" horiz-adv-x="343" 
d="M26 114c-1.33301 34.667 2.66602 70.8311 11.999 108.498s22.333 75.834 39 114.501v3c246.667 559.333 511.334 848 794.001 866c97.333 5.33301 182.666 -23.667 255.999 -87c74.667 -62.667 108.667 -134 102 -214c-3.33301 -26 -10.666 -50.667 -21.999 -74
c-63.333 -120.667 -233.666 -233.334 -510.999 -338.001c-95.333 -36.667 -191.833 -68.667 -289.5 -96s-197.167 -50.666 -298.5 -69.999c-11.333 -31.333 -20.833 -64.166 -28.5 -98.499s-11.834 -65.166 -12.501 -92.499c-1.33301 -31.333 3.16699 -54 13.5 -68
s23.333 -22 39 -24s32.667 0.833008 51 8.5s35.5 17.5 51.5 29.5c8.66699 6.66699 16.5 13.5 23.5 20.5l21.5 22.5c5.33301 5.33301 9.16602 7.5 11.499 6.5s0.833008 -5.16699 -4.5 -12.5c-5.33301 -6.66699 -12.166 -14.334 -20.499 -23.001
s-16.166 -16.334 -23.499 -23.001c-23.333 -20.667 -47 -36 -71 -46s-45.667 -13.667 -65 -11s-35.333 11.834 -48 27.501s-19.334 39.167 -20.001 70.5zM1186 857.997c4.66699 10.667 8.33594 21.167 11.0029 31.5s4.66699 21.166 6 32.499
c7.33301 70.667 -22.334 133 -89.001 187c-66.667 56 -147.667 82.333 -243 79c-161.333 -7.33301 -325 -128 -491 -362c-50.667 -70 -97.334 -143.5 -140.001 -220.5s-82.334 -158.167 -119.001 -243.5h1l-4 -10c-1.33301 -3.33301 -3 -6.66602 -5 -9.99902
c122 25.333 237 54.333 345 87s209.667 70 305 112c226.667 99.333 367.667 205 423 317z" />
    <glyph glyph-name="m" unicode="m" horiz-adv-x="620" 
d="M12 1c-2 -0.666992 -3.33496 0.670898 -4.00195 4.00391c-0.666992 5.33301 -0.666992 9.66602 0 12.999c0.666992 4.66699 4.33398 12.334 11.001 23.001c9.33301 18 21.333 38.167 36 60.5l51 75.5c19.333 28 36.666 51.667 51.999 71s28.333 34.333 39 45
c4 3.33301 9.66699 6.5 17 9.5s12.666 3.5 15.999 1.5c2.66699 -2 1.33398 -5 -3.99902 -9c-4.66699 -2.66699 -18.334 -17.667 -41.001 -45c-26 -30 -49 -63 -69 -99c-8.66699 -15.333 -9.33398 -23 -2.00098 -23c3.33301 0 7 2 11 6c40 41.333 88.667 79.666 146 114.999
c42 26 72.333 36 91 30c6.66699 -2 10 -7 10 -15c0 -6.66699 -3.83301 -18.667 -11.5 -36s-18.834 -40.333 -33.501 -69c-4 -6 -6 -11.667 -6 -17c0 -7.33301 3 -11 9 -11c4 0 7.33301 1.33301 10 4c46.667 42 90.167 77.5 130.5 106.5s77.5 51.5 111.5 67.5
c4 2 7.66699 3 11 3c11.333 0 15.666 -7 12.999 -21c-2.66699 -2.66699 -5.5 -5.83398 -8.5 -9.50098l-10.5 -12.5c-13.333 -29.333 -28.833 -60.5 -46.5 -93.5s-38.167 -68.5 -61.5 -106.5c-6.66699 -9.33301 -10 -17.333 -10 -24c0 -5.33301 2.33301 -8 7 -8
c2.66699 0 5.33398 0.666992 8.00098 2s6 2.66602 10 3.99902c49.333 22.667 111 45.667 185 69c52 16 99.5 28.667 142.5 38s82.167 15 117.5 17c28.667 1.33301 54.667 0.166016 78 -3.50098s44 -10.834 62 -21.501c36.667 -21.333 55 -47.666 55 -78.999
c0 -9.33301 -1.33301 -18 -4 -26c-4.66699 -13.333 -13 -22.333 -25 -27c-5.33301 -3.33301 -9.66602 -5 -12.999 -5c-2.66699 0 -4 1 -4 3c0 2.66699 2.5 5.66699 7.5 9s10.5 12 16.5 26c4.66699 11.333 7 20.666 7 27.999c0 23.333 -12 43 -36 59
c-25.333 17.333 -60.333 26 -105 26c-5.33301 0 -11 -0.166992 -17 -0.5s-12 -0.833008 -18 -1.5c-98 -10 -195.333 -32.333 -292 -67c-102 -36 -187 -80 -255 -132c-3.33301 -2 -6.33301 -3 -9 -3c-8 0 -12 3.66699 -12 11c0 2.66699 1 5 3 7l24 24
c-2 6.66699 -1.66699 14.667 1 24c54.667 67.333 93.667 131.666 117 192.999c4.66699 9.33301 7 18.333 7 27c0 11.333 -4.66699 17 -14 17c-5.33301 0 -12 -3 -20 -9c-100 -80 -164 -140 -192 -180c-1.33301 -1.33301 -3.83301 -3.33301 -7.5 -6
s-9.16699 -5.33398 -16.5 -8.00098l-21 -9.5c-5.33301 -2.33301 -9.66602 -4.5 -12.999 -6.5c-4 -2 -8.16699 -0.666992 -12.5 4s-5.16602 8.66699 -2.49902 12c20 29.333 37.167 57.5 51.5 84.5s25.5 53.167 33.5 78.5c2.66699 6 4 12.333 4 19c0 12 -5 18 -15 18
c-2.66699 0 -7 -1 -13 -3c-6.66699 -3.33301 -16 -9.16602 -28 -17.499s-26.667 -20.166 -44 -35.499c-38.667 -32 -72 -64 -100 -96c-7.33301 -8 -15.666 -18.167 -24.999 -30.5s-19.666 -26.833 -30.999 -43.5c-2 -3.33301 -10 -7.66602 -24 -12.999
c-7.33301 -2.66699 -13 -5 -17 -7s-6.66699 -3.66699 -8 -5z" />
    <glyph glyph-name="n" unicode="n" horiz-adv-x="417" 
d="M19 24c-7.33301 -1.33301 -11.334 -0.000976562 -12.001 3.99902c-2.66699 2.66699 -2 8 2 16c15.333 32.667 41.333 77 78 133c17.333 26.667 33.666 50.5 48.999 71.5s29.666 39.5 42.999 55.5c2 3.33301 4.83301 6 8.5 8s9.16699 3.66699 16.5 5
c4 0.666992 6.33301 0.666992 7 0c0 -2.66699 -1 -5 -3 -7c-25.333 -29.333 -47.166 -58.5 -65.499 -87.5s-34.166 -58.5 -47.499 -88.5c-2.66699 -3.33301 -4 -7.66602 -4 -12.999c0 -7.33301 2.66699 -11 8 -11c4 0 8 2.33301 12 7c18.667 18 38.167 35.833 58.5 53.5
l62.5 52.5c50 40 83.667 63.333 101 70c9.33301 8 17.666 13.333 24.999 16c14.667 6.66699 26.334 8 35.001 4c9.33301 -3.33301 9 -11 -1 -23c-47.333 -60.667 -90 -130.667 -128 -210c-36.667 -78.667 -56.334 -141.334 -59.001 -188.001
c-2.66699 -30.667 3.66602 -54.334 18.999 -71.001c14 -14.667 32.333 -22 55 -22c10.667 0 20.334 1.33301 29.001 4c38 10.667 85.667 40.334 143 89.001c63.333 54 95 97.333 95 130c0 6.66699 -1.5 11.5 -4.5 14.5s-6.5 5 -10.5 6s-7.66699 1.5 -11 1.5
c-2.66699 0 -4 1 -4 3c0 4 2.83301 7.33301 8.5 10s10.834 4 15.501 4c11.333 0 17 -7.66699 17 -23c0 -7.33301 -2 -17 -6 -29c-6 -19.333 -16.667 -39.666 -32 -60.999s-34.666 -43.666 -57.999 -66.999c-64 -63.333 -133.333 -99 -208 -107
c-26.667 -2.66699 -48.667 4.66602 -66 21.999c-18.667 20 -26.334 51.333 -23.001 94c4 48 25 108.333 63 181c15.333 30.667 31.5 60.167 48.5 88.5s35.167 55.833 54.5 82.5c2 2.66699 3 6 3 10c0 10.667 -6 16 -18 16c-5.33301 0 -10.666 -1.66699 -15.999 -5
c-38 -26.667 -75.833 -58 -113.5 -94s-76.167 -77 -115.5 -123c-6.66699 -8.66699 -23.667 -16 -51 -22z" />
    <glyph glyph-name="o" unicode="o" horiz-adv-x="371" 
d="M64 -17c-4.66699 -0.666992 -9.6709 -0.163086 -15.0039 1.50391s-10.166 4.16699 -14.499 7.5s-8 7.33301 -11 12s-4.5 9.66699 -4.5 15c1.33301 55.333 46 137 134 245c2.66699 4.66699 2 7.66699 -2 9c-6 3.33301 -12 7.16602 -18 11.499s-9 8.5 -9 12.5
c0 2 1 4.66699 3 8s10.667 5.33301 26 6c24.667 0.666992 37.334 1 38.001 1c2.66699 0 6.33398 1.33301 11.001 4c14.667 14 29.334 21.333 44.001 22c10.667 0.666992 25.667 -5.33301 45 -18c1.33301 -0.666992 2.5 -1.33398 3.5 -2.00098s2.16699 -1.33398 3.5 -2.00098
c15.333 -0.666992 33.833 -1.33398 55.5 -2.00098s46.5 -1.33398 74.5 -2.00098c10 -1.33301 15 -2.66602 15 -3.99902c0 -4 -5 -6 -15 -6c-20.667 0 -34 -4 -40 -12c-1.33301 -2 -1.33301 -4 0 -6l2 -6c0.666992 -2 1 -3.66699 1 -5c-2 -25.333 -12.833 -52.5 -32.5 -81.5
s-49.5 -60.5 -89.5 -94.5c-78 -67.333 -146.333 -105.333 -205 -114zM49.9961 36.0039c-4 -7.33301 -5.99902 -14.666 -5.99902 -21.999c0 -16 10.667 -22 32 -18c45.333 7.33301 99.666 40 162.999 98c66.667 59.333 105 113.333 115 162c4.66699 20 -8 31.667 -38 35
c-16 2 -31 2.16699 -45 0.5s-27 -4.83398 -39 -9.50098c-1.33301 0.666992 -7 -2.33301 -17 -9c-71.333 -66 -126.333 -145 -165 -237z" />
    <glyph glyph-name="p" unicode="p" horiz-adv-x="417" 
d="M41 -77c10 -1.33301 15.001 -3.99707 15.001 -7.99707c0 -6.66699 -5 -9 -15 -7c-18 2 -39.333 3 -64 3l-16 -39l-16 -40c-80.667 -200.667 -163.167 -362.667 -247.5 -486s-169.5 -208.666 -255.5 -255.999c-47.333 -24.667 -93 -37 -137 -37c-70.667 0 -131 29 -181 87
c-24.667 30 -43.167 62.167 -55.5 96.5s-18.5 72.166 -18.5 113.499c0 119.333 53 224.666 159 315.999c54 47.333 114.833 88.5 182.5 123.5s142.5 63.5 224.5 85.5c58.667 15.333 116 27.5 172 36.5s112.333 13.833 169 14.5l16.5 32.5l14.5 29l15 30.5
c5.33301 10.667 12 22.667 20 36c14.667 25.333 28.834 51.166 42.501 77.499l42.5 78.5c-13.333 12 -19 22 -17 30c4 11.333 21.667 23.333 53 36l63 96l90 136c3.33301 5.33301 15.333 12 36 20c8.66699 2.66699 13 1.66699 13 -3c0 -2.66699 -1 -4.33398 -3 -5.00098
s-5 -4 -9 -10l-64.5 -97c-23 -35.333 -47.167 -75 -72.5 -119c27.333 10.667 51.666 18.334 72.999 23.001s40.666 7 57.999 7c48 0 72 -22 72 -66c0 -34.667 -15.333 -73.334 -46 -116.001c81.333 21.333 128 32.333 140 33c2.66699 0.666992 5 0.666992 7 0
c0.666992 -1.33301 0.666992 -2.33301 0 -3c-2 -2 -4.33301 -3.33301 -7 -4c-23.333 -6.66699 -49.333 -14.5 -78 -23.5l-94 -30.5c-56 -52 -127 -83 -213 -93c-14 -1.33301 -21 5 -21 19c0 4 1.33301 7.33301 4 10c8.66699 5.33301 31 14.5 67 27.5s86 30.167 150 51.5
c34 38.667 51 79 51 121c0 36 -20 54 -60 54c-15.333 0 -32.833 -3.33301 -52.5 -10s-42.167 -16.667 -67.5 -30c-12.667 -21.333 -26.167 -41.333 -40.5 -60s-29.666 -40 -45.999 -64s-33.833 -52.833 -52.5 -86.5s-38.334 -76.167 -59.001 -127.5c21.333 0 41 -1 59 -3z
M-79.999 -163.997l14.001 33.501l18 41.5c-50.667 -0.666992 -101.5 -5.16699 -152.5 -13.5s-103.833 -20.5 -158.5 -36.5c-78.667 -23.333 -151 -52.333 -217 -87s-126 -75.667 -180 -123c-121.333 -103.333 -182 -211 -182 -323c0 -70.667 25.667 -131 77 -181
c24 -24.667 50.5 -42.834 79.5 -54.501s60.167 -17.5 93.5 -17.5c43.333 0 83.666 10.333 120.999 31c75.333 40.667 151.666 117.667 228.999 231c28.667 41.333 57.334 87 86.001 137s56.667 105.333 84 166l43.5 97.5z" />
    <glyph glyph-name="q" unicode="q" horiz-adv-x="464" 
d="M12 73c25.333 73.333 82.3379 143.333 171.005 210c34.667 25.333 67 46.666 97 63.999s58.333 29.666 85 36.999c28.667 8.66699 51 13 67 13c12.667 0 24 -2.66699 34 -8c22 4 33 2.33301 33 -5c0 -3.33301 -2 -7.33301 -6 -12c-18 -20.667 -39.333 -47 -64 -79
l-84 -114c-30.667 -52 -64.334 -105.833 -101.001 -161.5l-108.5 -170c-35.667 -57.667 -69.334 -115.5 -101.001 -173.5s-57.834 -115 -78.501 -171c-94 -235.333 -63.667 -356 91 -362c44.667 -1.33301 94.667 4.5 150 17.5s115.333 33.5 180 61.5
c24 10.667 46.833 21.667 68.5 33l62.5 34c-17.333 -12.667 -36.5 -25.667 -57.5 -39s-43.167 -25.666 -66.5 -36.999c-73.333 -32 -139.833 -55.333 -199.5 -70s-112.5 -20.667 -158.5 -18c-52 0.666992 -90.833 12.334 -116.5 35.001s-40.334 54.334 -44.001 95.001
s2.83301 89.167 19.5 145.5s41.167 118.666 73.5 186.999s71.833 141.333 118.5 219s98.334 158.167 155.001 241.5c3.33301 5.33301 9.66602 14.833 18.999 28.5l29 41.5l26.5 37.5c7.66699 11 11.834 17.167 12.501 18.5c2.66699 2.66699 4 6 4 10
c0 4.66699 -2.66699 7 -8 7c-7.33301 0 -13.333 -3 -18 -9c-32.667 -32 -64.334 -60.833 -95.001 -86.5s-60.667 -47.5 -90 -65.5c-20.667 -14 -40.334 -21 -59.001 -21c-29.333 0 -44 15.333 -44 46c0 6 1 12.667 3 20zM399.005 300
c9.33301 10.667 13.999 21.668 13.999 33.001s-3.16699 20.166 -9.5 26.499s-14.166 8.5 -23.499 6.5c-57.333 -10 -123.333 -48 -198 -114c-83.333 -72 -125 -134 -125 -186c0 -16.667 7.33301 -25 22 -25s36 8.83301 64 26.5s63 45.167 105 82.5
c34 30 63.333 57.5 88 82.5s45.667 47.5 63 67.5z" />
    <glyph glyph-name="r" unicode="r" horiz-adv-x="271" 
d="M-19 -13c-3.33301 -4 -5.33301 -3.99609 -6 0.00390625c-1.33301 3.33301 -1 6.66602 1 9.99902c64.667 100 108.667 177 132 231c4 10 6 18.333 6 25c0 1.33301 -1 5 -3 11c-0.666992 2.66699 -0.666992 5 0 7c8 2.66699 33 16.667 75 42c0.666992 1.33301 2 2 4 2
c4 0 6.66699 -1.66699 8 -5c2.66699 -4 2.33398 -7.66699 -0.999023 -11l-54.5 -76.5c-15 -21.667 -26.167 -39.834 -33.5 -54.501c-2 -4 -3 -7.33301 -3 -10c0 -3.33301 3.66699 -3.66602 11 -0.999023c6 2.66699 10 5.33398 12 8.00098
c26 31.333 59.667 63.666 101 96.999c42.667 34.667 76 57 100 67c20.667 0.666992 36 -1.33301 46 -6c0.666992 -0.666992 1 -1.33398 1 -2.00098c0 -2 -1.16699 -4.83301 -3.5 -8.5s-5 -7 -8 -10s-6.16699 -5.33301 -9.5 -7s-6 -1.83398 -8 -0.500977
c-13.333 6 -31.333 3 -54 -9c-98.667 -54.667 -186.667 -145.334 -264 -272.001c0 -2 -2.66699 -4.33301 -8 -7c-5.33301 -2 -11.333 -4.5 -18 -7.5s-14.334 -7.16699 -23.001 -12.5z" />
    <glyph glyph-name="s" unicode="s" horiz-adv-x="494" 
d="M186 106c54 30 106.331 53.002 156.998 69.002s101 28.333 151 37l1 -1c-46.667 -9.33301 -94.5 -23.833 -143.5 -43.5s-100.167 -44.834 -153.5 -75.501c8.66699 -11.333 14.834 -20.833 18.501 -28.5s5.5 -13.834 5.5 -18.501c0 -18.667 -22 -37.334 -66 -56.001
c-37.333 -16.667 -67.666 -25 -90.999 -25c-8 0 -15 1 -21 3c-9.33301 -1.33301 -16.833 -2.66602 -22.5 -3.99902s-10.167 -1.33301 -13.5 0c-8.66699 0.666992 -10.667 5 -6 13c11.333 14 56.333 48.333 135 103l-32 43c-7.33301 9.33301 -12.833 18.333 -16.5 27
s-6.16699 17.667 -7.5 27c-5.33301 44.667 40 95 136 151c48 28.667 93.167 49.834 135.5 63.501s82.166 20.167 119.499 19.5c4 0 7.66699 -2 11 -6c2.66699 -6 2.66699 -10.333 0 -13c-4.66699 -6.66699 -12.167 -13.334 -22.5 -20.001s-17.833 -9.33398 -22.5 -8.00098
c-15.333 5.33301 -28.333 9 -39 11s-19.667 3 -27 3c-4 0 -7.83301 -0.166992 -11.5 -0.5s-7.16699 -0.833008 -10.5 -1.5c-38 -9.33301 -82 -31.666 -132 -66.999c-63.333 -43.333 -92.666 -81.333 -87.999 -114c2 -13.333 9.33301 -30.333 22 -51
c14 -20 25.333 -32.333 34 -37zM52.998 -13.998c-5.33301 -6 -4 -9.66699 4 -11c12 -2.66699 32.333 1 61 11c13.333 5.33301 24.5 10 33.5 14s15.167 8.66699 18.5 14c2.66699 3.33301 4 7 4 11c0 10.667 -7.66699 23 -23 37c-10.667 -6.66699 -27 -18 -49 -34
c-13.333 -9.33301 -24 -17.333 -32 -24s-13.667 -12.667 -17 -18z" />
    <glyph glyph-name="t" unicode="t" horiz-adv-x="757" 
d="M172 -556c-53.333 0 -97.3301 20.002 -131.997 60.002c-18 19.333 -29.333 41.166 -34 65.499s-7 50.833 -7 79.5c0 94 38.333 228.667 115 404c34 77.333 68 147 102 209s68 117.667 102 167c8 8.66699 12 18.667 12 30c0 12 -6 21.333 -18 28
c-24 9.33301 -33.333 19.666 -28 30.999c2 4 11.833 7 29.5 9s42.5 3 74.5 3c2.66699 0 3 1 1 3s-2.33301 4 -1 6c32 50 69 99.833 111 149.5l132 154.5c4 4.66699 22.667 13.334 56 26.001c16 5.33301 27.5 9.5 34.5 12.5s14.5 4.5 22.5 4.5c7.33301 0 11 -3 11 -9
c0 -2.66699 -3.33301 -5 -10 -7c-62.667 -12.667 -166.334 -118.334 -311.001 -317.001c-10.667 -15.333 -8.33398 -23 6.99902 -23h145c39.333 0 69.833 -0.166992 91.5 -0.5s35.167 -0.5 40.5 -0.5c6 0 10 -1 12 -3c0 -1.33301 -1.83301 -4.83301 -5.5 -10.5
s-8.5 -8.83398 -14.5 -9.50098c-38 -1.33301 -81.5 -3.5 -130.5 -6.5s-104.833 -6.16699 -167.5 -9.5c-11.333 -2 -19.666 -7.33301 -24.999 -16c-35.333 -52 -68.666 -103.667 -99.999 -155s-62 -107 -92 -167c-46 -95.333 -82.333 -181.833 -109 -259.5
s-42.667 -147.5 -48 -209.5c-0.666992 -8.66699 -1 -16.667 -1 -24v-24c0 -116 41 -174 123 -174c23.333 0 49.333 4.33301 78 13c42 13.333 83.667 34.333 125 63s83.333 66 126 112c44 46 77.833 89 101.5 129s38.167 78 43.5 114c0 62.667 -22.333 90.334 -67 83.001
c-10 -1.33301 -18.667 -4.33301 -26 -9s-12.666 -7 -15.999 -7c-6.66699 0 -9.33398 3 -8.00098 9c3.33301 5.33301 8.16602 10 14.499 14s18.166 9.66699 35.499 17c2.66699 0.666992 6.66699 1 12 1c21.333 0 41.666 -14.333 60.999 -43c20 -30 29.333 -52.667 28 -68
c-13.333 -88 -77 -183.667 -191 -287c-58 -52 -112.167 -91.333 -162.5 -118s-97.833 -40 -142.5 -40z" />
    <glyph glyph-name="u" unicode="u" horiz-adv-x="470" 
d="M443 297c-9.33301 -14 -19.6709 -31.0049 -31.0039 -51.0049s-22.166 -40.5 -32.499 -61.5s-19.5 -41.5 -27.5 -61.5s-13 -36.667 -15 -50c-2 -12 -2.16699 -20.667 -0.5 -26s4.16699 -8.5 7.5 -9.5s7.5 -0.833008 12.5 0.5l14.5 4
c4.66699 1.33301 10.334 3.5 17.001 6.5s12 5.83301 16 8.5c10.667 7.33301 16.5 8.16602 17.5 2.49902s-2.5 -12.167 -10.5 -19.5c-6.66699 -7.33301 -14.834 -14.166 -24.501 -20.499s-18.834 -11.166 -27.501 -14.499c-4 -1.33301 -9 -0.666016 -15 2.00098
s-11.5 6.5 -16.5 11.5s-9.33301 10.667 -13 17s-5.5 12.833 -5.5 19.5c0 12.667 1.5 26 4.5 40s6.83301 27.667 11.5 41s9.83398 26.5 15.501 39.5l15.5 36.5c4 10 4 18.167 0 24.5s-12 3.5 -24 -8.5l-62.5 -60.5l-77.5 -72c-26 -23.667 -50.167 -44.667 -72.5 -63
s-38.833 -29.166 -49.5 -32.499c-18 -6 -32.667 -3.16699 -44 8.5s-16.333 25.834 -15 42.501c1.33301 15.333 5.5 33 12.5 53s16 40.5 27 61.5s23 42.333 36 64s26.167 42.167 39.5 61.5l37.5 52.5c11.667 15.667 21.834 28.5 30.501 38.5
c3.33301 4 7.83301 6.83301 13.5 8.5s10.5 1.83398 14.5 0.500977s6.33301 -4.16602 7 -8.49902s-2 -10.5 -8 -18.5c-15.333 -18.667 -31.5 -40.334 -48.5 -65.001s-33.167 -49.667 -48.5 -75s-29.166 -50 -41.499 -74s-20.833 -45 -25.5 -63
c-8 -27.333 -7.83301 -44.833 0.5 -52.5s20.833 -6.83398 37.5 2.49902c26 16 53.5 37.167 82.5 63.5s57.667 53.833 86 82.5l81.5 84c26 27.333 49 50 69 68c6 6 11.333 8 16 6s8.33398 -5.83301 11.001 -11.5s4.16699 -11.667 4.5 -18s-0.5 -11.166 -2.5 -14.499z" />
    <glyph glyph-name="v" unicode="v" horiz-adv-x="321" 
d="M47 11c-8 0.666992 -15.3359 3.66992 -22.0029 9.00293s-9 10.666 -7 15.999c16.667 74 66.334 168 149.001 282c2 2.66699 5.33301 4 10 4c10.667 0 16 -4.33301 16 -13c0 -1.33301 -0.333008 -2.5 -1 -3.5s-1.33398 -2.16699 -2.00098 -3.5
c-60.667 -96 -98.334 -170.667 -113.001 -224c-2 -8 -3 -15 -3 -21c0 -14.667 5 -22 15 -22c6.66699 0 15 4 25 12c14 11.333 30.667 28.666 50 51.999s41.666 52 66.999 86l50.5 69l49.5 69c2 3.33301 3.83301 9.33301 5.5 18s4.83398 19.334 9.50098 32.001
c9.33301 7.33301 17.333 13.333 24 18s12.334 8.33398 17.001 11.001c1.33301 0.666992 3.5 0.166992 6.5 -1.5s6 -3.66699 9 -6s5.33301 -4.83301 7 -7.5s2.16699 -4.33398 1.5 -5.00098c-19.333 -27.333 -28.333 -47.333 -27 -60c0.666992 -8 5 -15 13 -21
c2 -1.33301 3 -3 3 -5c0 -6.66699 -4.66699 -9 -14 -7c-7.33301 2 -13.666 4.16699 -18.999 6.5s-9.66602 5.16602 -12.999 8.49902c-2 2 -6 -0.666992 -12 -8c-11.333 -16.667 -25 -35.5 -41 -56.5s-34.667 -44.167 -56 -69.5c-48.667 -58 -90 -101.333 -124 -130
c-15.333 -14.667 -29.666 -22 -42.999 -22c-0.666992 -0.666992 -1.66699 -1.33398 -3 -2.00098l-4 -2c-1.33301 -0.666992 -3 -1.33398 -5 -2.00098c-4.66699 -1.33301 -11 -1.66602 -19 -0.999023z" />
    <glyph glyph-name="w" unicode="w" horiz-adv-x="527" 
d="M568 260c3.33301 0 4.99805 -1.33398 4.99805 -4.00098c0 -2 -1.66699 -3.66699 -5 -5l-16 -4c-5.33301 -1.33301 -11 -2 -17 -2c-10.667 -59.333 -41.334 -114.333 -92.001 -165c-48.667 -48.667 -101 -75.667 -157 -81c-6.66699 -0.666992 -14.667 2.83301 -24 10.5
s-16.666 18.5 -21.999 32.5c-1.33301 4 -2 9.66699 -2 17c0 55.333 8.33301 107.666 25 156.999c2 4 1.33301 6.66699 -2 8c-3.33301 2 -6.66602 0.666992 -9.99902 -4c-32.667 -44.667 -62.5 -82.667 -89.5 -114s-51.5 -56 -73.5 -74c-22 -18.667 -40 -27 -54 -25
c-4 0 -9.5 3.33301 -16.5 10s-10.167 12.334 -9.5 17.001c2.66699 15.333 10.667 35.333 24 60s31.666 54.667 54.999 90c23.333 34.667 41.166 62.167 53.499 82.5s19.166 33.5 20.499 39.5c0.666992 4.66699 5 7 13 7c10 0 15 -4 15 -12c0 -3.33301 -1 -7 -3 -11
c-1.33301 -3.33301 -7.83301 -14.166 -19.5 -32.499l-49.5 -78.5c-16 -24.667 -29 -46.667 -39 -66s-17.333 -35.666 -22 -48.999c-1.33301 -4 -2 -7.33301 -2 -10c0 -9.33301 3.66699 -14 11 -14c4.66699 0 8.33398 1.33301 11.001 4
c14.667 10.667 31.834 26.167 51.501 46.5s42.167 45.5 67.5 75.5c42.667 52 72.334 91 89.001 117c3.33301 7.33301 7.33301 15 12 23l17 28c2.66699 2.66699 7.33398 4.5 14.001 5.5s12.667 1.5 18 1.5c5.33301 -0.666992 7.66602 -2.66699 6.99902 -6
c-7.33301 -11.333 -14.166 -25.5 -20.499 -42.5s-13.166 -37.167 -20.499 -60.5c-7.33301 -27.333 -13.166 -52.5 -17.499 -75.5s-6.5 -44.833 -6.5 -65.5v-14c0 -4 0.333008 -8 1 -12c2.66699 -32.667 17 -46.334 43 -41.001c36.667 9.33301 72.667 36.666 108 81.999
c35.333 46 54.333 94.333 57 145c-8.66699 2 -15.834 6.5 -21.501 13.5s-7.83398 12.167 -6.50098 15.5c0.666992 4.66699 4 9.33398 10 14.001s12 7 18 7c11.333 0 22.333 -12.333 33 -37c7.33301 -2.66699 20.333 -4 39 -4z" />
    <glyph glyph-name="x" unicode="x" horiz-adv-x="274" 
d="M392 298c-14.667 -6 -33.332 -16.334 -55.999 -31.001l-70 -47.5l-70 -50.5l-55 -41c2 -10.667 5.66699 -24.667 11 -42s11.166 -35 17.499 -53s13.166 -35.167 20.499 -51.5s14.666 -28.833 21.999 -37.5c8 -10 10.167 -15.667 6.5 -17s-9.16699 1.66699 -16.5 9
c-6 7.33301 -13 18.333 -21 33s-15.833 30.5 -23.5 47.5s-14.834 34 -21.501 51s-12 31.833 -16 44.5c-14 -10 -29.667 -22 -47 -36s-35.5 -29.667 -54.5 -47l-58.5 -55.5c-20 -19.667 -39.333 -40.167 -58 -61.5c-9.33301 -10.667 -20.333 -24.334 -33 -41.001
s-23.667 -34.334 -33 -53.001s-15.166 -37.667 -17.499 -57s1.83398 -37.333 12.501 -54c7.33301 -13.333 16.5 -23.333 27.5 -30s22.167 -11.334 33.5 -14.001c5.33301 -2 7.16602 -4.33301 5.49902 -7s-5.16699 -3 -10.5 -1c-10 2 -21.167 7 -33.5 15
s-22.5 17.667 -30.5 29c-12 17.333 -18.5 35.333 -19.5 54s2 37.5 9 56.5s17.167 38 30.5 57s27.666 38.167 42.999 57.5c16.667 19.333 34.834 38.833 54.501 58.5l59.5 57.5c20 18.667 39.667 36.167 59 52.5l53 44.5c-2.66699 10 -5.5 22.5 -8.5 37.5
s-5.83301 30.167 -8.5 45.5s-5 30.333 -7 45s-3.33301 27 -4 37c-0.666992 4 0 7.83301 2 11.5s4.33301 6.33398 7 8.00098s5.33398 2 8.00098 1s4.33398 -4.5 5.00098 -10.5c2 -10.667 4 -23.167 6 -37.5s4.16699 -28.666 6.5 -42.999l7 -42
c2.33301 -13.667 5.16602 -25.167 8.49902 -34.5l53 40.5l71 51.5l70.5 48c22.333 14.667 40.166 25.334 53.499 32.001c4.66699 2.66699 8.66699 3 12 1s5.83301 -4.66699 7.5 -8s1.83398 -7.16602 0.500977 -11.499s-4.66602 -7.83301 -9.99902 -10.5z" />
    <glyph glyph-name="y" unicode="y" horiz-adv-x="397" 
d="M266 0c10.667 29.333 22 69.999 34 121.999c5.33301 22.667 9.5 41.667 12.5 57s5.16699 27.666 6.5 36.999c-32.667 -28.667 -73.334 -59.334 -122.001 -92.001c-64 -43.333 -115 -72.333 -153 -87c-4 -1.33301 -7 -2 -9 -2c-6 0 -11 2.33301 -15 7
s-5.33301 9.33398 -4 14.001c4 13.333 34.333 71.333 91 174c1.33301 2.66699 1.5 8.33398 0.5 17.001s-0.5 15 1.5 19c2.66699 4.66699 15.334 12 38.001 22c24 10.667 38.667 16.334 44 17.001c9.33301 0.666992 14.666 -4.66602 15.999 -15.999
c-14 -6 -37.333 -32 -70 -78c-27.333 -40 -47.333 -72.667 -60 -98c-2 -5.33301 -3 -9.66602 -3 -12.999c0 -6.66699 2.66699 -11 8 -13c6.66699 -2 12.667 -2 18 0c15.333 6 33.833 15.167 55.5 27.5s46.5 28.166 74.5 47.499c22 15.333 40.833 29 56.5 41
s28.167 22.333 37.5 31c3.33301 6 7.16602 11.167 11.499 15.5s8.83301 6.83301 13.5 7.5c11.333 0.666992 19.833 -2 25.5 -8s7.83398 -12.333 6.50098 -19c-2.66699 -3.33301 -5.16699 -6.83301 -7.5 -10.5s-5.16602 -8.5 -8.49902 -14.5
c-13.333 -48 -34.333 -115 -63 -201c101.333 18.667 198.333 28 291 28c32.667 0 58 -2 76 -6c7.33301 -1.33301 14.833 -4.33301 22.5 -9s14.667 -10.334 21 -17.001s11.5 -14 15.5 -22s6 -16.333 6 -25s-2 -16 -6 -22c-8.66699 -16.667 -30.334 -38.667 -65.001 -66
c-5.33301 -5.33301 -10 -8 -14 -8c-1.33301 0 -2 0.333008 -2 1c0 4 3.33301 8.33301 10 13c39.333 37.333 59 70.333 59 99c0 24 -16.333 37.333 -49 40c-9.33301 0.666992 -20.166 1.16699 -32.499 1.5s-26.166 0.5 -41.499 0.5c-120.667 0 -219.334 -8 -296.001 -24
c-196.667 -560.667 -435 -850 -715 -868c-96 -6 -184 23 -264 87c-80.667 63.333 -121 134.333 -121 213c0 26 5 51 15 75c51.333 119.333 211.333 232 480 338c92.667 36 186.5 68 281.5 96s192.5 51.667 292.5 71zM-763 -532.001
c-4 -10.667 -7.16699 -21.168 -9.5 -31.501s-3.5 -21.166 -3.5 -32.499c0 -70 35.333 -132.333 106 -187c74 -56.667 157.333 -83 250 -79c160 6 313.333 126.333 460 361c44.667 72.667 85.5 149.167 122.5 229.5s70.167 165.166 99.5 254.499
c-240 -49.333 -451 -115.666 -633 -198.999c-217.333 -100 -348 -205.333 -392 -316z" />
    <glyph glyph-name="z" unicode="z" horiz-adv-x="250" 
d="M130 118c9.33301 -6 15.835 -10.332 19.502 -12.999s7.16699 -7.66699 10.5 -15c1.33301 0 2 0.333008 2 1s0.333008 1 1 1c0 -6.66699 2 -12.667 6 -18c0 -0.666992 0.166992 -1.16699 0.5 -1.5s0.5 -1.16602 0.5 -2.49902c50 9.33301 100.167 15.5 150.5 18.5
s97.5 4.5 141.5 4.5c16.667 0 31.167 -0.5 43.5 -1.5s23.166 -2.16699 32.499 -3.5c7.33301 -1.33301 14.833 -4.33301 22.5 -9s14.667 -10.5 21 -17.5s11.5 -14.5 15.5 -22.5s6 -16.333 6 -25c0 -4 -0.666992 -7.83301 -2 -11.5l-4 -10.5
c-8.66699 -16.667 -30.334 -38.667 -65.001 -66c-5.33301 -5.33301 -10 -8 -14 -8c-1.33301 0 -2 0.333008 -2 1c0 3.33301 3.33301 8 10 14c39.333 36 59 69 59 99c0 23.333 -16.333 36.333 -49 39c-9.33301 0.666992 -20.166 1.16699 -32.499 1.5s-26.166 0.5 -41.499 0.5
c-60.667 0 -115.5 -1.83301 -164.5 -5.5s-92.833 -9.83398 -131.5 -18.501c-196.667 -560.667 -435 -850 -715 -868c-97.333 -5.33301 -185.333 23.667 -264 87c-80.667 63.333 -121 134.666 -121 213.999c0 25.333 5 50 15 74c52 120 212 232.667 480 338
c179.333 72 367.666 127 564.999 165l11 3c-3.33301 10.667 -10.5 17.667 -21.5 21s-21.167 4 -30.5 2c-3.33301 -1.33301 -6.16602 0.333984 -8.49902 5.00098s-0.833008 9.66699 4.5 15c6.66699 6.66699 15.5 18 26.5 34s22 33.5 33 52.5s21 38.167 30 57.5
s15.167 35.666 18.5 48.999c3.33301 15.333 2.83301 26.666 -1.5 33.999s-9.83301 10.333 -16.5 9c-6.66699 -2 -14.167 -6.66699 -22.5 -14s-16.666 -15.666 -24.999 -24.999s-16.5 -19 -24.5 -29l-21 -27c-5.33301 -7.33301 -8.33301 -8.33301 -9 -3
s0.666016 10.666 3.99902 15.999l20.5 28c9 12 19 24.167 30 36.5s22.333 23.5 34 33.5s22.167 16 31.5 18c4.66699 0.666992 9.5 -0.666016 14.5 -3.99902s9.33301 -8.16602 13 -14.499s6.5 -13.333 8.5 -21s2.66699 -14.834 2 -21.501
c-1.33301 -14.667 -6.33301 -30.667 -15 -48s-18.334 -34.5 -29.001 -51.5s-21.334 -32.833 -32.001 -47.5s-18.667 -26 -24 -34c-2 -1.33301 -3 -4.33301 -3 -9s2 -6.66699 6 -6zM-894.998 -470.999c-3.33301 -10.667 -6.16699 -21.167 -8.5 -31.5
s-3.5 -21.166 -3.5 -32.499c0 -70 35.333 -132.333 106 -187c72.667 -56 156 -82.333 250 -79c160.667 6 313.667 126.667 459 362c45.333 72.667 86.333 149.167 123 229.5s70 165.166 100 254.499c-240.667 -50 -451.667 -116.333 -633 -199
c-218 -100 -349 -205.667 -393 -317z" />
    <glyph glyph-name="braceleft" unicode="{" horiz-adv-x="421" 
d="M95 208c2.66699 33.333 -3.66602 57.832 -18.999 73.499s-37.333 29.167 -66 40.5l2 6c30 6 54.333 15 73 27s34.167 27.833 46.5 47.5s22.666 43.834 30.999 72.501s17.166 62.667 26.499 102c5.33301 23.333 10.666 44.833 15.999 64.5s11.5 38 18.5 55
s15.167 32.667 24.5 47s20.666 27.833 33.999 40.5c24.667 23.333 48.167 37 70.5 41s42.5 5.33301 60.5 4l-6 -28c-32 0.666992 -58.333 -5.83301 -79 -19.5s-38 -32.834 -52 -57.501s-25.667 -54 -35 -88l-29 -111c-8 -32.667 -16 -60.667 -24 -84
s-17.667 -43.166 -29 -59.499s-25.166 -29.333 -41.499 -39s-36.833 -16.834 -61.5 -21.501c7.33301 -2.66699 15.5 -6.33398 24.5 -11.001s17.5 -11.5 25.5 -20.5s14.333 -20.833 19 -35.5s6.33398 -33.334 5.00098 -56.001c0 4 -1.16699 1.33301 -3.5 -8l-10 -40
c-4.33301 -17.333 -8.83301 -37.166 -13.5 -59.499l-13.5 -66c-4.33301 -21.667 -8.16602 -41.667 -11.499 -60s-5 -32.166 -5 -41.499c-2 -24.667 -0.333008 -44.5 5 -59.5s12.5 -27.5 21.5 -37.5s18.667 -18.5 29 -25.5s19.5 -14.833 27.5 -23.5
c-4 0.666992 -9.33301 1.5 -16 2.5s-14 2.83301 -22 5.5s-16.167 6.33398 -24.5 11.001s-15.833 11 -22.5 19c-10.667 11.333 -19.5 26 -26.5 44s-9.16699 43 -6.5 75z" />
    <glyph glyph-name="bar" unicode="|" horiz-adv-x="116" 
d="M94 741c-1.33301 -16.667 -3.00195 -39.167 -5.00195 -67.5l-6.5 -94c-2.33301 -34.333 -4.33301 -70.833 -6 -109.5s-2.83398 -76.667 -3.50098 -114c1.33301 -31.333 2.5 -62 3.5 -92s1.83301 -59 2.5 -87c0 -2.66699 0.166992 -5.16699 0.5 -7.5
s0.166016 -4.16602 -0.500977 -5.49902c1.33301 -58.667 1.33301 -105 0 -139c0 -8 -3.16699 -14 -9.5 -18s-13.166 -6 -20.499 -6c-6.66699 0 -12.667 2.33301 -18 7s-7.66602 12.334 -6.99902 23.001c1.33301 16.667 3 39 5 67l6.5 94
c2.33301 34.667 4.33301 71.167 6 109.5s2.83398 76.166 3.50098 113.499c-2 33.333 -3.66699 66.333 -5 99s-2.16602 63.5 -2.49902 92.5s-0.5 55.5 -0.5 79.5s0.333008 44.333 1 61c0.666992 8 4 14 10 18s12.333 6 19 6c7.33301 0 13.833 -2.33301 19.5 -7
s8.16699 -12.334 7.5 -23.001z" />
    <glyph glyph-name="braceright" unicode="}" horiz-adv-x="421" 
d="M328 399c-3.33301 -33.333 2.66406 -57.8301 17.9971 -73.4971s37.666 -29.167 66.999 -40.5l-3 -6c-30 -6 -54.333 -15 -73 -27s-34.167 -27.833 -46.5 -47.5s-22.666 -43.834 -30.999 -72.501s-17.166 -62.667 -26.499 -102
c-5.33301 -23.333 -10.666 -44.833 -15.999 -64.5s-11.333 -37.834 -18 -54.501s-14.667 -32.334 -24 -47.001s-20.666 -28.334 -33.999 -41.001c-12.667 -11.333 -25 -20.166 -37 -26.499s-23.5 -10.833 -34.5 -13.5s-21.5 -4.16699 -31.5 -4.5s-19.333 -0.5 -28 -0.5l5 28
c32 -0.666992 58.333 5.83301 79 19.5s38 32.834 52 57.501s25.667 54 35 88l29 111c8 32.667 16 60.667 24 84s17.667 43.166 29 59.499s25.166 29.333 41.499 39s36.833 16.834 61.5 21.501c-7.33301 2.66699 -15.5 6.33398 -24.5 11.001s-17.333 11.5 -25 20.5
s-14 20.667 -19 35s-6.5 32.5 -4.5 54.5c0.666992 0 2.5 5.66699 5.5 17s6.5 25.833 10.5 43.5l13 58.5c4.66699 21.333 9 42.166 13 62.499s7.33301 39 10 56s4.33398 30.167 5.00098 39.5c2 24.667 0.166992 44.5 -5.5 59.5s-13 27.5 -22 37.5s-18.667 18.667 -29 26
s-19.5 15.333 -27.5 24c4 -0.666992 9.5 -1.66699 16.5 -3s14.5 -3.33301 22.5 -6s16 -6.33398 24 -11.001s15.333 -11 22 -19c11.333 -11.333 20.333 -26 27 -44s8.66699 -43 6 -75z" />
    <glyph glyph-name="asciitilde" unicode="~" horiz-adv-x="343" 
d="M18 267c-1.33301 0 -2.00195 1.33105 -2.00195 3.99805c0 1.33301 0.833008 3.83301 2.5 7.5s3.83398 7.83398 6.50098 12.501c17.333 24 32.833 42 46.5 54s25.167 18 34.5 18c10.667 0 32 -10.333 64 -31c18 -10 32.667 -17 44 -21s20.333 -6 27 -6
c15.333 0 28 2.33301 38 7s18.667 11.334 26 20.001c6 6.66699 11 10 15 10c2.66699 0 4 -1 4 -3c0 -3.33301 -0.666992 -6.5 -2 -9.5s-3 -6.5 -5 -10.5c-16 -21.333 -30.333 -37.5 -43 -48.5s-23.667 -16.5 -33 -16.5s-31.666 9.33301 -66.999 28c-34 20 -56.667 30 -68 30
c-9.33301 0 -19 -1.83301 -29 -5.5s-20 -9.5 -30 -17.5l-29 -22v0z" />
    <glyph glyph-name="exclamdown" unicode="&#xa1;" horiz-adv-x="246" 
d="M111 238c2.66699 4.66699 6.00195 6.99902 10.002 6.99902c6 0 9 -3.66699 9 -11c0 -2.66699 -0.333008 -4.66699 -1 -6c-86.667 -172.667 -148.334 -309.667 -185.001 -411c-2.66699 -6 -9.83398 -10.5 -21.501 -13.5s-21.167 -3.5 -28.5 -1.5
c-4 1.33301 -6.66699 10.333 -8 27c-2.66699 16.667 -2 28.667 2 36c0.666992 2 2.5 3.33301 5.5 4s6 1.16699 9 1.5s6 0.833008 9 1.5s4.83301 1.66699 5.5 3c12 19.333 25.333 42.333 40 69s30.667 57.334 48 92.001l64.5 124zM150.002 360.999c0 4 5 8.33203 15 12.999
s19.333 7 28 7c4.66699 0 7.33398 -1.33301 8.00098 -4c3.33301 -3.33301 6 -13 8 -29c2.66699 -17.333 2.66699 -27.333 0 -30c-2 -4 -8.33301 -8.5 -19 -13.5s-19.334 -7.5 -26.001 -7.5c-2.66699 0 -4.66699 0.666992 -6 2c-5.33301 6.66699 -8 27.334 -8 62.001z" />
    <glyph glyph-name="cent" unicode="&#xa2;" horiz-adv-x="395" 
d="M92 73c-4 2 -8.16895 4.83008 -12.502 8.49707s-8.33301 7.83398 -12 12.501s-6.5 9.5 -8.5 14.5s-2.66699 9.16699 -2 12.5c6.66699 54.667 39 113 97 175c54.667 56.667 113 97.334 175 122.001l3 3l25 32c9.33301 12 19.666 26 30.999 42
c1.33301 1.33301 2.83301 2.33301 4.5 3s3.5 1.66699 5.5 3c2.66699 0 4.66699 -1.33301 6 -4c-0.666992 1.33301 -17.667 -21 -51 -67c-3.33301 -4.66699 -3.33301 -6 0 -4c18.667 8.66699 35 12 49 10c3.33301 0 7.83301 -1.66699 13.5 -5s7.83398 -6.33301 6.50098 -9
c-0.666992 -2.66699 -1.66699 -5.33398 -3 -8.00098s-2.66602 -5.66699 -3.99902 -9c-6 -7.33301 -11.667 -10.666 -17 -9.99902c-8 2.66699 -16.667 4.83398 -26 6.50098s-19 2.5 -29 2.5c-7.33301 0 -13.666 -0.666992 -18.999 -2
c-23.333 -10 -46.166 -24.167 -68.499 -42.5s-44.166 -40.166 -65.499 -65.499c-42 -50.667 -69.667 -101.334 -83 -152.001c-1.33301 -4.66699 -2.33301 -9 -3 -13s-1 -7.66699 -1 -11c0 -29.333 15.667 -41.333 47 -36c50 8.66699 106 37 168 85
c2.66699 2 5.33398 3 8.00098 3s4 -1.33301 4 -4c0 -4.66699 -2.33301 -8.33398 -7 -11.001c-76.667 -62.667 -143.334 -94 -200.001 -94c-4 0 -6.33301 -0.666992 -7 -2l-14.5 -23l-15.5 -26c-3.33301 -5.33301 -9.33301 -7 -18 -5s-11 5 -7 9
c4 7.33301 8.66699 15.333 14 24s11.666 18.334 18.999 29.001c1.33301 2.66699 0.666016 4.66699 -2.00098 6z" />
    <glyph glyph-name="sterling" unicode="&#xa3;" horiz-adv-x="698" 
d="M386 319c5.33301 0 8.66309 2.33594 9.99609 7.00293c34 91.333 69.833 162.833 107.5 214.5s79.834 76.834 126.501 75.501c4.66699 -0.666992 10 -1.5 16 -2.5s11.5 -2.66699 16.5 -5s8.83301 -5.83301 11.5 -10.5s2.66699 -11 0 -19
c-0.666992 -2 -1.5 -2.33301 -2.5 -1s-2 3.16602 -3 5.49902s-2 4.83301 -3 7.5s-1.83301 4 -2.5 4c-14.667 8.66699 -31.667 8.66699 -51 0s-39.833 -24.834 -61.5 -48.501s-43.834 -54.334 -66.501 -92.001s-44.334 -81.5 -65.001 -131.5
c-2.66699 -5.33301 -1.66699 -8 3 -8c6 -1.33301 15.667 -3 29 -5s27.833 -4.33301 43.5 -7s31 -5.66699 46 -9s27.167 -6.33301 36.5 -9c5.33301 -1.33301 7.33301 -3.83301 6 -7.5s-4.66602 -5.16699 -9.99902 -4.5c-10.667 1.33301 -23.5 2.83301 -38.5 4.5l-46 5
c-15.667 1.66699 -30.5 3.16699 -44.5 4.5s-25.333 2.33301 -34 3c-5.33301 0 -8 -1.33301 -8 -4c-19.333 -60 -39 -110.5 -59 -151.5s-38.667 -70.167 -56 -87.5c-5.33301 -6 -8.16602 -10.5 -8.49902 -13.5s1.83398 -6.16699 6.50098 -9.5
c13.333 -8.66699 29.333 -20.167 48 -34.5s38.834 -28.833 60.501 -43.5s44.5 -28.167 68.5 -40.5s47.833 -20.666 71.5 -24.999s47 -3.5 70 2.5s44.5 20 64.5 42c4 5.33301 7.33301 6.66602 10 3.99902s2 -7 -2 -13c-11.333 -14.667 -25.5 -26 -42.5 -34
s-35 -13.333 -54 -16s-38 -2.83398 -57 -0.500977s-35.833 6.5 -50.5 12.5s-31 14 -49 24l-55 32c-18.667 11.333 -36.834 23.5 -54.501 36.5s-33.5 25.5 -47.5 37.5c-4 3.33301 -7.33301 4.66602 -10 3.99902s-5 -1.66699 -7 -3c-24.667 -23.333 -49.167 -38 -73.5 -44
s-47 -5.83301 -68 0.5s-39.333 17 -55 32s-26.834 31.833 -33.501 50.5c-4 11.333 -4.83301 22.666 -2.5 33.999s7 21.333 14 30s15.667 15.5 26 20.5s20.833 7.16699 31.5 6.5c23.333 -3.33301 47.166 -12.666 71.499 -27.999s50.833 -33 79.5 -53
c6.66699 -4 11.5 -5.33301 14.5 -4s6.5 4 10.5 8c7.33301 6.66699 15.833 17 25.5 31s19.834 30.833 30.501 50.5s21.334 41.667 32.001 66s20.667 50.166 30 77.499c0 2 -0.166992 3.66699 -0.5 5s-2.16602 2.33301 -5.49902 3
c-5.33301 0.666992 -12.166 1.33398 -20.499 2.00098s-16.166 0.666992 -23.499 0c-4.66699 0 -7.33398 -0.666992 -8.00098 -2s-2.66699 -2.66602 -6 -3.99902c-10 -1.33301 -18.5 -0.833008 -25.5 1.5s-12 5.33301 -15 9s-3.5 7.5 -1.5 11.5s7 7 15 9
c9.33301 2.66699 23 3.16699 41 1.5s36 -3.16699 54 -4.5zM52.9971 109.003c-13.333 -2 -21.332 -8.66992 -23.999 -20.0029s-1.33398 -23.666 3.99902 -36.999s14.166 -26.5 26.499 -39.5s27 -22.5 44 -28.5s35.667 -6.83301 56 -2.5s41.5 16.833 63.5 37.5
c5.33301 5.33301 7.83301 8.83301 7.5 10.5s-3.16602 3.83398 -8.49902 6.50098c-28 18 -50.833 32.167 -68.5 42.5s-32.334 18 -44.001 23s-21.667 7.83301 -30 8.5s-17.166 0.333984 -26.499 -0.999023z" />
    <glyph glyph-name="currency" unicode="&#xa4;" horiz-adv-x="625" 
d="M3 419c-0.666992 0 -0.998047 0.663086 -0.998047 1.99609c0 8 3.66699 15.333 11 22s15.5 12.334 24.5 17.001s17.167 8.33398 24.5 11.001l11 4c7.33301 0 24.333 -5.66699 51 -17c24 32 50.167 62.833 78.5 92.5s59.5 57.834 93.5 84.501
c22 17.333 42.333 32.166 61 44.499s36.5 22.5 53.5 30.5s33.833 14 50.5 18s34.334 6.66699 53.001 8c19.333 2.66699 35.5 -0.5 48.5 -9.5s22.833 -21.333 29.5 -37s10.334 -33.834 11.001 -54.501s-1 -41.334 -5 -62.001s-10.5 -40.667 -19.5 -60
s-19.833 -35.333 -32.5 -48c11.333 31.333 21.333 63 30 95s10 65.333 4 100c-8 23.333 -17.833 39 -29.5 47s-27.167 12 -46.5 12c-23.333 0 -46.833 -4.66699 -70.5 -14s-47.334 -22.166 -71.001 -38.499s-47.334 -35.666 -71.001 -57.999s-47.167 -46.166 -70.5 -71.499
l-38.5 -45c-12.333 -14.667 -23.833 -29.334 -34.5 -44.001c7.33301 -3.33301 13.5 -5.33301 18.5 -6s9.16699 -1 12.5 -1c22.667 0 39.667 5.66699 51 17c4.66699 3.33301 8.33398 5 11.001 5c4 0 5 -1.66699 3 -5s-3.66699 -6 -5 -8
c-13.333 -12.667 -24.833 -22.334 -34.5 -29.001s-18.167 -10 -25.5 -10s-23 4.66699 -47 14c-6.66699 -10 -12.834 -20 -18.501 -30l-16.5 -30c6 -2 11.333 -3.33301 16 -4s8.66699 -1 12 -1c23.333 0 40.333 5.33301 51 16c4 4 7.66699 6 11 6c4 0 5 -1.66699 3 -5
s-3.66699 -6 -5 -8c-26 -26 -46 -39 -60 -39c-3.33301 0 -8.33301 0.833008 -15 2.5s-15 4.5 -25 8.5c-9.33301 -17.333 -17 -35.166 -23 -53.499s-10.667 -36.166 -14 -53.499c-1.33301 -8 -2.5 -16 -3.5 -24s-1.5 -16 -1.5 -24c0 -27.333 4.5 -51.5 13.5 -72.5
s21.5 -38.667 37.5 -53s35.167 -25.166 57.5 -32.499s47.166 -10.666 74.499 -9.99902c34.667 1.33301 69.834 7.83301 105.501 19.5s72.5 27.5 110.5 47.5l109.5 57c26.333 13.333 40.5 19.833 42.5 19.5s-9.33301 -8.5 -34 -24.5s-64.667 -40.667 -120 -74
c-38 -22.667 -74.667 -39.834 -110 -51.501s-70 -16.834 -104 -15.501c-56.667 1.33301 -105.334 18.666 -146.001 51.999c-21.333 19.333 -36.833 41.5 -46.5 66.5s-14.5 52.833 -14.5 83.5c0 48.667 13 100 39 154c-18 8 -31 12 -39 12
c-14.667 0 -30.334 -4.33301 -47.001 -13l-23 -13c-0.666992 0 -1 0.666992 -1 2c0 8 3.66699 15.333 11 22s15.5 12.334 24.5 17.001s17.167 8.33398 24.5 11.001l11 4c3.33301 0 9.33301 -1.66699 18 -5l33 -13v-1c6 10 12.333 20 19 30l20 31
c-9.33301 3.33301 -16.833 5.83301 -22.5 7.5s-10.167 2.5 -13.5 2.5c-14 0 -29.667 -4.66699 -47 -14z" />
    <glyph glyph-name="yen" unicode="&#xa5;" horiz-adv-x="427" 
d="M-72 12c-8.66699 0 -12.9971 4.33496 -12.9971 13.002c0 10.667 6.66699 16 20 16h135l27.5 32.5l26.5 31.5c-1.33301 13.333 -2.33301 27.5 -3 42.5l-2 46.5c-13.333 -0.666992 -28 -1 -44 -1h-49c-5.33301 0 -8 2.33301 -8 7c0 11.333 5 17 15 17h85
c-0.666992 36.667 -0.333984 73.667 0.999023 111s3 72 5 104s3.83301 59.833 5.5 83.5l3.5 50.5c0.666992 10 4.5 18.5 11.5 25.5s14.167 11.167 21.5 12.5s13.666 -0.5 18.999 -5.5s6.66602 -14.5 3.99902 -28.5c-2 -12 -4.33301 -28.5 -7 -49.5l-8.5 -70
c-3 -25.667 -5.66699 -52.834 -8 -81.501s-4.33301 -56.834 -6 -84.501s-2.66699 -54 -3 -79s0.166992 -46.833 1.5 -65.5l96 103l111.5 115.5l120.5 119l124 113.5c6 5.33301 12.667 8.5 20 9.5s13.5 0.5 18.5 -1.5s7.83301 -5.5 8.5 -10.5s-2.33301 -10.5 -9 -16.5
l-75 -64l-92.5 -84.5l-104 -99l-108.5 -107.5h75c6 0 9 -2.66699 9 -8c0 -10 -4 -15 -12 -15c-13.333 -0.666992 -28 -1 -44 -1h-50h-2c-8 -9.33301 -16.333 -18.5 -25 -27.5l-25 -26.5l-45 -49.5l-42 -48.5h112c8 0 12 -3.66699 12 -11c0 -12 -5.33301 -18 -16 -18h-133
c-26.667 -32 -51.5 -63.167 -74.5 -93.5s-42.833 -59.5 -59.5 -87.5c-10.667 -18 -18.667 -25.667 -24 -23s-4.33301 12 3 28c9.33301 20 24.833 46 46.5 78s46.167 64.667 73.5 98h-119v0z" />
    <glyph glyph-name="brokenbar" unicode="&#xa6;" horiz-adv-x="151" 
d="M73 32c0.666992 16 2.00195 37.498 4.00195 64.498l6.5 89.5c2.33301 32.667 4.33301 67.5 6 104.5s2.83398 73.5 3.50098 109.5s0.666992 70.833 0 104.5s-2.66699 63.5 -6 89.5c-1.33301 17.333 0.5 26.833 5.5 28.5s8.16699 -6.5 9.5 -24.5
c5.33301 -46 9.83301 -96.5 13.5 -151.5s6.66699 -109.167 9 -162.5s3.66602 -102.833 3.99902 -148.5s0.166016 -82.167 -0.500977 -109.5c0 -7.33301 -3.16699 -13.166 -9.5 -17.499s-13.166 -6.5 -20.499 -6.5c-6.66699 0 -12.834 2.33301 -18.501 7
s-7.83398 12.334 -6.50098 23.001zM80.002 732.998c-1.33301 -16 -2.8291 -37.501 -4.49609 -64.501s-3.66699 -56.833 -6 -89.5s-4.33301 -67.5 -6 -104.5s-2.83398 -73.667 -3.50098 -110s-0.666992 -71.333 0 -105s2.66699 -63.5 6 -89.5
c1.33301 -17.333 -0.5 -26.666 -5.5 -27.999s-8.16699 6.66699 -9.5 24c-5.33301 46 -9.83301 96.667 -13.5 152s-6.66699 109.5 -9 162.5s-3.83301 102.333 -4.5 148s-0.333984 82.167 0.999023 109.5c0 8 3.16699 14 9.5 18s12.833 6 19.5 6
c7.33301 0 13.666 -2.33301 18.999 -7s7.66602 -12 6.99902 -22z" />
    <glyph glyph-name="section" unicode="&#xa7;" 
d="M56 -59c52 25.333 120.33 41.332 204.997 47.999l-55 60l-66 72c-28.667 30.667 -45 58.334 -49 83.001c-2 9.33301 -2 18.666 0 27.999c-0.666992 22 14 39.667 44 53c22.667 10 45 18.667 67 26s46.333 12.333 73 15c10 1.33301 20.5 2.5 31.5 3.5
s22.167 2.16699 33.5 3.5l-55 61l-66 71c-28 30 -44.667 57.667 -50 83c-4 27.333 6.33301 49.666 31 66.999c50.667 38 116.334 57 197.001 57c30 0 55 -3 75 -9c14.667 -4.66699 28.667 -13.667 42 -27c13.333 -15.333 21.333 -31.666 24 -48.999c2 -11.333 2 -23 0 -35
c-1.33301 -2 -2 -3.66699 -2 -5c0 -0.666992 -0.333008 -1.66699 -1 -3c-2 -2 -3.33301 -2 -4 0s-0.833984 5.83301 -0.500977 11.5s-0.166992 11.834 -1.5 18.501c-1.33301 10.667 -4.33301 20.167 -9 28.5s-10.334 16.166 -17.001 23.499
c-13.333 13.333 -28.333 22 -45 26c-22 6 -46.667 9 -74 9c-74 0 -132 -18 -174 -54c-20 -16 -28 -36.333 -24 -61c1.33301 -9.33301 5.66602 -20 12.999 -32s16.666 -25.667 27.999 -41l55 -56.5l79 -82.5c14.667 0.666992 24.834 0.666992 30.501 0
s8.33398 -1.5 8.00098 -2.5s-3.33301 -2 -9 -3s-12.834 -1.16699 -21.501 -0.5c0 -0.666992 0.333008 -1.33398 1 -2.00098c1.33301 -1.33301 2.5 -2.66602 3.5 -3.99902s1.83301 -3.33301 2.5 -6c6 -8.66699 10.333 -16.667 13 -24s4.66699 -14.333 6 -21
c6.66699 -40.667 -9.66602 -70 -48.999 -88c-17.333 -7.33301 -35.166 -13.166 -53.499 -17.499s-38.166 -6.5 -59.499 -6.5c-29.333 0 -56.333 4.33301 -81 13c-19.333 4.66699 -34 12.667 -44 24c4 -19.333 17.333 -41.666 40 -66.999l55.5 -56.5l78.5 -82.5h22h37h39h29
c4.66699 0 7 -0.666992 7 -2c0 -2 -7.33301 -3 -22 -3c-5.33301 -0.666992 -13.5 -1.16699 -24.5 -1.5s-22.5 -0.5 -34.5 -0.5h-31h-15c7.33301 -9.33301 13.166 -18.833 17.499 -28.5s7.5 -19.167 9.5 -28.5c6.66699 -40 -9.66602 -69.333 -48.999 -88
c-17.333 -7.33301 -35.166 -13 -53.499 -17s-38.166 -6 -59.499 -6c-15.333 0 -29.833 1.16699 -43.5 3.5s-26.167 5.16602 -37.5 8.49902c-34.667 10.667 -54.667 29 -60 55c-4 24 10.333 43.667 43 59zM265.997 -19.001c-18.667 -2.66699 -35.333 -5.33301 -50 -8l-39 -7
c-22.667 -5.33301 -43.167 -11 -61.5 -17s-34.5 -13.333 -48.5 -22c-31.333 -16 -45.333 -33.333 -42 -52c3.33301 -10 10.333 -19 21 -27c4.66699 -3.33301 9.16699 -6 13.5 -8s9.16602 -3.66699 14.499 -5c12 -3.33301 23.833 -5.5 35.5 -6.5s23.5 -1.5 35.5 -1.5
c42 0 79 9 111 27c16.667 8.66699 28.334 19.167 35.001 31.5s8.66699 25.833 6 40.5c-2.66699 20 -13 38.333 -31 55zM382.998 272c-0.666992 11.333 -4.49902 20.666 -11.499 27.999s-15.833 12.666 -26.5 15.999c-6.66699 1.33301 -13.334 1.66602 -20.001 0.999023
s-12.334 -1.33398 -17.001 -2.00098c-53.333 -9.33301 -95 -19.166 -125 -29.499s-51.333 -20.5 -64 -30.5s-18 -19.5 -16 -28.5s9 -17 21 -24s27.333 -12.833 46 -17.5s38.167 -7.5 58.5 -8.5s40.333 0.333008 60 4s36.167 9.83398 49.5 18.501
c16 10.667 28.333 21.334 37 32.001s11.334 24.334 8.00098 41.001z" />
    <glyph glyph-name="dieresis" unicode="&#xa8;" horiz-adv-x="256" 
d="M234 563c0 -4 -4.5 -8.16699 -13.5 -12.5s-17.167 -6.5 -24.5 -6.5c-3.33301 0 -6 1 -8 3c-2 4 -4 12.667 -6 26c-2 14 -1.83301 22.5 0.5 25.5s7.83301 6.5 16.5 10.5c8 5.33301 15 8 21 8c1.33301 0 3.33301 -0.666992 6 -2c2.66699 -3.33301 4.66699 -9 6 -17
s2 -19.667 2 -35zM82 563c0 -4 -4.49902 -8.16797 -13.499 -12.501s-16.833 -6.5 -23.5 -6.5c-2.66699 0 -5.16699 1.5 -7.5 4.5s-4.16602 11.167 -5.49902 24.5c-2 14 -2 22.333 0 25c9.33301 12.667 21.666 19 36.999 19c3.33301 0 5.66602 -0.666992 6.99902 -2
c4 -5.33301 6 -22.666 6 -51.999z" />
    <glyph glyph-name="copyright" unicode="&#xa9;" horiz-adv-x="684" 
d="M670 466c4 -45.333 -0.99707 -88.499 -14.9971 -129.499s-34.667 -77.5 -62 -109.5s-60.333 -58.333 -99 -79s-80.334 -33 -125.001 -37c-45.333 -4 -88.666 1 -129.999 15s-78.166 34.667 -110.499 62s-58.833 60 -79.5 98s-33 79.667 -37 125s1 88.666 15 129.999
s34.667 78.166 62 110.499s60.166 58.833 98.499 79.5s80.166 33 125.499 37s88.666 -1 129.999 -15s78.166 -34.833 110.499 -62.5s58.833 -60.667 79.5 -99s33 -80.166 37 -125.499zM647.003 465.001c-4 42 -15.501 81 -34.501 117s-43.5 66.667 -73.5 92
s-64.167 44.5 -102.5 57.5s-78.5 17.833 -120.5 14.5s-81 -14.666 -117 -33.999s-66.667 -44 -92 -74s-44.5 -64.167 -57.5 -102.5s-17.833 -78.5 -14.5 -120.5c4 -42 15.667 -81 35 -117s44 -66.667 74 -92s64.167 -44.5 102.5 -57.5s78.5 -17.833 120.5 -14.5
s81 14.666 117 33.999s66.667 44 92 74s44.333 64.167 57 102.5s17.334 78.5 14.001 120.5zM541.002 387.001c-10 -10.667 -27.3359 -24.5039 -52.0029 -41.5039s-52.5 -34 -83.5 -51s-63.167 -32.333 -96.5 -46s-63.666 -22.834 -90.999 -27.501
c-12.667 -2 -25.667 -0.666992 -39 4s-25.5 11.667 -36.5 21s-19.833 20.5 -26.5 33.5s-9 26.833 -7 41.5c2.66699 23.333 10.334 47.666 23.001 72.999s28.667 50.333 48 75s40.5 48.334 63.5 71.001s46.5 43.334 70.5 62.001s47 34.334 69 47.001s41.333 21.334 58 26.001
c9.33301 2.66699 18 3.16699 26 1.5s14.833 -4.66699 20.5 -9s9.83398 -9.83301 12.501 -16.5s3.66699 -13.334 3 -20.001c-3.33301 -14 -7.33301 -26.167 -12 -36.5s-9.33398 -19.833 -14.001 -28.5c-8 -14.667 -14.5 -21 -19.5 -19s-6.83301 10.333 -5.5 25l2.5 24.5
c1 9.66699 0.833008 18.334 -0.5 26.001s-4.66602 13.334 -9.99902 17.001s-14.333 2.5 -27 -3.5c-27.333 -10 -55.333 -26.667 -84 -50s-55.5 -49 -80.5 -77s-46.5 -56.5 -64.5 -85.5s-30 -54.167 -36 -75.5c-9.33301 -32.667 -9 -57.667 1 -75s31 -24.333 63 -21
c27.333 2.66699 56.833 9.16699 88.5 19.5s62.167 22.833 91.5 37.5s56.5 30.167 81.5 46.5s44.833 31.833 59.5 46.5c8 8 13.5 10.333 16.5 7s-1.16699 -10.666 -12.5 -21.999z" />
    <glyph glyph-name="ordfeminine" unicode="&#xaa;" horiz-adv-x="431" 
d="M50 617c-5.33301 -2.66699 -10.333 -3.99902 -15 -3.99902c-10 0 -15 6 -15 18c0 25.333 22.333 57.666 67 96.999c21.333 17.333 41 32 59 44s35 20.667 51 26c8 2 16 3 24 3c11.333 0 21.333 -1.66699 30 -5h11l9 3.5c2.66699 1 5 2.16699 7 3.5
c0.666992 0 1.16699 0.166992 1.5 0.5s1.16602 0.5 2.49902 0.5s2.5 -0.666992 3.5 -2s1.5 -2.66602 1.5 -3.99902l-34.5 -47.5l-33.5 -46.5c-17.333 -25.333 -30.666 -49.5 -39.999 -72.5s-16 -44.833 -20 -65.5c-0.666992 -2 -1 -5 -1 -9c0 -24 16 -36 48 -36
c7.33301 0 14.5 0.666992 21.5 2l21.5 4c11.333 3.33301 23.833 8.83301 37.5 16.5s29.167 17.5 46.5 29.5c16 11.333 30.667 22.666 44 33.999s24.666 22.666 33.999 33.999c3.33301 3.33301 6 5 8 5c0.666992 0 1 -0.333008 1 -1c0 -2 -1 -4.33301 -3 -7
c-18.667 -24 -45.334 -49 -80.001 -75c-17.333 -11.333 -32.833 -21 -46.5 -29s-26.167 -13.667 -37.5 -17c-12 -3.33301 -23.667 -5 -35 -5c-19.333 0 -35.666 4.33301 -48.999 13c-14.667 10.667 -21 24.334 -19 41.001c0.666992 29.333 12.334 65.333 35.001 108
c13.333 28 27 50.333 41 67c2 4 1.33301 6 -2 6l-1 -1c-9.33301 -10.667 -21 -21.667 -35 -33l-47 -37c-34.667 -26 -65 -45.667 -91 -59zM59 662.001c-2 -4 -2.99902 -8.00098 -2.99902 -12.001c0 -8.66699 3.66699 -13 11 -13c3.33301 0 6.66602 1 9.99902 3
c43.333 23.333 94 65.666 152 126.999c1.33301 1.33301 2 2.66602 2 3.99902c0 4 -2.5 7.66699 -7.5 11s-12.167 5 -21.5 5c-2 0 -4 -0.166992 -6 -0.5s-4.33301 -1.16602 -7 -2.49902c-20 -3.33301 -44 -19.333 -72 -48c-14 -13.333 -25.833 -26.166 -35.5 -38.499
s-17.167 -24.166 -22.5 -35.499z" />
    <glyph glyph-name="guillemotleft" unicode="&#xab;" horiz-adv-x="334" 
d="M57 151c-5.33301 -12.667 -3.99805 -53.3311 4.00195 -121.998c0.666992 -7.33301 -1.33301 -11 -6 -11c-2.66699 0 -5 2.66699 -7 8c-23.333 87.333 -33 133.666 -29 138.999c7.33301 15.333 57.666 52 150.999 110c6 3.33301 10.333 3.66602 13 0.999023
c2 -2 0.666992 -5.33301 -4 -10c-70.667 -56.667 -111.334 -95 -122.001 -115zM196.002 151.003c-6 -12 -5.00098 -52.668 2.99902 -122.001c0.666992 -7.33301 -1 -11 -5 -11c-3.33301 0 -5.66602 2.66699 -6.99902 8c-22.667 86.667 -32.667 133 -30 139
c8.66699 15.333 59 51.666 151 108.999c6 3.33301 10 4 12 2c2 -3.33301 1.33301 -6.66602 -2 -9.99902c-36 -28.667 -64 -52.667 -84 -72s-32.667 -33.666 -38 -42.999z" />
    <glyph glyph-name="logicalnot" unicode="&#xac;" horiz-adv-x="1055" 
d="M46 275c8.66699 8 10.6709 14.5 6.00391 19.5s-10.167 9.33301 -16.5 13s-10.666 6.83398 -12.999 9.50098s2.83398 5 15.501 7c10.667 0 25.667 1 45 3s40.666 4.5 63.999 7.5l72 9.5c24.667 3.33301 48 6 70 8l170.5 17c59 6 115.833 11 170.5 15
s104.667 6.33301 150 7s81.333 -1.66602 108 -6.99902c15.333 -3.33301 33.166 -9.5 53.499 -18.5s38.5 -20.833 54.5 -35.5s27.167 -31.5 33.5 -50.5s3.5 -39.833 -8.5 -62.5c-6.66699 -12.667 -12.334 -22.167 -17.001 -28.5s-9.66699 -12 -15 -17
s-11.5 -10.5 -18.5 -16.5s-16.5 -15 -28.5 -27c-9.33301 -2.66699 -11.833 -0.666992 -7.5 6s11.166 15.667 20.499 27s19.166 24.333 29.499 39s16.833 29 19.5 43c8.66699 22 9.5 40.333 2.5 55s-17.833 26.5 -32.5 35.5s-31 15.667 -49 20s-33.333 7.16602 -46 8.49902
c-35.333 4 -76 5 -122 3s-94.167 -5.5 -144.5 -10.5s-101.5 -11 -153.5 -18s-101.333 -14.167 -148 -21.5l-74.5 -13l-75.5 -13c-24 -4 -45.833 -7.33301 -65.5 -10s-34.834 -4.33398 -45.501 -5.00098z" />
    <glyph glyph-name="minus" unicode="&#xad;" horiz-adv-x="229" 
d="M37 254c-11.333 0 -17 3 -17 9c0 11.333 10.667 17 32 17h141c11.333 0 17 -3 17 -9c0 -11.333 -8.66699 -17 -26 -17h-147v0z" />
    <glyph glyph-name="registered" unicode="&#xae;" horiz-adv-x="485" 
d="M459 674c3.33301 -40.667 -3.33203 -78.501 -19.999 -113.501s-40 -63.5 -70 -85.5c6.66699 -5.33301 12.667 -9.33301 18 -12s9.66602 -4.66699 12.999 -6c9.33301 -2.66699 19.833 -3.5 31.5 -2.5s21.167 6.16699 28.5 15.5l-7 -9
c-2.66699 -3.33301 -6.33398 -6.16602 -11.001 -8.49902s-10.5 -4 -17.5 -5s-15.833 -0.5 -26.5 1.5c-5.33301 0.666992 -11.333 2.66699 -18 6s-14 7.66602 -22 12.999c-14.667 -9.33301 -30.167 -16.833 -46.5 -22.5s-33.166 -9.16699 -50.499 -10.5
c-30 -2.66699 -58.667 0.666016 -86 9.99902s-51.666 23.166 -72.999 41.499s-38.833 40.5 -52.5 66.5s-21.5 54.333 -23.5 85c-2.66699 30.667 0.666016 59.834 9.99902 87.501s23 52.5 41 74.5s39.667 39.833 65 53.5s52.666 21.834 81.999 24.501
c30 2.66699 58.5 -0.666016 85.5 -9.99902s51.167 -23.333 72.5 -42s38.833 -41 52.5 -67s21.834 -54.333 24.501 -85zM387.002 729.999c8 -9.33301 11.1748 -19.8301 9.50781 -31.4971s-8.16699 -21.834 -19.5 -30.501c-10 -8 -22.667 -14.833 -38 -20.5
s-31.333 -10.167 -48 -13.5s-33 -5.83301 -49 -7.5s-29.333 -2.16699 -40 -1.5c-6 0.666992 -6.66699 -1.66602 -2 -6.99902c5.33301 -6 14 -14.333 26 -25l39.5 -35l45.5 -38.5l44 -34.5c30 20.667 53 47.5 69 80.5s22.333 69.167 19 108.5
c-2.66699 28.667 -10.334 55 -23.001 79s-28.834 44.667 -48.501 62s-42 30.333 -67 39s-51.167 12 -78.5 10c-28 -2.66699 -53.833 -10.5 -77.5 -23.5s-43.834 -29.667 -60.501 -50s-29.334 -43.5 -38.001 -69.5s-11.667 -53.333 -9 -82c2 -28 9.33301 -54.167 22 -78.5
s29 -45 49 -62s42.667 -30 68 -39s52 -12.167 80 -9.5c30 2 57.667 11 83 27c-14.667 10 -30.167 21.667 -46.5 35l-47.5 39.5l-41.5 36l-28.5 25.5c-12.667 -16.667 -22.167 -31.834 -28.5 -45.501s-10.833 -28.834 -13.5 -45.501
c-1.33301 -3.33301 -1.33301 -6.66602 0 -9.99902s2.66602 -5.66602 3.99902 -6.99902c1.33301 -2 1.33301 -3.5 0 -4.5s-3 -0.5 -5 1.5c-4.66699 4 -7 11.333 -7 22c-1.33301 18.667 2.33398 36.167 11.001 52.5s18.667 32.166 30 47.499c-4 5.33301 -4 10.333 0 15
c2 1.33301 6 1.66602 12 0.999023c6 8.66699 13.167 18 21.5 28s17 19.833 26 29.5l26.5 27.5c8.66699 8.66699 16.667 15.667 24 21c5.33301 1.33301 8.66602 -0.333984 9.99902 -5.00098s0.666016 -8.33398 -2.00098 -11.001c-19.333 -17.333 -36 -33.333 -50 -48
s-27 -29.667 -39 -45c8 -0.666992 19.167 -0.666992 33.5 0s29.666 2.33398 45.999 5.00098s32.666 6.5 48.999 11.5s30.166 11.5 41.499 19.5c9.33301 6.66699 15.333 13.667 18 21s1 15.333 -5 24c-8.66699 15.333 -27.334 30 -56.001 44s-61.667 22.333 -99 25
c-29.333 2.66699 -55.166 0.666992 -77.499 -6s-37.166 -21.334 -44.499 -44.001c-4 -11.333 -5 -22.5 -3 -33.5s5 -20.167 9 -27.5c1.33301 -1.33301 1.33301 -2.16602 0 -2.49902s-2.33301 -0.166016 -3 0.500977c-6 8.66699 -10.5 18.834 -13.5 30.501
s-2.83301 22.834 0.5 33.501c5.33301 22 19.5 38.5 42.5 49.5s53.833 15.167 92.5 12.5c18 -2 35.167 -5.33301 51.5 -10s31.333 -10.334 45 -17.001s25.667 -13.834 36 -21.501s18.5 -14.834 24.5 -21.501z" />
    <glyph glyph-name="macron" unicode="&#xaf;" horiz-adv-x="331" 
d="M57 648c-12.667 0 -18.999 2.66699 -18.999 8c0 10 12.667 15 38 15h210c14 0 21 -2.66699 21 -8c0 -9.33301 -10 -14 -30 -14c-30.667 -0.666992 -64.334 -1 -101.001 -1h-119z" />
    <glyph glyph-name="degree" unicode="&#xb0;" horiz-adv-x="201" 
d="M174 493c0 -17.333 -6.33301 -32.166 -19 -44.499s-28 -18.5 -46 -18.5c-17.333 0 -32.333 6.16699 -45 18.5s-19 27.166 -19 44.499s6.33301 32 19 44s27.667 18 45 18c18 0 33.333 -6 46 -18s19 -26.667 19 -44zM109 442c13.333 0 25.333 5 36 15s16 22 16 36
c0 13.333 -5.33301 25 -16 35s-22.667 15 -36 15c-14 0 -26 -5 -36 -15s-15 -21.667 -15 -35c0 -14 5 -26 15 -36s22 -15 36 -15z" />
    <glyph glyph-name="plusminus" unicode="&#xb1;" horiz-adv-x="418" 
d="M398 340c-23.333 -5.33301 -51.1729 -8.99805 -83.5059 -10.998s-65.166 -3.66699 -98.499 -5c-28.667 -49.333 -50.334 -95.333 -65.001 -138c-1.33301 -2.66699 -2.5 -5.83398 -3.5 -9.50098s-1.5 -7.16699 -1.5 -10.5c0 -2.66699 1 -4.5 3 -5.5s5.33301 -0.5 10 1.5
c5.33301 2 12.333 5.33301 21 10c2.66699 3.33301 4.33398 4.33301 5.00098 3s0 -3.66602 -2 -6.99902c-3.33301 -3.33301 -9.83301 -8 -19.5 -14s-17.5 -9.66699 -23.5 -11c-5.33301 -2 -9.33301 -2.5 -12 -1.5s-4.5 2.83301 -5.5 5.5s-1.33301 5.66699 -1 9
s0.833008 6.33301 1.5 9c8 22.667 18.667 47.834 32 75.501s27.666 55.5 42.999 83.5c-29.333 0 -56.5 0.833008 -81.5 2.5s-45.167 3.5 -60.5 5.5c-1.33301 0 -3.66602 1.33301 -6.99902 4l-11 9l-11 9.5c-3.33301 3 -5.66602 5.5 -6.99902 7.5
c-2.66699 3.33301 -3.5 5.66602 -2.5 6.99902s1.83301 1.66602 2.5 0.999023c4.66699 -4 10.334 -7.5 17.001 -10.5s12.667 -5.16699 18 -6.5c21.333 -3.33301 45 -6 71 -8s53 -3.33301 81 -4c19.333 35.333 38.5 68 57.5 98s34.833 53.333 47.5 70
c1.33301 2 4 4.16699 8 6.5l13.5 7.5c5 2.66699 9.83301 4.83398 14.5 6.50098s8.33398 2.83398 11.001 3.50098c3.33301 1.33301 5.33301 1.16602 6 -0.500977s0.333984 -2.83398 -0.999023 -3.50098c-5.33301 -2 -11.166 -5.66699 -17.499 -11s-11.5 -10.333 -15.5 -15
c-16 -21.333 -33.333 -46.166 -52 -74.499l-55 -87.5c27.333 0 53.5 0.833008 78.5 2.5s47.833 5.16699 68.5 10.5c2.66699 0 5.5 0.5 8.5 1.5s5.5 2.33301 7.5 4s3 3.5 3 5.5c0 2.66699 -1.66699 5.66699 -5 9c-4 5.33301 -9.33301 9.66602 -16 12.999
c-3.33301 1.33301 -4.83301 2.66602 -4.5 3.99902s2.5 2 6.5 2c3.33301 -0.666992 9.33301 -4 18 -10s14.667 -11.667 18 -17c6.66699 -8 8 -14.167 4 -18.5s-8.33301 -6.83301 -13 -7.5zM31.9932 73.002c-12.667 0 -18.999 2.33301 -18.999 7c0 10.667 12.667 16 38 16h323
c14 0 21 -2.66699 21 -8c0 -9.33301 -10 -14 -30 -14c-15.333 0 -37.333 -0.166992 -66 -0.5s-59.334 -0.5 -92.001 -0.5h-96h-79z" />
    <glyph glyph-name="twosuperior" unicode="&#xb2;" horiz-adv-x="239" 
d="M172 375c-5.33301 0.666992 -11.334 1 -18.001 1h-21c-17.333 0 -35.166 -0.333008 -53.499 -1s-37.833 -1.66699 -58.5 -3c-5.33301 -0.666992 -8 0.666016 -8 3.99902c0 6.66699 5.33301 10.667 16 12l29 8.5c10 3 20 6.83301 30 11.5c23.333 10.667 45 24 65 40
c30 22.667 47 46.334 51 71.001c1.33301 9.33301 -1.33398 18.666 -8.00098 27.999c-8 10.667 -18 17 -30 19c-5.33301 2 -10.666 3 -15.999 3c-18 0 -36.667 -5.66699 -56 -17c-2 -1.33301 -3 -1 -3 1c0 4.66699 2.66699 8.66699 8 12c22.667 13.333 47 19 73 17
c18 -0.666992 31.667 -7 41 -19c7.33301 -10.667 11 -21.667 11 -33c0 -26.667 -19 -53.667 -57 -81c-15.333 -11.333 -30.5 -21.5 -45.5 -30.5s-30.167 -16.167 -45.5 -21.5c-4 -1.33301 -6 -2.66602 -6 -3.99902c0 -5.33301 33.333 -8 100 -8c6.66699 0 10 -1.66699 10 -5
s-2.66699 -5 -8 -5z" />
    <glyph glyph-name="threesuperior" unicode="&#xb3;" horiz-adv-x="249" 
d="M196 415c-11.333 -22.667 -34.333 -41.002 -69 -55.002c-30 -12.667 -56.333 -19.334 -79 -20.001c-26 0 -39 4.33301 -39 13s3.33301 13 10 13c3.33301 0 5.33301 -2.66699 6 -8c0 -8.66699 7.33301 -13 22 -13c10.667 0 21.667 1.66699 33 5s23.333 7.66602 36 12.999
c31.333 14.667 51.333 32.334 60 53.001c2 4.66699 3 10 3 16c0 14.667 -4.66699 25.334 -14 32.001c-13.333 10.667 -31.666 14.667 -54.999 12c-1.33301 0 -2 1 -2 3c0 4.66699 3.33301 7 10 7c14.667 0 31.334 5.66699 50.001 17
c9.33301 5.33301 17.166 10.333 23.499 15s11.166 9.66699 14.499 15c2.66699 6 4 12.333 4 19c0 11.333 -5.66699 17 -17 17c-18 0 -37.333 -4.66699 -58 -14c-1.33301 -1.33301 -2 -0.333008 -2 3c0 2.66699 2.33301 6 7 10c8.66699 4.66699 18.167 8.33398 28.5 11.001
s21.5 4 33.5 4c21.333 0 32 -8 32 -24c0 -5.33301 -1.66699 -11.333 -5 -18c-6 -10 -15.333 -19 -28 -27s-28 -15.667 -46 -23c-2 -1.33301 -3 -2.66602 -3 -3.99902s1 -2 3 -2c13.333 -1.33301 24.333 -6.5 33 -15.5s13 -19.833 13 -32.5c0 -8.66699 -1.66699 -16 -5 -22z
" />
    <glyph glyph-name="acute" unicode="&#xb4;" horiz-adv-x="266" 
d="M362 537c-4.66699 -1.33301 -8 -0.333984 -10 2.99902c-1.33301 4 0 7 4 9l24 11.5l66 32.5c48.667 24.667 75 37 79 37c10.667 0 16 -7.33301 16 -22c0 -7.33301 -3.33301 -12 -10 -14l-99 -32c-28 -9.33301 -51.333 -17.666 -70 -24.999z" />
    <glyph glyph-name="mu" unicode="&#xb5;" horiz-adv-x="448" 
d="M429 366l-29.002 -63.0039c-12 -26.667 -23.833 -54.334 -35.5 -83.001s-21.834 -56 -30.501 -82s-13 -45.667 -13 -59c0 -15.333 2.5 -25 7.5 -29s11.333 -5 19 -3s15.334 5.83301 23.001 11.5s13.834 11.167 18.501 16.5c9.33301 8.66699 15.166 10.334 17.499 5.00098
s0.166016 -12.666 -6.50098 -21.999c-6 -7.33301 -13.167 -15.166 -21.5 -23.499s-16.5 -14.5 -24.5 -18.5c-4 -2 -9.16699 -2.16699 -15.5 -0.5s-12.5 4.5 -18.5 8.5s-11.167 9 -15.5 15s-6.83301 12.333 -7.5 19c-2 12.667 -0.833008 28.5 3.5 47.5s10 38.667 17 59
s14.167 40 21.5 59s12.333 34.833 15 47.5c1.33301 4.66699 1.83301 9.16699 1.5 13.5s-1.5 7.33301 -3.5 9s-5 1.83398 -9 0.500977s-8.33301 -5.33301 -13 -12l-33 -44.5l-40.5 -53.5l-44 -56l-42.5 -51.5c-13.333 -15.667 -25.5 -29 -36.5 -40s-19.5 -18.167 -25.5 -21.5
c-15.333 -7.33301 -28.5 -9.16602 -39.5 -5.49902s-19.167 11.167 -24.5 22.5l-42.5 -153.5c-12.333 -45.667 -22.833 -87.167 -31.5 -124.5c0 -3.33301 -1.83301 -6.5 -5.5 -9.5s-8 -5.66699 -13 -8s-10 -4 -15 -5s-9.5 -0.833008 -13.5 0.5
c-3.33301 -1.33301 -5.83301 1 -7.5 7s-3.16699 12.833 -4.5 20.5s-2.16602 14.834 -2.49902 21.501l-0.5 10c0.666992 2 2.33398 3.66699 5.00098 5s5.5 2.5 8.5 3.5s6 1.83301 9 2.5s4.83301 1.66699 5.5 3c4.66699 11.333 10.167 25.5 16.5 42.5l20 56l21.5 63l21 63.5
l18.5 58l14.5 46c6.66699 24.667 15.167 50.667 25.5 78s21.166 53.5 32.499 78.5s22.5 48 33.5 69s20.167 37.5 27.5 49.5c2.66699 5.33301 6.83398 9.33301 12.501 12s10.834 3.83398 15.501 3.50098s7.66699 -2.5 9 -6.5s-0.666992 -10.333 -6 -19l-39 -71.5
c-14 -26.333 -27.167 -52.833 -39.5 -79.5s-23 -52.334 -32 -77.001s-14.5 -46 -16.5 -64c-4.66699 -15.333 -6.16699 -28 -4.5 -38s5.33398 -17.333 11.001 -22s12.667 -6.16699 21 -4.5s16.833 6.16699 25.5 13.5c23.333 19.333 47.166 44.166 71.499 74.499
s48.333 62 72 95l67.5 95.5c21.333 30.667 40.666 56.334 57.999 77.001c5.33301 7.33301 10.5 10.5 15.5 9.5s9.16699 -3.83301 12.5 -8.5s5.83301 -10.334 7.5 -17.001s1.83398 -12 0.500977 -16z" />
    <glyph glyph-name="paragraph" unicode="&#xb6;" horiz-adv-x="647" 
d="M174 732c40.667 42 83.002 72.501 127.002 91.501s95 25.5 153 19.5c12.667 -0.666992 25 -1.66699 37 -3c10 -1.33301 20.333 -2.33301 31 -3s19.667 -1.66699 27 -3l33 66c6.66699 12.667 13.334 26.667 20.001 42s11.667 30 15 44s5 26 5 36c0 10.667 -3 17.667 -9 21
c4.66699 4.66699 9.33398 8.66699 14.001 12c4 3.33301 8 6.33301 12 9s7.66699 4.33398 11 5.00098c3.33301 0 6.33301 -1.33301 9 -4c1.33301 -1.33301 2.33301 -3 3 -5c2 -7.33301 0.333008 -18.5 -5 -33.5s-12 -30.833 -20 -47.5s-16.167 -32.5 -24.5 -47.5
s-14.5 -25.833 -18.5 -32.5l-41 -92.5l-58.5 -131l-68 -154.5l-70.5 -163.5l-65.5 -158l-53 -137.5c-15 -40.667 -26.333 -74.5 -34 -101.5s-10.167 -44.167 -7.5 -51.5c0 -0.666992 0.5 -2.83398 1.5 -6.50098s4.16699 -11.167 9.5 -22.5
c-9.33301 8.66699 -14.833 13.667 -16.5 15s-2.33398 1.83301 -2.00098 1.5s0.166016 0 -0.500977 1s-4.66699 5.16699 -12 12.5c-0.666992 9.33301 -2 18.333 -4 27s-2 18.334 0 29.001c1.33301 5.33301 4.5 15.333 9.5 30l18.5 52.5l24.5 65.5l27 68.5l26 62.5
c8.33301 19.333 15.5 34.666 21.5 45.999l-37 -27c-13.333 -9.33301 -27.333 -17.333 -42 -24s-29.667 -11.334 -45 -14.001s-30.333 -1.66699 -45 3c-21.333 0.666992 -39.333 9 -54 25s-25.334 37.333 -32.001 64s-9.33398 57.167 -8.00098 91.5s7.16602 70 17.499 107
s25.333 74.167 45 111.5s44.834 72 75.501 104zM191.002 723.001c-10 -20.667 -18.002 -41.5049 -24.002 -62.5049s-9.5 -40 -10.5 -57s0.833008 -31.167 5.5 -42.5s13 -18 25 -20c16 -1.33301 32.833 2.83398 50.5 12.501s35.334 22 53.001 37s34.334 31.333 50.001 49
l41.5 48.5c12 14.667 21.167 26.334 27.5 35.001s8.83301 11.667 7.5 9c-5.33301 -10.667 -10 -24.667 -14 -42s-7.5 -35.666 -10.5 -54.999s-5.33301 -38.5 -7 -57.5s-2.5 -35.167 -2.5 -48.5s1 -22.833 3 -28.5s5 -5.16699 9 1.5l14.5 32.5l11 25
c3.66699 8.33301 8.16699 17.833 13.5 28.5l21.5 44l34.5 72l52 112c-3.33301 0.666992 -7.83301 1.5 -13.5 2.5s-11.5 1.83301 -17.5 2.5s-11.667 1.16699 -17 1.5s-9 0.5 -11 0.5c-20 3.33301 -42 4.83301 -66 4.5s-48.333 -3.16602 -73 -8.49902
s-48.5 -13.666 -71.5 -24.999s-43.833 -26.333 -62.5 -45z" />
    <glyph glyph-name="periodcentered" unicode="&#xb7;" horiz-adv-x="113" 
d="M82 42c0 -2 -2 -4.50195 -6 -7.50195s-8.5 -5.5 -13.5 -7.5s-9.83301 -3.33301 -14.5 -4s-8 0 -10 2c-1.33301 2 -2.5 5.5 -3.5 10.5s-1.83301 10.333 -2.5 16s-1.16699 10.834 -1.5 15.501s0.166992 8 1.5 10s4 4.33301 8 7s8.33301 5 13 7s9.16699 3.5 13.5 4.5
s7.5 0.5 9.5 -1.5c1.33301 -1.33301 2.33301 -4.5 3 -9.5l2 -15.5c0.666992 -5.33301 1 -10.666 1 -15.999v-11z" />
    <glyph glyph-name="periodcentered" unicode="&#x2219;" horiz-adv-x="113" 
d="M82 42c0 -2 -2 -4.50195 -6 -7.50195s-8.5 -5.5 -13.5 -7.5s-9.83301 -3.33301 -14.5 -4s-8 0 -10 2c-1.33301 2 -2.5 5.5 -3.5 10.5s-1.83301 10.333 -2.5 16s-1.16699 10.834 -1.5 15.501s0.166992 8 1.5 10s4 4.33301 8 7s8.33301 5 13 7s9.16699 3.5 13.5 4.5
s7.5 0.5 9.5 -1.5c1.33301 -1.33301 2.33301 -4.5 3 -9.5l2 -15.5c0.666992 -5.33301 1 -10.666 1 -15.999v-11z" />
    <glyph glyph-name="cedilla" unicode="&#xb8;" horiz-adv-x="132" 
d="M91 7c3.33301 2 6.1709 2.33301 8.50391 1s1.83301 -3.33301 -1.5 -6c-4 -2.66699 -7.83301 -6 -11.5 -10l-10.5 -12c-1.33301 -1.33301 -2.16602 -3 -2.49902 -5s1.16699 -3.66699 4.5 -5s7.33301 -3.33301 12 -6s8.83398 -6.16699 12.501 -10.5s6 -9.5 7 -15.5
s-0.5 -13 -4.5 -21c-2.66699 -4.66699 -7.33398 -9.5 -14.001 -14.5s-14.334 -9.83301 -23.001 -14.5s-17.834 -8.66699 -27.501 -12s-18.834 -5.33301 -27.501 -6c-5.33301 0 -8.33301 1.5 -9 4.5s1.66602 4.5 6.99902 4.5c6.66699 0.666992 13.667 2.33398 21 5.00098
s14.333 6 21 10s12.667 8.5 18 13.5s9 9.5 11 13.5c6 9.33301 6 17.666 0 24.999s-15.667 13 -29 17c-7.33301 2 -9 5 -5 9c11.333 11.333 25.666 23 42.999 35z" />
    <glyph glyph-name="onesuperior" unicode="&#xb9;" horiz-adv-x="198" 
d="M107 392c-38.667 0 -64.3369 -0.996094 -77.0039 -2.99609c-4.66699 0 -7.66699 1.33301 -9 4c-1.33301 6 1 9 7 9c4 1.33301 10.333 2.16602 19 2.49902s19.334 0.833008 32.001 1.5c6.66699 18 15.334 39.667 26.001 65s24 54.333 40 87
c0.666992 1.33301 1 2.66602 1 3.99902c-1.33301 2 -2.66602 3 -3.99902 3s-2.33301 -0.333008 -3 -1c-10 -3.33301 -20 -7 -30 -11s-20.333 -7.66699 -31 -11c-1.33301 0 -2.16602 -0.166992 -2.49902 -0.5s-0.833008 -0.5 -1.5 -0.5c-3.33301 0 -5 1 -5 3
c0.666992 1.33301 1.5 2.16602 2.5 2.49902s2.16699 1.16602 3.5 2.49902c52.667 20.667 88.667 38 108 52c1.33301 0.666992 2.66602 1 3.99902 1c2.66699 0 5 -1.66699 7 -5c0 -2.66699 -1 -4.66699 -3 -6s-4.33301 -3 -7 -5s-6 -4.33301 -10 -7
c-0.666992 -1.33301 -0.833984 -3 -0.500977 -5s0.5 -4.66699 0.5 -8c-8 -6 -21.667 -27 -41 -63c-20.667 -36 -33 -63 -37 -81c-0.666992 -2 -1 -4.33301 -1 -7c0.666992 -5.33301 6.33398 -9 17.001 -11c12 -2 22.167 -3.33301 30.5 -4s14.5 -1 18.5 -1
c4.66699 0.666992 7 0 7 -2c1.33301 -2.66699 -1.66699 -4.16699 -9 -4.5s-20.666 -0.5 -39.999 -0.5h-12z" />
    <glyph glyph-name="ordmasculine" unicode="&#xba;" horiz-adv-x="201" 
d="M174 493c0 -17.333 -6.33301 -32.166 -19 -44.499s-28 -18.5 -46 -18.5c-17.333 0 -32.333 6.16699 -45 18.5s-19 27.166 -19 44.499s6.33301 32 19 44s27.667 18 45 18c18 0 33.333 -6 46 -18s19 -26.667 19 -44zM109 442c13.333 0 25.333 5 36 15s16 22 16 36
c0 13.333 -5.33301 25 -16 35s-22.667 15 -36 15c-14 0 -26 -5 -36 -15s-15 -21.667 -15 -35c0 -14 5 -26 15 -36s22 -15 36 -15z" />
    <glyph glyph-name="guillemotright" unicode="&#xbb;" horiz-adv-x="370" 
d="M286 154c5.33301 12 4.33496 52.667 -2.99805 122c-0.666992 7.33301 1 11 5 11c3.33301 0 5.66602 -3 6.99902 -9c23.333 -87.333 33 -133.333 29 -138c-2.66699 -6.66699 -23 -23.334 -61 -50.001l-46 -29.5l-45 -29.5c-6.66699 -5.33301 -10.334 -6 -11.001 -2
c-3.33301 2 -2.33301 5 3 9c72 58.667 112.667 97.334 122 116.001zM147.002 154c6 11.333 5.00098 51.999 -2.99902 121.999c-0.666992 7.33301 0.666016 11 3.99902 11c2.66699 0 10 -23.667 22 -71c12.667 -47.333 18 -73 16 -77s-8.16699 -9.83301 -18.5 -17.5
l-43.5 -31.5l-45.5 -30.5l-45.5 -29.5c-6 -5.33301 -9.66699 -5.66602 -11 -0.999023c-2 2 -1 5 3 9c71.333 57.333 112 96 122 116z" />
    <glyph glyph-name="onequarter" unicode="&#xbc;" horiz-adv-x="506" 
d="M290 -22c0 -5.33301 -0.999023 -8.00488 -2.99902 -8.00488c-3.33301 0 -4.33301 3.33301 -3 10c1.33301 32.667 16.333 79.334 45 140.001c-4.66699 0.666992 -11.667 1 -21 1h-33c-17.333 0.666992 -31.333 0.833984 -42 0.500977s-19 -1.16602 -25 -2.49902
c-3.33301 -1.33301 -6.66602 -4.66602 -9.99902 -9.99902c-2.66699 -4.66699 -4.5 -7.66699 -5.5 -9s-1.83301 -2 -2.5 -2c-2.66699 0 -4 4.33301 -4 13c0 3.33301 1 6.66602 3 9.99902c0 0.666992 3.66699 4 11 10c1.33301 0.666992 2.83301 1.5 4.5 2.5
s3.16699 3.16699 4.5 6.5c16.667 24 45.667 59 87 105c21.333 24.667 39.833 44.667 55.5 60l41.5 40c0.666992 0.666992 1.66699 1 3 1c4 0 6 -2.66699 6 -8c0 -2.66699 -1 -5 -3 -7c-12 -9.33301 -26.5 -22.5 -43.5 -39.5l-60.5 -63.5
c-22 -23.333 -39.333 -42.5 -52 -57.5s-21 -25.167 -25 -30.5c5.33301 0.666992 11.166 1.16699 17.499 1.5s13.833 0.5 22.5 0.5c8 0 16 -0.166992 24 -0.5s16.333 -0.5 25 -0.5c4.66699 -0.666992 8.66699 -1 12 -1h10h8l51 93.5l65 118.5c4 9.33301 13 14 27 14
c3.33301 0 5 -1 5 -3v-1l-31.5 -52c-11.667 -19.333 -25.167 -43 -40.5 -71l-37.5 -66l-20.5 -37c14 -1.33301 25 -2.16602 33 -2.49902s13 -0.166016 15 0.500977c1.33301 1.33301 2 1 2 -1s-1.66699 -4.83301 -5 -8.5s-6.33301 -5.5 -9 -5.5h-28
c-6.66699 0 -11.334 0.333008 -14.001 1c-16.667 -34 -27 -54.667 -31 -62c-18 -35.333 -27.333 -62 -28 -80zM28.001 18.9951c-3.33301 -11.333 -5.66699 -17.001 -7 -17.001c-1.33301 2.66699 -2 9 -2 19c4 35.333 65.667 120.333 185 255
c109.333 123.333 200.333 215.333 273 276c5.33301 4.66699 10 7 14 7s6 -2.33301 6 -7c0 -2.66699 -2.33301 -7 -7 -13c-38.667 -32 -80.667 -70.5 -126 -115.5s-94.333 -96.5 -147 -154.5c-118 -129.333 -181 -212.666 -189 -249.999zM109 287.994
c-40 0 -67.002 -1.00098 -81.002 -3.00098c-4.66699 0 -7 1.66699 -7 5c0 7.33301 2.33301 11.333 7 12c6 1.33301 13.5 2.33301 22.5 3s20.5 1.66699 34.5 3c10.667 25.333 24.334 55.5 41.001 90.5l59 119.5c2 2 3 4.66699 3 8c0 2.66699 -1 4 -3 4
c-0.666992 0 -1 -0.333008 -1 -1h-1h-1c-12 -6.66699 -23.667 -12.5 -35 -17.5l-34 -14.5c-2.66699 -1.33301 -4.66699 -2 -6 -2s-2.33301 0.333008 -3 1s-0.333984 1.66699 0.999023 3c0.666992 1.33301 1.33398 2.5 2.00098 3.5s2 1.83301 4 2.5
c58 29.333 99.333 53.333 124 72c2.66699 2 4.33398 3 5.00098 3c2.66699 0 4 -2.33301 4 -7c0 -4 -0.666992 -6.66699 -2 -8c-2 -2 -5 -4.5 -9 -7.5l-13 -9.5c-0.666992 -0.666992 -1 -2.66699 -1 -6s-0.666992 -7 -2 -11c-4.66699 -5.33301 -11.834 -15.333 -21.501 -30
s-21.167 -34 -34.5 -58c-14 -24.667 -25.833 -46.5 -35.5 -65.5s-16.5 -34.833 -20.5 -47.5c-2.66699 -3.33301 -4 -7 -4 -11c0 -7.33301 5.66699 -11.666 17 -12.999c22.667 -6 39.334 -8.33301 50.001 -7c5.33301 1.33301 8 0.333008 8 -3c0 -4 -4 -6.33301 -12 -7
s-22 -1 -42 -1h-13z" />
    </font>
</defs>
</svg>
